<?xml version="1.0" standalone="no"?>
<!DOCTYPE svg PUBLIC "-//W3C//DTD SVG 1.1//EN" "http://www.w3.org/Graphics/SVG/1.1/DTD/svg11.dtd" >
<svg>
<metadata>
Created by FontForge 20090914 at Mon Oct  6 11:27:10 2014
 By www-data
&#194;&#169; 2009 Microsoft Corporation. All Rights Reserved.
</metadata>
<defs>
<font id="SegoeUI-Light" horiz-adv-x="0" >
  <font-face 
    font-family="Segoe UI Light"
    font-weight="300"
    font-stretch="normal"
    units-per-em="2048"
    panose-1="2 11 5 2 4 2 4 2 2 3"
    ascent="1638"
    descent="-410"
    x-height="1024"
    cap-height="1434"
    bbox="-890 -550 2677 2138"
    underline-thickness="119"
    underline-position="-119"
    unicode-range="U+000D-U+FE23"
  />
<missing-glyph horiz-adv-x="1322" 
d="M166 0v1398h990v-1398h-990zM314 148h694v1102h-694v-1102z" />
    <glyph glyph-name=".notdef" horiz-adv-x="1322" 
d="M166 0v1398h990v-1398h-990zM314 148h694v1102h-694v-1102z" />
    <glyph glyph-name="uni000D" unicode="&#xd;" 
 />
    <glyph glyph-name="space" unicode=" " horiz-adv-x="561" 
 />
    <glyph glyph-name="exclam" unicode="!" horiz-adv-x="582" 
d="M332 403h-86l-10 1031h106zM291 -18c-22.667 0 -41.667 7.83301 -57 23.5s-23 34.834 -23 57.501c0 23.333 7.66699 42.5 23 57.5s34.333 22.5 57 22.5s42 -7.5 58 -22.5s24 -34.167 24 -57.5c0 -22.667 -8 -41.834 -24 -57.501s-35.333 -23.5 -58 -23.5z" />
    <glyph glyph-name="quotedbl" unicode="&#x22;" horiz-adv-x="686" 
d="M506 985h-76l-10 449h96zM258 985h-76l-10 449h96z" />
    <glyph glyph-name="numbersign" unicode="#" horiz-adv-x="1237" 
d="M1128 946h-272l-76 -346h285l-18 -78h-283l-86 -399h-80l86 399h-268l-86 -399h-80l86 399h-283l19 78h280l76 346h-293l19 78h290l88 410h80l-88 -410h269l88 410h80l-89 -410h275zM508 946l-76 -346h268l76 346h-268z" />
    <glyph glyph-name="dollar" unicode="$" horiz-adv-x="1055" 
d="M567 4l-0.000976562 -212.999h-78v209c-125.333 0 -234.333 26.667 -327 80v102c101.333 -65.333 210.333 -98 327 -98v598c-131.333 75.333 -218.666 140.166 -261.999 194.499s-65 119.166 -65 194.499c0 90.667 29.333 169.667 88 237
s138.334 108.666 239.001 123.999v182h78v-180c101.333 0 188 -14.333 260 -43v-103c-68.667 40 -155.334 60 -260.001 60v-607c122.667 -67.333 207.667 -129.166 255 -185.499s71 -122.833 71 -199.5c0 -93.333 -28.5 -171.666 -85.5 -234.999
s-137.167 -102.333 -240.5 -117zM488.999 1346c-71.333 -11.333 -127.668 -40.668 -169.001 -88.001s-62 -105.666 -62 -174.999c0 -58.667 15.333 -109.5 46 -152.5s92.334 -91.167 185.001 -144.5v560zM566.997 634.999v-549c76 13.333 133.333 42.5 172 87.5
s58 99.833 58 164.5c0 61.333 -16.167 113.333 -48.5 156s-92.833 89.667 -181.5 141z" />
    <glyph glyph-name="percent" unicode="%" horiz-adv-x="1606" 
d="M414 729c-102.667 0 -183.667 33.668 -243 101.001s-89 154.666 -89 261.999c0 116.667 31.5 207.5 94.5 272.5s145.5 97.5 247.5 97.5c100 0 179.333 -32.333 238 -97s88 -155 88 -271c0 -104 -30.5 -190.833 -91.5 -260.5s-142.5 -104.5 -244.5 -104.5zM422 1380
c-76.667 0 -137.166 -25.5 -181.499 -76.5s-66.5 -122.167 -66.5 -213.5c0 -86 21.5 -154.333 64.5 -205s102.167 -76 177.5 -76c76 0 135.5 26 178.5 78s64.5 121.667 64.5 209c0 94 -21.333 164.833 -64 212.5s-100.334 71.5 -173.001 71.5zM416.001 -32.999h-99l863 1465
h96zM1198 -24.999c-102 0 -182.833 33.667 -242.5 101s-89.5 154.666 -89.5 261.999c0 118 32 209.333 96 274s146 97 246 97s179.333 -32.667 238 -98s88 -155.666 88 -270.999c0 -104 -30.5 -190.833 -91.5 -260.5s-142.5 -104.5 -244.5 -104.5zM1206 627.001
c-76 0 -136.333 -26 -181 -78s-67 -123 -67 -213c0 -86 21.5 -154.333 64.5 -205s102.167 -76 177.5 -76c76.667 0 136.5 25.833 179.5 77.5s64.5 121.5 64.5 209.5c0 94 -21.333 165 -64 213s-100.667 72 -174 72z" />
    <glyph glyph-name="ampersand" unicode="&#x26;" horiz-adv-x="1427" 
d="M1260 0l-192.998 187.999c-134 -142 -293.667 -213 -479 -213c-140.667 0 -250.334 36.167 -329.001 108.5s-118 164.5 -118 276.5c0 184 110.667 325.333 332 424c-108 124.667 -162 238.667 -162 342c0 92.667 32.833 171.167 98.5 235.5s150.5 96.5 254.5 96.5
c95.333 0 170.333 -27.167 225 -81.5s82 -123.5 82 -207.5c0 -91.333 -27.667 -169.166 -83 -233.499s-142.333 -123.5 -261 -177.5c100 -106 246.667 -250.667 440 -434c83.333 124 127.666 268.667 132.999 434h96c-4.66699 -178 -60 -344 -166 -498l273 -262z
M563.002 822.999c116 51.333 196.833 102.666 242.5 153.999s68.5 111.333 68.5 180c0 66 -21 118.667 -63 158s-94 59 -156 59c-75.333 0 -135.333 -24.167 -180 -72.5s-67 -107.5 -67 -177.5c0 -85.333 51.667 -185.666 155 -300.999zM1006 249.999
c-221.333 214 -377.668 370.333 -469.001 469c-199.333 -86.667 -299 -204 -299 -352c0 -90 31.833 -163.833 95.5 -221.5s151.167 -86.5 262.5 -86.5c152.667 0 289.334 63.667 410.001 191z" />
    <glyph glyph-name="quotesingle" unicode="'" horiz-adv-x="438" 
d="M258 985h-76l-10 449h96z" />
    <glyph glyph-name="parenleft" unicode="(" horiz-adv-x="578" 
d="M453 -326c-202 236 -303 526.333 -303 871c0 360 102.333 656.333 307 889h98c-208.667 -240 -313 -535.667 -313 -887c0 -331.333 103 -622.333 309 -873h-98z" />
    <glyph glyph-name="parenright" unicode=")" horiz-adv-x="578" 
d="M125 -326h-98c206 250.667 309 541.667 309 873c0 351.333 -104.333 647 -313 887h98c204.667 -234 307 -530.333 307 -889c0 -346 -101 -636.333 -303 -871z" />
    <glyph glyph-name="asterisk" unicode="*" horiz-adv-x="831" 
d="M469 1051l199 -267l-76 -51l-174 277l-178 -277l-74 51l199 267l-295 75l26 86l289 -102l-16 324h94l-14 -324l286 102l27 -86z" />
    <glyph glyph-name="plus" unicode="+" horiz-adv-x="1331" 
d="M709 555v-412h-84v412h-412v84h412v412h84v-412h411v-84h-411z" />
    <glyph glyph-name="comma" unicode="," horiz-adv-x="455" 
d="M125 -248h-78l150 475h102z" />
    <glyph glyph-name="hyphen" unicode="-" horiz-adv-x="815" 
d="M145 555v90h547v-90h-547z" />
    <glyph glyph-name="period" unicode="." horiz-adv-x="455" 
d="M227 -18c-22.667 0 -41.667 7.83301 -57 23.5s-23 34.834 -23 57.501c0 23.333 7.66699 42.5 23 57.5s34.333 22.5 57 22.5s42 -7.5 58 -22.5s24 -34.167 24 -57.5c0 -22.667 -8 -41.834 -24 -57.501s-35.333 -23.5 -58 -23.5z" />
    <glyph glyph-name="slash" unicode="/" horiz-adv-x="750" 
d="M63 -238h-92l693 1672h96z" />
    <glyph glyph-name="zero" unicode="0" horiz-adv-x="1055" 
d="M516 -25c-132 0 -235.332 60.668 -309.999 182.001s-112 297.666 -112 528.999c0 255.333 39.167 447.833 117.5 577.5s190.166 194.5 335.499 194.5c276 0 414 -245 414 -735c0 -244 -39 -429.667 -117 -557s-187.333 -191 -328 -191zM539.001 1374
c-110 0 -195.667 -56.334 -257 -169.001s-92 -281.667 -92 -507c0 -205.333 29.333 -363.166 88 -473.499s142 -165.5 250 -165.5c106 0 188.5 56.167 247.5 168.5s88.5 272.833 88.5 481.5c0 443.333 -108.333 665 -325 665z" />
    <glyph glyph-name="one" unicode="1" horiz-adv-x="1055" 
d="M170 0v84h328v1280l-351 -125v92l443 154v-1401h323v-84h-743z" />
    <glyph glyph-name="two" unicode="2" horiz-adv-x="1055" 
d="M82 0l0.000976562 97.998l391 416c139.333 148.667 230.833 258.334 274.5 329.001s65.5 149.334 65.5 236.001c0 93.333 -26 165.833 -78 217.5s-125.667 77.5 -221 77.5c-126.667 0 -246 -49.667 -358 -149v108c109.333 83.333 232.666 125 369.999 125
c122.667 0 217.167 -33 283.5 -99s99.5 -154.333 99.5 -265c0 -98.667 -23.667 -188 -71 -268s-148.333 -202.333 -303 -367l-351 -371v-4h717v-84h-819z" />
    <glyph glyph-name="three" unicode="3" horiz-adv-x="1055" 
d="M115 51l0.00195312 105c109.333 -64.667 212.333 -97 309 -97c115.333 0 205.666 29.5 270.999 88.5s98 136.167 98 231.5c0 106 -37.5 186.333 -112.5 241s-181.833 82 -320.5 82h-110v84h98c128 0 225.5 27.167 292.5 81.5s100.5 131.166 100.5 230.499
c0 86 -24.333 153.5 -73 202.5s-119.667 73.5 -213 73.5c-90 0 -184.333 -31.333 -283 -94v98c108 53.333 207 80 297 80c113.333 0 203.166 -30.667 269.499 -92s99.5 -142.666 99.5 -243.999c0 -194 -93 -317.333 -279 -370v-4c100 -10 180 -47.167 240 -111.5
s90 -145.5 90 -243.5c0 -125.333 -43.333 -226.333 -130 -303s-199 -115 -337 -115c-106.667 0 -209 25.333 -307 76z" />
    <glyph glyph-name="four" unicode="4" horiz-adv-x="1055" 
d="M782 406v-406h-92v406h-661v77l661 951h92v-945h191v-83h-191zM690 1169c0 54 1.33301 97 4 129h-4c-18 -33.333 -35 -62 -51 -86l-502 -723h553v680z" />
    <glyph glyph-name="five" unicode="5" horiz-adv-x="1055" 
d="M156 29v106c92 -50.667 183.333 -76 274 -76c118 0 210 32.333 276 97s99 150.667 99 258c0 233.333 -133 350 -399 350c-60 0 -130.333 -4 -211 -12v682h645v-84h-553v-510c72 5.33301 123 8 153 8c151.333 0 266 -37.167 344 -111.5s117 -177.833 117 -310.5
c0 -134 -41.333 -242.667 -124 -326s-201 -125 -355 -125c-103.333 0 -192 18 -266 54z" />
    <glyph glyph-name="six" unicode="6" horiz-adv-x="1055" 
d="M889 1423l-0.000976562 -98c-68.667 32.667 -139 49 -211 49c-141.333 0 -253.5 -66.833 -336.5 -200.5s-124.5 -308.5 -124.5 -524.5h4c70 165.333 189.667 248 359 248c117.333 0 211.833 -42.167 283.5 -126.5s107.5 -189.5 107.5 -315.5
c0 -140.667 -40.167 -255.834 -120.5 -345.501s-182.833 -134.5 -307.5 -134.5c-131.333 0 -234.166 55.833 -308.499 167.5s-111.5 273.834 -111.5 486.501c0 252.667 48.833 454 146.5 604s234.5 225 410.5 225c79.333 0 149 -11.667 209 -35zM558.999 813
c-95.333 0 -174.167 -35.667 -236.5 -107s-93.5 -150.333 -93.5 -237c0 -112 29.667 -208.333 89 -289s137 -121 233 -121c92 0 168.833 35.5 230.5 106.5s92.5 161.167 92.5 270.5c0 112.667 -28 203.667 -84 273s-133 104 -231 104z" />
    <glyph glyph-name="seven" unicode="7" horiz-adv-x="1055" 
d="M379 0h-100l557 1350h-746v84h864v-25z" />
    <glyph glyph-name="eight" unicode="8" horiz-adv-x="1055" 
d="M430 745l-0.000976562 4.99902c-181.333 87.333 -272 207.333 -272 360c0 99.333 36.5 182.166 109.5 248.499s166.833 99.5 281.5 99.5c104.667 0 189.834 -30.333 255.501 -91s98.5 -138.667 98.5 -234c0 -162.667 -96.333 -289 -289 -379v-4
c224 -81.333 336 -214 336 -398c0 -111.333 -39 -202 -117 -272s-189 -105 -333 -105c-117.333 0 -211.833 33.833 -283.5 101.5s-107.5 154.834 -107.5 261.501c0 180.667 107 316.334 321 407.001zM525.999 796.999c187.333 74 281 182.334 281 325.001
c0 79.333 -25.167 141.166 -75.5 185.499s-115.833 66.5 -196.5 66.5c-78.667 0 -145.167 -24 -199.5 -72s-81.5 -107.333 -81.5 -178c0 -142.667 90.667 -251.667 272 -327zM517.999 700c-111.333 -45.333 -191.332 -95.333 -239.999 -150s-73 -124 -73 -208
c0 -82 29.333 -149.667 88 -203s137.667 -80 237 -80c101.333 0 180.666 26.833 237.999 80.5s86 120.5 86 200.5c0 88.667 -27.5 161.167 -82.5 217.5s-139.5 103.833 -253.5 142.5z" />
    <glyph glyph-name="nine" unicode="9" horiz-adv-x="1055" 
d="M178 12l0.000976562 101c76.667 -36 147 -54 211 -54c151.333 0 266.666 60.5 345.999 181.5s119 299.5 119 535.5h-4c-66 -154 -183.333 -231 -352 -231c-117.333 0 -212.666 41.167 -285.999 123.5s-110 187.833 -110 316.5c0 141.333 40.833 255.5 122.5 342.5
s185.167 130.5 310.5 130.5c128 0 229.167 -54.167 303.5 -162.5s111.5 -270.5 111.5 -486.5c0 -268 -48.167 -474 -144.5 -618s-235.833 -216 -418.5 -216c-70.667 0 -140.334 12.333 -209.001 37zM522.001 1374c-94 0 -171.332 -34.999 -231.999 -104.999
s-91 -158.333 -91 -265c0 -116 29.667 -207.5 89 -274.5s136.666 -100.5 231.999 -100.5c88 0 163.667 32.167 227 96.5s95 141.166 95 230.499c0 123.333 -29.833 223.833 -89.5 301.5s-136.5 116.5 -230.5 116.5z" />
    <glyph glyph-name="colon" unicode=":" horiz-adv-x="455" 
d="M227 881c-22.667 0 -41.667 8 -57 24s-23 35.333 -23 58s7.66699 41.5 23 56.5s34.333 22.5 57 22.5s42 -7.5 58 -22.5s24 -33.833 24 -56.5s-8 -42 -24 -58s-35.333 -24 -58 -24zM227 -18c-22.667 0 -41.667 7.83301 -57 23.5s-23 34.834 -23 57.501
c0 23.333 7.66699 42.5 23 57.5s34.333 22.5 57 22.5s42 -7.5 58 -22.5s24 -34.167 24 -57.5c0 -22.667 -8 -41.834 -24 -57.501s-35.333 -23.5 -58 -23.5z" />
    <glyph glyph-name="semicolon" unicode=";" horiz-adv-x="455" 
d="M236 881c-23.333 0 -42.5 8 -57.5 24s-22.5 35.333 -22.5 58s7.5 41.5 22.5 56.5s34.167 22.5 57.5 22.5c22.667 0 41.834 -7.5 57.501 -22.5s23.5 -33.833 23.5 -56.5s-7.83301 -42 -23.5 -58s-34.834 -24 -57.501 -24zM125 -248h-78l150 475h102z" />
    <glyph glyph-name="less" unicode="&#x3c;" horiz-adv-x="1331" 
d="M250 580v18l833 467v-94l-677 -379v-4l677 -334v-96z" />
    <glyph glyph-name="equal" unicode="=" horiz-adv-x="1331" 
d="M213 750v84h907v-84h-907zM213 362v84h907v-84h-907z" />
    <glyph glyph-name="greater" unicode="&#x3e;" horiz-adv-x="1331" 
d="M250 158v96l678 334v4l-678 379v94l833 -467v-18z" />
    <glyph glyph-name="question" unicode="?" horiz-adv-x="881" 
d="M377 398c-6.66699 16.667 -12.498 38.5 -17.498 65.5s-7.5 53.833 -7.5 80.5c0 31.333 4.16699 59.833 12.5 85.5s20 49.834 35 72.501s33 44.667 54 66s44.167 43 69.5 65c21.333 19.333 42.333 39.5 63 60.5s39 43.5 55 67.5s28.833 50.167 38.5 78.5
s14.5 59.5 14.5 93.5c0 36.667 -6.16699 69.5 -18.5 98.5s-29.5 53.667 -51.5 74s-48.5 35.833 -79.5 46.5s-65.167 16 -102.5 16c-62.667 0 -120.5 -11 -173.5 -33s-102.833 -52 -149.5 -90v107c47.333 36 97.166 62.667 149.499 80s110.5 26 174.5 26
c49.333 0 95.166 -7 137.499 -21s79 -34.5 110 -61.5s55.333 -60 73 -99s26.5 -83.5 26.5 -133.5c0 -38 -5.33301 -72.667 -16 -104s-24.5 -60.333 -41.5 -87s-36.5 -51.667 -58.5 -75l-67 -68c-35.333 -33.333 -64.166 -61.5 -86.499 -84.5s-39.833 -43.833 -52.5 -62.5
s-21.5 -36.834 -26.5 -54.501s-7.5 -38.5 -7.5 -62.5c0 -30.667 2.66699 -58.5 8 -83.5s10.666 -46.167 15.999 -63.5h-81zM412.002 -18c-22.667 0 -41.5 7.83301 -56.5 23.5s-22.5 34.834 -22.5 57.501c0 23.333 7.5 42.5 22.5 57.5s33.833 22.5 56.5 22.5
c23.333 0 42.833 -7.5 58.5 -22.5s23.5 -34.167 23.5 -57.5c0 -22.667 -7.83301 -41.834 -23.5 -57.501s-35.167 -23.5 -58.5 -23.5z" />
    <glyph glyph-name="at" unicode="@" horiz-adv-x="1933" 
d="M1153 426l-4.00098 -0.00195312c-60 -158.667 -157.667 -238 -293 -238c-93.333 0 -167.166 33.5 -221.499 100.5s-81.5 156.5 -81.5 268.5c0 151.333 38 277.5 114 378.5s176 151.5 300 151.5c52 0 97.667 -13.333 137 -40s65.333 -57.667 78 -93h4
c2.66699 40.667 6 80.334 10 119.001h88l-51 -584c0 -144.667 51 -217 153 -217c82.667 0 150.834 41.667 204.501 125s80.5 190.666 80.5 321.999c0 199.333 -60.333 358.333 -181 477s-289.667 178 -507 178c-212 0 -384.833 -72.667 -518.5 -218
s-200.5 -325.333 -200.5 -540c0 -218 63.667 -392.5 191 -523.5s300.666 -196.5 519.999 -196.5c166 0 308 29.333 426 88v-93c-130.667 -52.667 -276 -79 -436 -79c-240.667 0 -433.667 74.333 -579 223s-218 342.334 -218 581.001c0 239.333 78.5 439.5 235.5 600.5
s353.5 241.5 589.5 241.5c234 0 421.5 -68.667 562.5 -206s211.5 -311.666 211.5 -522.999c0 -158 -35.833 -287.667 -107.5 -389s-161.167 -152 -268.5 -152c-148 0 -227.333 79.333 -238 238zM962.999 1004c-96 0 -172.334 -40 -229.001 -120s-85 -186.333 -85 -319
c0 -90 19.167 -161.333 57.5 -214s91.5 -79 159.5 -79c90.667 0 162.834 46.333 216.501 139s80.5 211 80.5 355c0 78 -17.833 137.167 -53.5 177.5s-84.5 60.5 -146.5 60.5z" />
    <glyph glyph-name="A" unicode="A" horiz-adv-x="1288" 
d="M1118 0l-164 446h-622l-164 -446h-109l541 1434h94l535 -1434h-111zM678 1200c-7.33301 20 -13.333 39.666 -18 58.999c-4.66699 16.667 -9.66699 33.334 -15 50.001h-4c-11.333 -44 -22.333 -79.667 -33 -107l-241 -665h553z" />
    <glyph glyph-name="B" unicode="B" horiz-adv-x="1114" 
d="M184 0l-0.000976562 1434h377c112.667 0 202.334 -30.333 269.001 -91s100 -141 100 -241c0 -83.333 -22.167 -155.5 -66.5 -216.5s-106.166 -104.167 -185.499 -129.5v-4c99.333 -9.33301 177.666 -44.833 234.999 -106.5s86 -140.167 86 -235.5
c0 -120.667 -39 -219.167 -117 -295.5s-182.333 -114.5 -313 -114.5h-385zM282.999 1343v-554.999h200c104 0 187.333 26.667 250 80s94 125.666 94 216.999c0 172 -101.667 258 -305 258h-239zM282.999 698.001l-0.000976562 -608h266c112.667 0 198.834 27 258.501 81
s89.5 130.667 89.5 230c0 198 -134.333 297 -403 297h-211z" />
    <glyph glyph-name="C" unicode="C" horiz-adv-x="1272" 
d="M1137 47c-116 -48 -237 -72 -363 -72c-196 0 -355.833 65.833 -479.5 197.5s-185.5 303.5 -185.5 515.5c0 232.667 67 419.167 201 559.5s304.333 210.5 511 210.5c110 0 215.333 -17.667 316 -53v-105c-100.667 45.333 -206.667 68 -318 68
c-180 0 -326.333 -61 -439 -183s-169 -284.333 -169 -487c0 -195.333 53.833 -349.5 161.5 -462.5s244.167 -169.5 409.5 -169.5c132 0 250.333 25.667 355 77v-96z" />
    <glyph glyph-name="D" unicode="D" horiz-adv-x="1380" 
d="M184 0v1434h359c238 0 419 -59.333 543 -178s186 -291.667 186 -519c0 -218.667 -66.5 -396.167 -199.5 -532.5s-316.5 -204.5 -550.5 -204.5h-338zM283 1343v-1253h225c212.667 0 376 55.167 490 165.5s171 269.5 171 477.5c0 406.667 -213.667 610 -641 610h-245z" />
    <glyph glyph-name="E" unicode="E" horiz-adv-x="1024" 
d="M184 0v1434h670v-91h-571v-575h530v-90h-530v-588h604v-90h-703z" />
    <glyph glyph-name="F" unicode="F" horiz-adv-x="952" 
d="M283 1343v-585h530v-90h-530v-668h-99v1434h670v-91h-571z" />
    <glyph glyph-name="G" unicode="G" horiz-adv-x="1368" 
d="M1221 100c-148 -83.333 -300.331 -125.001 -456.998 -125.001c-195.333 0 -353.333 66.333 -474 199s-181 306.667 -181 522c0 217.333 65 398.666 195 543.999s303.667 218 521 218c126 0 248.333 -25.333 367 -76v-108c-130 62.667 -257 94 -381 94
c-180.667 0 -325.834 -61.667 -435.501 -185s-164.5 -280.666 -164.5 -471.999c0 -201.333 51.5 -359.166 154.5 -473.499s241.833 -171.5 416.5 -171.5c129.333 0 242.666 28 339.999 84v473h-338v90h437v-613z" />
    <glyph glyph-name="H" unicode="H" horiz-adv-x="1386" 
d="M1104 0v688h-821v-688h-99v1434h99v-656h821v656h98v-1434h-98z" />
    <glyph glyph-name="I" unicode="I" horiz-adv-x="463" 
d="M421 1434v-90h-140v-1254h140v-90h-379v90h140v1254h-140v90h379z" />
    <glyph glyph-name="J" unicode="J" horiz-adv-x="664" 
d="M487 494c0 -346 -120.001 -519 -360.001 -519c-37.333 0 -73.666 5 -108.999 15v96c39.333 -13.333 76.333 -20 111 -20c92 0 158.333 34.833 199 104.5s61 178.167 61 325.5v938h98v-940z" />
    <glyph glyph-name="K" unicode="K" horiz-adv-x="1079" 
d="M922 0l-611 686c-11.333 12.667 -19.333 23.667 -24 33h-4v-719h-99v1434h99v-676h4c8 14 16.667 25.667 26 35l580 641h129l-629 -695l668 -739h-139z" />
    <glyph glyph-name="L" unicode="L" horiz-adv-x="938" 
d="M184 0v1434h99v-1344h575v-90h-674z" />
    <glyph glyph-name="M" unicode="M" horiz-adv-x="1706" 
d="M1427 0l0.000976562 1018c0 24.667 3.66699 95 11 211h-4c-20.667 -54 -38 -95.667 -52 -125l-510 -1104h-32l-512 1098c-16.667 35.333 -32.334 80.333 -47.001 135h-5c4.66699 -64 7 -127.667 7 -191v-1042h-99v1434h92l535 -1155c3.33301 -6.66699 7 -15.667 11 -27
s8.33301 -22.666 13 -33.999c6.66699 -17.333 13.667 -36.666 21 -57.999h6l11 32c0.666992 2.66699 12 34.334 34 95.001l527 1147h88v-1434h-95z" />
    <glyph glyph-name="N" unicode="N" horiz-adv-x="1452" 
d="M1198 0l-854.001 1159c-17.333 23.333 -32.666 46.666 -45.999 69.999l-13 20h-4c1.33301 -17.333 2 -38.333 2 -63v-1186h-99v1434h76l848 -1149c18.667 -25.333 39 -56 61 -92h5c-3.33301 46.667 -5 86.667 -5 120v1121h99v-1434h-70z" />
    <glyph glyph-name="O" unicode="O" horiz-adv-x="1559" 
d="M774 -25c-202.667 0 -364.167 67.332 -484.5 201.999s-180.5 309.667 -180.5 525c0 228.667 61.833 411.834 185.5 549.501s292.5 206.5 506.5 206.5c193.333 0 349.833 -66.167 469.5 -198.5s179.5 -305.833 179.5 -520.5c0 -237.333 -61.333 -424 -184 -560
s-286.667 -204 -492 -204zM784 1368c-166.667 0 -303.832 -60.335 -411.499 -181.002s-161.5 -278.667 -161.5 -474c0 -197.333 51 -354.5 153 -471.5s238 -175.5 408 -175.5c177.333 0 317.666 57.833 420.999 173.5s155 276.834 155 483.501
c0 202.667 -50.5 360.834 -151.5 474.501s-238.5 170.5 -412.5 170.5z" />
    <glyph glyph-name="P" unicode="P" horiz-adv-x="1114" 
d="M283 575v-575.001h-99v1434h346c147.333 0 260 -34.167 338 -102.5s117 -168.166 117 -299.499c0 -133.333 -43.5 -242.833 -130.5 -328.5s-208.833 -128.5 -365.5 -128.5h-206zM283 1343l0.000976562 -677.001h204c129.333 0 227.666 30.833 294.999 92.5
s101 148.834 101 261.501c0 215.333 -123.667 323 -371 323h-229z" />
    <glyph glyph-name="Q" unicode="Q" horiz-adv-x="1544" 
d="M756 -24c-93.333 0 -180.333 16.8311 -261 50.498s-151.334 83.834 -212.001 150.501c-120.667 132.667 -181 307 -181 523c0 231.333 61.333 415.333 184 552c123.333 137.333 292.666 206 507.999 206c192.667 0 349 -66.667 469 -200s180 -307.666 180 -522.999
c0 -92.667 -11.333 -181.5 -34 -266.5s-57.5 -161.333 -104.5 -229s-106.667 -124.167 -179 -169.5s-158.5 -74.666 -258.5 -87.999c42 -44.667 81.333 -84.167 118 -118.5s73.334 -63.333 110.001 -87s74.834 -41.5 114.501 -53.5s83.167 -18 130.5 -18
c10.667 0 22.334 0.5 35.001 1.5s25.5 2.66699 38.5 5s25.5 5 37.5 8s23 6.5 33 10.5v-94c-18 -6.66699 -41.5 -12.334 -70.5 -17.001s-56.833 -7 -83.5 -7c-64 0 -121.333 9.5 -172 28.5s-98.334 45 -143.001 78s-87.667 71.5 -129 115.5zM778 1368
c-170 0 -308.335 -60 -415.002 -180c-53.333 -60.667 -93.166 -130 -119.499 -208s-39.5 -166.333 -39.5 -265c0 -193.333 51.667 -350.333 155 -471c104.667 -118.667 240.334 -178 407.001 -178c178 0 318.333 56.667 421 170s154 272 154 476c0 209.333 -50 371 -150 485
s-237.667 171 -413 171z" />
    <glyph glyph-name="R" unicode="R" horiz-adv-x="1137" 
d="M918 0l-191.002 419.998c-39.333 86.667 -78.666 144.834 -117.999 174.501s-88.666 44.5 -147.999 44.5h-178v-639h-99v1434h398c126.667 0 226.167 -34.167 298.5 -102.5s108.5 -158.5 108.5 -270.5c0 -103.333 -29.667 -189.666 -89 -258.999s-142.333 -114 -249 -134
v-4c56.667 -22.667 112 -91.667 166 -207l213 -457h-112zM282.998 1343l0.000976562 -614h247c109.333 0 196.166 28.667 260.499 86s96.5 136 96.5 236c0 91.333 -29 162.833 -87 214.5s-141 77.5 -249 77.5h-268z" />
    <glyph glyph-name="S" unicode="S" horiz-adv-x="1018" 
d="M139 51l-0.000976562 113c102.667 -65.333 206.667 -98 312 -98c112 0 197 23.167 255 69.5s87 111.166 87 194.499c0 73.333 -19.5 131.833 -58.5 175.5s-123.5 103.167 -253.5 178.5c-145.333 84.667 -237.333 155.5 -276 212.5s-58 122.833 -58 197.5
c0 101.333 39.333 187.333 118 258s183.667 106 315 106c85.333 0 170.666 -14.333 255.999 -43v-104c-84 38 -173.667 57 -269 57c-97.333 0 -174.5 -24.667 -231.5 -74s-85.5 -112 -85.5 -188c0 -73.333 19.5 -131.666 58.5 -174.999s123.167 -102.333 252.5 -177
c134 -76 223.167 -143.5 267.5 -202.5s66.5 -126.833 66.5 -203.5c0 -110 -38.167 -199.667 -114.5 -269s-184.166 -104 -323.499 -104c-49.333 0 -106.166 7.66699 -170.499 23s-113.5 33 -147.5 53z" />
    <glyph glyph-name="T" unicode="T" horiz-adv-x="1047" 
d="M573 1343v-1343h-98v1343h-414v91h926v-91h-414z" />
    <glyph glyph-name="U" unicode="U" horiz-adv-x="1327" 
d="M1161 573c0 -398.667 -170 -598 -510 -598c-323.333 0 -485 192 -485 576v883h98v-869c0 -332.667 135.333 -499 406 -499c262 0 393 161.667 393 485v883h98v-861z" />
    <glyph glyph-name="V" unicode="V" horiz-adv-x="1237" 
d="M639 0h-74l-524 1434h111l415 -1155c17.333 -48 29.666 -93.333 36.999 -136h4c6.66699 34 20.334 80 41.001 138l441 1153h106z" />
    <glyph glyph-name="W" unicode="W" horiz-adv-x="1833" 
d="M1362 0l-81.998 -0.00195312l-319 1079c-16 55.333 -25 100.333 -27 135h-4c-2 -29.333 -12.333 -73.666 -31 -132.999l-340 -1081h-82l-426 1434h111l327 -1149c14.667 -52 25 -94.333 31 -127h4c4 24.667 15.667 67 35 127l354 1149h50l325 -1149
c15.333 -53.333 25.666 -95.666 30.999 -126.999h4c3.33301 18.667 8.66602 40 15.999 64l336 1212h107z" />
    <glyph glyph-name="X" unicode="X" horiz-adv-x="1153" 
d="M961 0l-329.999 547c-20.667 34 -38.334 67.333 -53.001 100h-5c-18 -36.667 -37 -70 -57 -100l-336 -547h-119l453 723l-426 711h119l321 -539c16.667 -28 34 -60 52 -96h4l53 96l319 539h115l-430 -709l440 -725h-120z" />
    <glyph glyph-name="Y" unicode="Y" horiz-adv-x="1106" 
d="M598 545l0.000976562 -545.001h-98v543l-439 891h111l334 -691c12 -24 27 -59.333 45 -106h4c9.33301 24.667 25.666 59.334 48.999 104.001l350 693h107z" />
    <glyph glyph-name="Z" unicode="Z" horiz-adv-x="1167" 
d="M215 90h858v-90h-1007v31l868 1312h-799v91h952v-27z" />
    <glyph glyph-name="bracketleft" unicode="[" horiz-adv-x="578" 
d="M209 -326v1760h317v-84h-225v-1592h225v-84h-317z" />
    <glyph glyph-name="backslash" unicode="\" horiz-adv-x="750" 
d="M668 -238l-697 1672h97l692 -1672h-92z" />
    <glyph glyph-name="bracketright" unicode="]" horiz-adv-x="578" 
d="M51 -326v84h225v1592h-225v84h318v-1760h-318z" />
    <glyph glyph-name="asciicircum" unicode="^" horiz-adv-x="1331" 
d="M975 702l-307 613h-4l-308 -613h-96l385 756h41l385 -756h-96z" />
    <glyph glyph-name="underscore" unicode="_" horiz-adv-x="850" 
d="M0 -268v90h850v-90h-850z" />
    <glyph glyph-name="grave" unicode="`" horiz-adv-x="508" 
d="M324 1188l-248 328h104l234 -328h-90z" />
    <glyph glyph-name="a" unicode="a" horiz-adv-x="1012" 
d="M776 0l0.000976562 205h-4c-32.667 -70 -80.167 -125.833 -142.5 -167.5s-131.5 -62.5 -207.5 -62.5c-97.333 0 -174.333 27.333 -231 82s-85 123.667 -85 207c0 178.667 118.333 286.667 355 324l315 47c0 220 -82.667 330 -248 330
c-112.667 0 -222.334 -45.333 -329.001 -136v111c38 30 89.5 55.667 154.5 77s126.167 32 183.5 32c105.333 0 186.833 -32.667 244.5 -98s86.5 -160.333 86.5 -285v-666h-92zM494.001 510c-107.333 -15.333 -182.667 -40.168 -226 -74.501s-65 -90.166 -65 -167.499
c0 -60.667 20.167 -110.667 60.5 -150s96.5 -59 168.5 -59c98.667 0 180.667 36.5 246 109.5s98 167.167 98 282.5v100z" />
    <glyph glyph-name="b" unicode="b" horiz-adv-x="1147" 
d="M260 182h-4.00098v-182h-92v1516h92v-703h4c36.667 75.333 89.167 133.5 157.5 174.5s143.5 61.5 225.5 61.5c130 0 231.5 -44.833 304.5 -134.5s109.5 -211.5 109.5 -365.5c0 -171.333 -42.333 -309.833 -127 -415.5s-194.667 -158.5 -330 -158.5
c-153.333 0 -266.666 69 -339.999 207zM255.999 563l-0.000976562 -128.999c0 -102.667 32.333 -190.834 97 -264.501s149.667 -110.5 255 -110.5c104.667 0 189.667 44.833 255 134.5s98 207.5 98 353.5c0 128 -30 229.667 -90 305s-140 113 -240 113
c-119.333 0 -211.666 -40 -276.999 -120s-98 -174 -98 -282z" />
    <glyph glyph-name="c" unicode="c" horiz-adv-x="909" 
d="M827 45c-76 -46.667 -166.669 -70.002 -272.002 -70.002c-139.333 0 -251.666 47.833 -336.999 143.5s-128 220.834 -128 375.501c0 162.667 48 295.834 144 399.501s219.333 155.5 370 155.5c78 0 153.667 -16 227 -48v-104c-73.333 45.333 -153.666 68 -240.999 68
c-120 0 -217.333 -43.167 -292 -129.5s-112 -198.166 -112 -335.499c0 -132.667 34.167 -239.334 102.5 -320.001s158.5 -121 270.5 -121c102.667 0 192 27.333 268 82v-96z" />
    <glyph glyph-name="d" unicode="d" horiz-adv-x="1147" 
d="M891 0v186.001h-4c-33.333 -64.667 -82.666 -116 -147.999 -154s-139 -57 -221 -57c-126 0 -228.833 46 -308.5 138s-119.5 219 -119.5 381c0 165.333 43.5 299.166 130.5 401.499s199.833 153.5 338.5 153.5c153.333 0 262.666 -63 327.999 -189h4v656h92v-1516h-92z
M891 623.001c0 95.333 -30.167 176.167 -90.5 242.5s-141.5 99.5 -243.5 99.5c-107.333 0 -196 -41.167 -266 -123.5s-105 -195.5 -105 -339.5c0 -141.333 31.5 -250.5 94.5 -327.5s144.167 -115.5 243.5 -115.5c116.667 0 207 36.167 271 108.5s96 160.5 96 264.5v191z" />
    <glyph glyph-name="e" unicode="e" horiz-adv-x="1034" 
d="M186 508c0 -140.667 32.5 -250.667 97.5 -330s154.167 -119 267.5 -119c114.667 0 226.667 42.333 336 127v-98c-106 -75.333 -224.333 -113 -355 -113c-132 0 -238.667 47.333 -320 142s-122 228.334 -122 401.001c0 149.333 42.5 275.166 127.5 377.499
s195.5 153.5 331.5 153.5c127.333 0 225 -44.667 293 -134s102 -211.333 102 -366v-41h-758zM848 592c-4 118 -32.332 209.667 -84.999 275s-125.334 98 -218.001 98c-96 0 -175.5 -32.167 -238.5 -96.5s-101.833 -156.5 -116.5 -276.5h658z" />
    <glyph glyph-name="f" unicode="f" horiz-adv-x="565" 
d="M612 1419c-24.667 19.333 -61.999 29 -111.999 29c-126 0 -189 -84.667 -189 -254v-170h271v-84h-271v-940h-92v940h-184v84h184v178c0 108 27.167 190 81.5 246s122.166 84 203.499 84c43.333 0 79.333 -6.33301 108 -19v-94z" />
    <glyph glyph-name="g" unicode="g" horiz-adv-x="1147" 
d="M983 76c0 -192.667 -41.999 -333.665 -125.999 -422.998s-214.667 -134 -392 -134c-98.667 0 -200.334 26 -305.001 78v96c108 -60 210.333 -90 307 -90c282.667 0 424 149.333 424 448v133h-4c-80.667 -139.333 -203.667 -209 -369 -209
c-126 0 -228.833 45.667 -308.5 137s-119.5 218.666 -119.5 381.999s43 296.666 129 399.999s199.333 155 340 155c150.667 0 260 -62.333 328 -187h4v162h92v-948zM891.001 631.002c0 90.667 -30.499 169.001 -91.499 235.001s-140.5 99 -238.5 99
c-112.667 0 -203.334 -42.333 -272.001 -127s-103 -196.667 -103 -336c0 -140 31.5 -248.833 94.5 -326.5s146.167 -116.5 249.5 -116.5c110 0 197.667 35.667 263 107s98 158.666 98 261.999v203z" />
    <glyph glyph-name="h" unicode="h" horiz-adv-x="1096" 
d="M860 0v614c0 121.333 -22 210.166 -66 266.499s-112.667 84.5 -206 84.5c-88 0 -165.333 -34.333 -232 -103s-100 -167 -100 -295v-567h-92v1516h92v-676h4c80.667 139.333 198 209 352 209c110.667 0 195 -35.667 253 -107s87 -173.666 87 -306.999v-635h-92z" />
    <glyph glyph-name="i" unicode="i" horiz-adv-x="420" 
d="M209 1282c-20 0 -37.6689 7.33105 -53.002 21.998s-23 33.334 -23 56.001c0 22 7.83301 39.833 23.5 53.5s33.167 20.5 52.5 20.5c20.667 0 38.834 -6.66699 54.501 -20s23.5 -31.333 23.5 -54c0 -21.333 -7.66699 -39.666 -23 -54.999s-33.666 -23 -54.999 -23z
M163.998 -0.00195312v1024h92v-1024h-92z" />
    <glyph glyph-name="j" unicode="j" horiz-adv-x="420" 
d="M209 1282c-20 0 -37.6689 7.33105 -53.002 21.998s-23 33.334 -23 56.001c0 22 7.83301 39.833 23.5 53.5s33.167 20.5 52.5 20.5c20.667 0 38.834 -6.66699 54.501 -20s23.5 -31.333 23.5 -54c0 -21.333 -7.66699 -39.666 -23 -54.999s-33.666 -23 -54.999 -23z
M255.998 28.998c0 -340 -120.667 -510 -362 -510c-48 0 -96.667 11.667 -146 35v96c53.333 -31.333 105.333 -47 156 -47c173.333 0 260 136.333 260 409v1012h92v-995z" />
    <glyph glyph-name="k" unicode="k" horiz-adv-x="909" 
d="M750 0l-490 506h-4v-506h-92v1516h92v-977h4l465 485h119l-486 -496l525 -528h-133z" />
    <glyph glyph-name="l" unicode="l" horiz-adv-x="420" 
d="M164 0v1516h92v-1516h-92z" />
    <glyph glyph-name="m" unicode="m" horiz-adv-x="1683" 
d="M1448 0v616.001c0 128.667 -20.167 219 -60.5 271s-104.166 78 -191.499 78c-80.667 0 -150.334 -34.667 -209.001 -104s-88 -156.333 -88 -261v-600h-92v623c0 228 -86.667 342 -260 342c-83.333 0 -152.666 -34.833 -207.999 -104.5s-83 -159.834 -83 -270.501v-590
h-92v1024h92v-170h4c71.333 130 175.666 195 312.999 195c74.667 0 138.5 -21.5 191.5 -64.5s88.833 -99.5 107.5 -169.5c32 74 77.833 131.5 137.5 172.5s124.5 61.5 194.5 61.5c224 0 336 -138.667 336 -416v-633h-92z" />
    <glyph glyph-name="n" unicode="n" horiz-adv-x="1096" 
d="M860 0l-0.00195312 596.001c0 246 -88.667 369 -266 369c-98.667 0 -179.667 -36.167 -243 -108.5s-95 -161.833 -95 -268.5v-588h-92v1024h92v-186h4c74.667 140.667 191.334 211 350.001 211c110.667 0 195.334 -36.833 254.001 -110.5s88 -178.834 88 -315.501v-623
h-92z" />
    <glyph glyph-name="o" unicode="o" horiz-adv-x="1149" 
d="M575 -25c-149.333 0 -267.5 49.168 -354.5 147.501s-130.5 226.166 -130.5 383.499c0 170 45.5 303 136.5 399s210.833 144 359.5 144c146 0 261.333 -47.667 346 -143s127 -227.333 127 -396c0 -159.333 -43.167 -288.333 -129.5 -387s-204.5 -148 -354.5 -148z
M582 965.001c-120.667 0 -216.834 -40.667 -288.501 -122s-107.5 -194.333 -107.5 -339c0 -134 35 -241.667 105 -323s165.667 -122 287 -122c123.333 0 218.333 40 285 120s100 191 100 333c0 146 -33.167 258 -99.5 336s-160.166 117 -281.499 117z" />
    <glyph glyph-name="p" unicode="p" horiz-adv-x="1147" 
d="M260 182h-4.00098v-653h-92v1495h92v-211h4c36.667 75.333 89.167 133.5 157.5 174.5s143.5 61.5 225.5 61.5c130 0 231.5 -44.833 304.5 -134.5s109.5 -211.5 109.5 -365.5c0 -171.333 -41.833 -309.833 -125.5 -415.5s-194.167 -158.5 -331.5 -158.5
c-153.333 0 -266.666 69 -339.999 207zM255.999 563l-0.000976562 -128.999c0 -102.667 32.333 -190.834 97 -264.501s149.667 -110.5 255 -110.5c104.667 0 189.667 44.833 255 134.5s98 207.5 98 353.5c0 128 -30 229.667 -90 305s-140 113 -240 113
c-119.333 0 -211.666 -40 -276.999 -120s-98 -174 -98 -282z" />
    <glyph glyph-name="q" unicode="q" horiz-adv-x="1147" 
d="M891 -471l-0.00195312 659h-4c-76 -142 -199.667 -213 -371 -213c-128 0 -231 47 -309 141s-117 220.667 -117 380c0 170 44.333 304.667 133 404s201.334 149 338.001 149c152.667 0 261.334 -63.667 326.001 -191h4v166h92v-1495h-92zM890.998 614
c0 102 -29.666 186 -88.999 252s-141.666 99 -246.999 99c-106 0 -194 -40.833 -264 -122.5s-105 -195.834 -105 -342.501c0 -137.333 31.167 -245.166 93.5 -323.499s143.166 -117.5 242.499 -117.5c119.333 0 210.666 36.667 273.999 110s95 163 95 269v176z" />
    <glyph glyph-name="r" unicode="r" horiz-adv-x="676" 
d="M647 928c-30.667 22 -66.667 32.999 -108 32.999c-80.667 0 -148.334 -41.667 -203.001 -125s-82 -201.666 -82 -354.999v-481h-90v1024h90v-227h4c23.333 78 60.333 138.667 111 182s109.334 65 176.001 65c38 0 72 -6 102 -18v-98z" />
    <glyph glyph-name="s" unicode="s" horiz-adv-x="795" 
d="M111 45l-0.00195312 110.999c34.667 -30 76.667 -53.667 126 -71s92 -26 128 -26c160.667 0 241 65.667 241 197c0 45.333 -17.667 84 -53 116s-92.666 65 -171.999 99c-98 42.667 -166.833 86.834 -206.5 132.501s-59.5 101.167 -59.5 166.5
c0 83.333 31.833 150.666 95.5 201.999s142.167 77 235.5 77c88 0 163.333 -18 226 -54v-104c-76 49.333 -154.667 74 -236 74c-67.333 0 -121.666 -17.5 -162.999 -52.5s-62 -80.5 -62 -136.5c0 -48.667 13 -88.167 39 -118.5s83.333 -65.166 172 -104.499
c106.667 -48 180 -92.5 220 -133.5s60 -95.5 60 -163.5c0 -81.333 -30.5 -148.5 -91.5 -201.5s-145.167 -79.5 -252.5 -79.5c-98.667 0 -181 23.333 -247 70z" />
    <glyph glyph-name="t" unicode="t" horiz-adv-x="608" 
d="M569 14c-48 -22.667 -92.999 -33.999 -134.999 -33.999c-151.333 0 -227 90.667 -227 272v688h-184v84h184v266l46 16c16 4.66699 31.333 9.66699 46 15v-297h270v-84h-270v-676c0 -70.667 11.167 -121.834 33.5 -153.501s60.166 -47.5 113.499 -47.5
c38 0 79 12.333 123 37v-86z" />
    <glyph glyph-name="u" unicode="u" horiz-adv-x="1096" 
d="M840 0v186.001h-4c-71.333 -140.667 -181.333 -211 -330 -211c-242 0 -363 152.333 -363 457v592h93v-569c0 -138.667 22.833 -239.334 68.5 -302.001s117.5 -94 215.5 -94c95.333 0 172.5 35 231.5 105s88.5 163.333 88.5 280v580h92v-1024h-92z" />
    <glyph glyph-name="v" unicode="v" horiz-adv-x="928" 
d="M500 0h-84.001l-396 1024h103l305 -815c14.667 -39.333 25 -75 31 -107h4c8.66699 42 18.334 76.333 29.001 103l315 819h100z" />
    <glyph glyph-name="w" unicode="w" horiz-adv-x="1386" 
d="M1032 0h-85.999l-223 772c-6 21.333 -11.333 50 -16 86h-5c-1.33301 -15.333 -8 -43.333 -20 -84l-250 -774h-86l-309 1024h102l238 -817c6 -21.333 10.667 -50 14 -86h8c1.33301 19.333 7.66602 48 18.999 86l260 817h63l232 -817c5.33301 -19.333 10 -48 14 -86h8
c0 19.333 5.66699 48 17 86l243 817h95z" />
    <glyph glyph-name="x" unicode="x" horiz-adv-x="862" 
d="M481 502l334.001 -502.001h-117l-270 432h-4l-36 -57c-4.66699 -8 -10.334 -17 -17.001 -27l-226 -348h-112l342 500l-336 524h108l228 -367c29.333 -47.333 47 -76.666 53 -87.999h4l51 84l238 371h108z" />
    <glyph glyph-name="y" unicode="y" horiz-adv-x="928" 
d="M414 -209c-37.333 -92 -78.6689 -160.333 -124.002 -205s-103.666 -67 -174.999 -67c-30 0 -56.667 4.66699 -80 14v92c24 -9.33301 52 -14 84 -14c82 0 146.667 56.667 194 170l95 227l-388 1016h103l309 -834c6.66699 -18 11.334 -31.667 14.001 -41
c2.66699 -12.667 5.66699 -24 9 -34h4l24 69l330 840h100z" />
    <glyph glyph-name="z" unicode="z" horiz-adv-x="950" 
d="M207 84h661v-84h-811v35l680 905h-631v84h787v-25z" />
    <glyph glyph-name="braceleft" unicode="{" horiz-adv-x="578" 
d="M506 -326c-84.667 3.33301 -148.5 27.3359 -191.5 72.0029s-64.5 117.667 -64.5 219v297c0 158 -52 244.667 -156 260v64c104 14.667 156 95.667 156 243v314c0 101.333 21.5 174.333 64.5 219s106.833 68.667 191.5 72v-84c-58.667 -3.33301 -100 -22.333 -124 -57
s-36 -94.334 -36 -179.001v-293c0 -148 -48.333 -236.667 -145 -266v-4c96.667 -30.667 145 -124.334 145 -281.001v-276c0 -84.667 12 -144.334 36 -179.001s65.333 -53.667 124 -57v-84z" />
    <glyph glyph-name="bar" unicode="|" horiz-adv-x="463" 
d="M184 -481v2048h95v-2048h-95z" />
    <glyph glyph-name="braceright" unicode="}" horiz-adv-x="578" 
d="M483 522c-103.333 -15.333 -155 -102.003 -155 -260.003v-297c0 -102 -21.5 -175.167 -64.5 -219.5s-106.833 -68.166 -191.5 -71.499v84c54.667 3.33301 94.834 21 120.501 53s38.5 93 38.5 183v276c0 156.667 48.667 250.334 146 281.001v4
c-97.333 30 -146 118.667 -146 266v293c0 90 -12.833 151 -38.5 183s-65.834 49.667 -120.501 53v84c84.667 -3.33301 148.5 -27.166 191.5 -71.499s64.5 -117.5 64.5 -219.5v-314c0 -147.333 51.667 -228.333 155 -243v-64z" />
    <glyph glyph-name="asciitilde" unicode="~" horiz-adv-x="1331" 
d="M1087 711c-4.66699 -76 -27.5 -135.332 -68.5 -177.999s-95.833 -64 -164.5 -64c-63.333 0 -130.333 28 -201 84c-70 56 -128.667 84 -176 84c-94 0 -145 -52.667 -153 -158h-78c4 75.333 26.667 134.5 68 177.5s96.333 64.5 165 64.5c63.333 0 128.333 -26.667 195 -80
c46.667 -36.667 81.667 -60.834 105 -72.501s49.666 -17.5 78.999 -17.5c88.667 0 139.334 53.333 152.001 160h77z" />
    <glyph glyph-name="uni00A0" unicode="&#xa0;" horiz-adv-x="561" 
 />
    <glyph glyph-name="exclamdown" unicode="&#xa1;" horiz-adv-x="582" 
d="M293 881c-22.667 0 -42 7.5 -58 22.5s-24 34.167 -24 57.5c0 22.667 8 41.834 24 57.501s35.333 23.5 58 23.5s41.667 -7.83301 57 -23.5s23 -34.834 23 -57.501c0 -23.333 -7.66699 -42.5 -23 -57.5s-34.333 -22.5 -57 -22.5zM242 -408l10 1031h86l10 -1031h-106z" />
    <glyph glyph-name="cent" unicode="&#xa2;" horiz-adv-x="1055" 
d="M903 209c-60.667 -37.333 -134.334 -60 -221.001 -68v-198h-92v198c-129.333 11.333 -232.333 63.833 -309 157.5s-115 213.167 -115 358.5c0 143.333 38.167 265.166 114.5 365.499s179.5 161.5 309.5 183.5v199h92v-193c78.667 0 153.667 -15.667 225 -47v-104
c-69.333 42 -144.333 64.333 -225 67v-903c86.667 6.66699 160.334 33.334 221.001 80.001v-96zM590 1122c-102 -19.333 -182.167 -70.5 -240.5 -153.5s-87.5 -184.5 -87.5 -304.5c0 -122 29 -222.167 87 -300.5s138.333 -124.5 241 -138.5v897z" />
    <glyph glyph-name="sterling" unicode="&#xa3;" horiz-adv-x="1055" 
d="M80 0v86c165.333 68.667 248 190.334 248 365.001v211h-228v90h228v290c0 125.333 33 226 99 302s153.667 114 263 114c64 0 124.667 -11.667 182 -35v-94c-60 30 -122 45 -186 45c-83.333 0 -148.5 -29.333 -195.5 -88s-70.5 -144 -70.5 -256v-278h307v-90h-307v-177
c0 -196.667 -71 -330.334 -213 -401.001h741v-84h-868z" />
    <glyph glyph-name="currency" unicode="&#xa4;" horiz-adv-x="1139" 
d="M946 293l-135 135c-70 -57.333 -150.667 -86 -242 -86c-93.333 0 -173.666 28.667 -240.999 86l-135 -135l-60 61l137 131c-56 77.333 -84 157.333 -84 240c0 93.333 28 173.333 84 240l-137 133l60 61l135 -135c75.333 56 155.666 84 240.999 84
c91.333 0 171.333 -28 240 -84l137 135l60 -61l-138 -133c56 -67.333 84 -147.333 84 -240c0 -88 -28 -168 -84 -240l138 -131zM571 1024c-85.333 0 -156.833 -29.332 -214.5 -87.999s-86.5 -128.334 -86.5 -209.001s29.833 -151 89.5 -211s129.5 -90 209.5 -90
c81.333 0 151.5 29.667 210.5 89s88.5 130 88.5 212c0 84 -30 154.5 -90 211.5s-129 85.5 -207 85.5z" />
    <glyph glyph-name="yen" unicode="&#xa5;" horiz-adv-x="1055" 
d="M602 745h344v-83h-373v-246h373v-84h-373v-332h-92v332h-372v84h372v246h-372v83h342l-377 689h102l307 -572c24.667 -45.333 40.334 -77.333 47.001 -96h5c13.333 44 27.666 77.333 42.999 100l311 568h96z" />
    <glyph glyph-name="brokenbar" unicode="&#xa6;" horiz-adv-x="463" 
d="M184 715v852h95v-852h-95zM184 -481v852h95v-852h-95z" />
    <glyph glyph-name="section" unicode="&#xa7;" horiz-adv-x="918" 
d="M618 403c63.333 -47.333 94.9971 -113.999 94.9971 -199.999c0 -76 -29.667 -139.833 -89 -191.5s-136.333 -77.5 -231 -77.5c-71.333 0 -143.666 16.667 -216.999 50v98c78.667 -42.667 151.667 -64 219 -64c72.667 0 127.667 16.833 165 50.5s56 77.834 56 132.501
c0 36 -10.167 70 -30.5 102s-67.166 65.667 -140.499 101c-118 56 -194 109.5 -228 160.5s-51 108.5 -51 172.5c0 114.667 54 200 162 256c-82 55.333 -123 128.333 -123 219c0 83.333 27.333 150.666 82 201.999s130.334 77 227.001 77c73.333 0 138.333 -12.333 195 -37
v-96c-57.333 32.667 -123 49 -197 49c-140.667 0 -211 -62.667 -211 -188c0 -53.333 18.5 -97.333 55.5 -132s107.833 -75.334 212.5 -122.001c135.333 -62.667 203 -155.667 203 -279c0 -108 -51.333 -202.333 -154 -283zM405.997 946.001
c-96 -43.333 -144 -110.999 -144 -202.999c0 -65.333 19.667 -117.166 59 -155.499s114 -81.833 224 -130.5c46 34 79.333 67.333 100 100s31 75.667 31 129c0 51.333 -16 94.666 -48 129.999s-106 78.666 -222 129.999z" />
    <glyph glyph-name="dieresis" unicode="&#xa8;" horiz-adv-x="817" 
d="M575 1188c-18 0 -34.332 6.5 -48.999 19.5s-22 30.5 -22 52.5c0 20.667 7.16699 37.334 21.5 50.001s30.166 19 47.499 19c19.333 0 36.833 -6.5 52.5 -19.5s23.5 -29.5 23.5 -49.5c0 -20.667 -7.16699 -37.834 -21.5 -51.501s-31.833 -20.5 -52.5 -20.5zM242.001 1188
c-18.667 0 -35.332 6.5 -49.999 19.5s-22 30.5 -22 52.5c0 20.667 7.33301 37.334 22 50.001s30.667 19 48 19c19.333 0 36.666 -6.5 51.999 -19.5s23 -29.5 23 -49.5c0 -20.667 -7 -37.834 -21 -51.501s-31.333 -20.5 -52 -20.5z" />
    <glyph glyph-name="copyright" unicode="&#xa9;" horiz-adv-x="1804" 
d="M903 -25c-207.333 0 -383.667 72.168 -529 216.501s-218 318.833 -218 523.5c0 206.667 73.167 382.167 219.5 526.5s321.5 216.5 525.5 216.5c205.333 0 381.333 -72.333 528 -217s220 -319.334 220 -524.001c0 -205.333 -72.833 -380.333 -218.5 -525
s-321.5 -217 -527.5 -217zM900.999 1382c-181.333 0 -337.5 -65.333 -468.5 -196s-196.5 -287.667 -196.5 -471c0 -182 65 -338.167 195 -468.5s286.667 -195.5 470 -195.5c184.667 0 342.167 65.333 472.5 196s195.5 286.667 195.5 468c0 183.333 -65.5 340.333 -196.5 471
s-288.167 196 -471.5 196zM1182 270.001c-82 -47.333 -165.334 -71.001 -250.001 -71.001c-139.333 0 -256.833 47 -352.5 141s-143.5 210.667 -143.5 350c0 164 48.5 294.167 145.5 390.5s219.167 144.5 366.5 144.5c84.667 0 161.334 -18 230.001 -54v-86
c-70.667 38.667 -152.667 58 -246 58c-113.333 0 -209 -39.167 -287 -117.5s-117 -183.166 -117 -314.499c0 -128 40.5 -231.333 121.5 -310s178.5 -118 292.5 -118c86.667 0 166.667 22.333 240 67v-80z" />
    <glyph glyph-name="ordfeminine" unicode="&#xaa;" horiz-adv-x="745" 
d="M557 717v143h-4c-24.667 -50 -60.167 -89.167 -106.5 -117.5s-95.5 -42.5 -147.5 -42.5c-70 0 -124.667 19.667 -164 59s-59 87.333 -59 144c0 133.333 85.333 212 256 236l225 32c0 135.333 -55.333 203 -166 203c-89.333 0 -174 -30.667 -254 -92v96
c86 50.667 173.333 76 262 76c165.333 0 248 -91.333 248 -274v-463h-90zM369 1069c-76 -10.667 -128.5 -27.5 -157.5 -50.5s-43.5 -60.167 -43.5 -111.5c0 -38 13 -68.667 39 -92s62.667 -35 110 -35c64 0 120 27.667 168 83s72 118 72 188v45z" />
    <glyph glyph-name="guillemotleft" unicode="&#xab;" horiz-adv-x="952" 
d="M717 201l-277 336l277 344h114l-282 -344l280 -336h-112zM399 201l-276 336l276 344h113l-281 -344l281 -336h-113z" />
    <glyph glyph-name="logicalnot" unicode="&#xac;" horiz-adv-x="1331" 
d="M1034 147v408h-821v84h907v-492h-86z" />
    <glyph glyph-name="uni00AD" unicode="&#xad;" horiz-adv-x="815" 
d="M145 555v90h547v-90h-547z" />
    <glyph glyph-name="registered" unicode="&#xae;" horiz-adv-x="1804" 
d="M903 -25c-207.333 0 -383.667 72.168 -529 216.501s-218 318.833 -218 523.5c0 206.667 73.167 382.167 219.5 526.5s321.5 216.5 525.5 216.5c205.333 0 381.333 -72.333 528 -217s220 -319.334 220 -524.001c0 -205.333 -72.833 -380.333 -218.5 -525
s-321.5 -217 -527.5 -217zM900.999 1382c-181.333 0 -337.5 -65.333 -468.5 -196s-196.5 -287.667 -196.5 -471c0 -182 65 -338.167 195 -468.5s286.667 -195.5 470 -195.5c184.667 0 342.167 65.333 472.5 196s195.5 286.667 195.5 468c0 183.333 -65.5 340.333 -196.5 471
s-288.167 196 -471.5 196zM1155 242.001l-115.001 247c-33.333 71.333 -65.666 119.333 -96.999 144s-66.333 37 -105 37h-117v-428h-92v966h264c106 0 187.833 -23.167 245.5 -69.5s86.5 -107.833 86.5 -184.5c0 -148 -84 -237.333 -252 -268v-4
c56 -11.333 109.333 -69.333 160 -174l127 -266h-105zM720.998 1137v-396h194c65.333 0 117.5 18.167 156.5 54.5s58.5 83.833 58.5 142.5c0 132.667 -79.667 199 -239 199h-170z" />
    <glyph glyph-name="uni00AF" unicode="&#xaf;" horiz-adv-x="850" 
d="M0 1641v90h850v-90h-850z" />
    <glyph glyph-name="degree" unicode="&#xb0;" horiz-adv-x="791" 
d="M397 930c-69.333 0 -129 25 -179 75s-75 109.667 -75 179c0 68 24.5 126.667 73.5 176s107.833 74 176.5 74c70 0 129.833 -24.5 179.5 -73.5s74.5 -107.833 74.5 -176.5c0 -70 -24.5 -129.833 -73.5 -179.5s-107.833 -74.5 -176.5 -74.5zM397 1358
c-47.333 0 -87.833 -17.167 -121.5 -51.5s-50.5 -75.166 -50.5 -122.499c0 -48.667 16.5 -90.5 49.5 -125.5s72.5 -52.5 118.5 -52.5c46.667 0 86.667 17.5 120 52.5s50 76.833 50 125.5c0 49.333 -16 90.666 -48 123.999s-71.333 50 -118 50z" />
    <glyph glyph-name="plusminus" unicode="&#xb1;" horiz-adv-x="1331" 
d="M709 633v-412h-84v412h-412v84h412v411h84v-411h411v-84h-411zM213 0v84h907v-84h-907z" />
    <glyph glyph-name="uni00B2" unicode="&#xb2;" horiz-adv-x="674" 
d="M596 884h-517.999v100l239 234c40.667 39.333 73.167 73.333 97.5 102s43 54.334 56 77.001s21.5 43.5 25.5 62.5s6 38.833 6 59.5c0 102 -52.667 153 -158 153c-72.667 0 -146.334 -32.667 -221.001 -98v102c37.333 25.333 74.666 44.666 111.999 57.999
s75.666 20 114.999 20c38 0 72 -5.33301 102 -16s55.5 -25.834 76.5 -45.501s37.167 -43.167 48.5 -70.5s17 -57.666 17 -90.999c0 -26 -3.16699 -51.667 -9.5 -77s-17.666 -52.333 -33.999 -81s-38.666 -60 -66.999 -94s-64.5 -72.333 -108.5 -115l-193 -186v-4h414v-90z
" />
    <glyph glyph-name="uni00B3" unicode="&#xb3;" horiz-adv-x="674" 
d="M561 1111c0 -36 -6.33887 -69.332 -19.0059 -99.999s-31 -57.167 -55 -79.5s-53.333 -40 -88 -53s-74 -19.5 -118 -19.5c-71.333 0 -135.666 15.667 -192.999 47v96c66.667 -42 131.667 -63 195 -63c60.667 0 107.834 15.667 141.501 47s50.5 73 50.5 125
c0 112 -78.333 168 -235 168h-70v80h61c143.333 0 215 57.333 215 172c0 91.333 -51 137 -153 137c-47.333 0 -104.666 -17.667 -171.999 -53v90c32.667 15.333 64.834 26.666 96.501 33.999s62.834 11 93.501 11c34.667 0 65.834 -5 93.501 -15s51.167 -24.167 70.5 -42.5
s34.166 -40.166 44.499 -65.499s15.5 -53.333 15.5 -84c0 -108 -49.333 -179.667 -148 -215v-4c56.667 -12.667 99.834 -38.334 129.501 -77.001s44.5 -84 44.5 -136z" />
    <glyph glyph-name="acute" unicode="&#xb4;" horiz-adv-x="508" 
d="M227 1188h-90l234 328h104z" />
    <glyph glyph-name="uni00B5" unicode="&#xb5;" horiz-adv-x="1116" 
d="M860 0v186h-4c-70 -140.667 -180 -211 -330 -211c-117.333 0 -204.666 41 -261.999 123h-8v-489h-92v1415h92v-569c0 -140 23.167 -241 69.5 -303s118.166 -93 215.499 -93c96 0 173.167 35.167 231.5 105.5s87.5 163.5 87.5 279.5v580h92v-1024h-92z" />
    <glyph glyph-name="paragraph" unicode="&#xb6;" horiz-adv-x="971" 
d="M733 1348v-1348h-86v1348h-198v-1348h-87v903c-70 0 -129 25.333 -177 76s-72 113.334 -72 188.001c0 80.667 25.167 145.334 75.5 194.001s110.5 73 180.5 73h495v-86h-131z" />
    <glyph glyph-name="periodcentered" unicode="&#xb7;" horiz-adv-x="455" 
d="M227 625c-22.667 0 -41.667 8 -57 24s-23 35.333 -23 58s7.66699 41.5 23 56.5s34.333 22.5 57 22.5s42 -7.5 58 -22.5s24 -33.833 24 -56.5s-8 -42 -24 -58s-35.333 -24 -58 -24z" />
    <glyph glyph-name="cedilla" unicode="&#xb8;" horiz-adv-x="412" 
d="M57 -430l-0.000976562 74c33.333 -4 62 -6 86 -6c106.667 0 160 30.667 160 92c0 57.333 -48.333 86 -145 86c-21.333 0 -42.666 -1.33301 -63.999 -4v188h72v-117c150 0 225 -49 225 -147c0 -113.333 -84.667 -170 -254 -170c-24 0 -50.667 1.33301 -80 4z" />
    <glyph glyph-name="uni00B9" unicode="&#xb9;" horiz-adv-x="674" 
d="M600 884h-471v82h195v682l-209 -70v88l295 94v-794h190v-82z" />
    <glyph glyph-name="ordmasculine" unicode="&#xba;" horiz-adv-x="811" 
d="M420 696c-105.333 0 -189.666 35.334 -252.999 106.001s-95 161 -95 271c0 119.333 32.833 212.666 98.5 279.999s150.834 101 255.501 101c105.333 0 188.666 -33.667 249.999 -101s92 -160 92 -278c0 -108.667 -31.333 -199 -94 -271s-147.334 -108 -254.001 -108z
M424 1374c-78 0 -140.5 -27.001 -187.5 -81.001s-70.5 -128 -70.5 -222c0 -88.667 23.333 -159.667 70 -213s108.667 -80 186 -80c79.333 0 140.833 26.5 184.5 79.5s65.5 126.167 65.5 219.5c0 92.667 -21.667 165.334 -65 218.001s-104.333 79 -183 79z" />
    <glyph glyph-name="guillemotright" unicode="&#xbb;" horiz-adv-x="952" 
d="M553 201h-113l283 344l-283 336h113l278 -336zM238 201h-117l285 344l-285 336h115l276 -336z" />
    <glyph glyph-name="onequarter" unicode="&#xbc;" horiz-adv-x="1513" 
d="M600 584h-471v82h195v682l-209 -70v88l295 94v-794h190v-82zM430 0h-98l862 1434h96zM1358 219v-219h-82v219h-393v64l385 567h90v-553h110v-78h-110zM1274 741c-22 -40.667 -37 -66.333 -45 -77l-246 -367h293v369l2 75h-4z" />
    <glyph glyph-name="onehalf" unicode="&#xbd;" horiz-adv-x="1622" 
d="M600 584h-471v82h195v682l-209 -70v88l295 94v-794h190v-82zM430 0h-98l862 1434h96zM1542 0l-518.003 -0.00195312v100l240 234c40 39.333 72.167 73.333 96.5 102s43 54.334 56 77.001s21.5 43.5 25.5 62.5s6 38.833 6 59.5c0 102 -52.667 153 -158 153
c-74 0 -147.667 -32.667 -221 -98v103c74.667 51.333 150.334 77 227.001 77c38 0 72 -5.33301 102 -16s55.5 -25.834 76.5 -45.501s37.167 -43.167 48.5 -70.5s17 -57.666 17 -90.999c0 -25.333 -3.16699 -50.666 -9.5 -75.999s-17.666 -52.333 -33.999 -81
s-38.666 -60 -66.999 -94s-64.5 -72.333 -108.5 -115l-193 -187v-4h414v-90z" />
    <glyph glyph-name="threequarters" unicode="&#xbe;" horiz-adv-x="1513" 
d="M561 811c0 -36 -6.33887 -69.332 -19.0059 -99.999s-31 -57.167 -55 -79.5s-53.333 -40 -88 -53s-74 -19.5 -118 -19.5c-71.333 0 -135.666 15.667 -192.999 47v96c66.667 -42 131.667 -63 195 -63c60.667 0 107.834 15.667 141.501 47s50.5 73 50.5 125
c0 112 -78.333 168 -235 168h-70v80h61c143.333 0 215 57.333 215 172c0 91.333 -51 137 -153 137c-47.333 0 -104.666 -17.667 -171.999 -53v90c32.667 15.333 64.834 26.666 96.501 33.999s62.834 11 93.501 11c34.667 0 65.834 -5 93.501 -15s51.167 -24.167 70.5 -42.5
s34.166 -40.166 44.499 -65.499s15.5 -53.333 15.5 -84c0 -108 -49.333 -179.667 -148 -215v-4c56.667 -12.667 99.834 -38.334 129.501 -77.001s44.5 -84 44.5 -136zM429.994 0.000976562h-98l862 1434h96zM1357.99 219.001v-219h-82v219h-393v64l385 567h90v-553h110v-78
h-110zM1273.99 741.001c-22 -40.667 -37 -66.333 -45 -77l-246 -367h293v369l2 75h-4z" />
    <glyph glyph-name="questiondown" unicode="&#xbf;" horiz-adv-x="881" 
d="M557 626c6.66699 -16.667 12.4961 -38.5 17.4961 -65.5s7.5 -53.833 7.5 -80.5c0 -31.333 -4.16699 -59.833 -12.5 -85.5s-20 -49.834 -35 -72.501s-33 -44.667 -54 -66s-44.167 -43 -69.5 -65c-21.333 -19.333 -42.333 -39.5 -63 -60.5s-39 -43.5 -55 -67.5
s-28.833 -50.167 -38.5 -78.5s-14.5 -59.5 -14.5 -93.5c0 -36.667 6.16699 -69.5 18.5 -98.5s29.5 -53.667 51.5 -74s48.5 -35.833 79.5 -46.5s65.167 -16 102.5 -16c62.667 0 120.5 11 173.5 33s102.833 52 149.5 90v-107c-47.333 -36 -97.166 -62.667 -149.499 -80
s-110.5 -26 -174.5 -26c-49.333 0 -95.166 7 -137.499 21s-79 34.5 -110 61.5s-55.333 60 -73 99s-26.5 83.5 -26.5 133.5c0 38 5.33301 72.667 16 104s24.5 60.333 41.5 87s36.5 51.667 58.5 75l67 68l86 84.5c22.667 23 40.334 43.833 53.001 62.5
s21.5 36.834 26.5 54.501s7.5 38.5 7.5 62.5c0 30.667 -2.66699 58.5 -8 83.5s-10.666 46.167 -15.999 63.5h81zM521.996 1042c22.667 0 41.5 -7.83301 56.5 -23.5s22.5 -34.834 22.5 -57.501c0 -23.333 -7.5 -42.5 -22.5 -57.5s-33.833 -22.5 -56.5 -22.5
c-23.333 0 -42.833 7.5 -58.5 22.5s-23.5 34.167 -23.5 57.5c0 22.667 7.83301 41.834 23.5 57.501s35.167 23.5 58.5 23.5z" />
    <glyph glyph-name="Agrave" unicode="&#xc0;" horiz-adv-x="1288" 
d="M1118 0l-164 446h-622l-164 -446h-109l541 1434h94l535 -1434h-111zM678 1200c-7.33301 20 -13.333 39.666 -18 58.999c-4.66699 16.667 -9.66699 33.334 -15 50.001h-4c-11.333 -44 -22.333 -79.667 -33 -107l-241 -665h553zM719 1536l-248 328h104l234 -328h-90z" />
    <glyph glyph-name="Aacute" unicode="&#xc1;" horiz-adv-x="1288" 
d="M1118 0l-164 446h-622l-164 -446h-109l541 1434h94l535 -1434h-111zM678 1200c-7.33301 20 -13.333 39.666 -18 58.999c-4.66699 16.667 -9.66699 33.334 -15 50.001h-4c-11.333 -44 -22.333 -79.667 -33 -107l-241 -665h553zM564 1530h-90l234 328h104z" />
    <glyph glyph-name="Acircumflex" unicode="&#xc2;" horiz-adv-x="1288" 
d="M1118 0l-164 446h-622l-164 -446h-109l541 1434h94l535 -1434h-111zM678 1200c-7.33301 20 -13.333 39.666 -18 58.999c-4.66699 16.667 -9.66699 33.334 -15 50.001h-4c-11.333 -44 -22.333 -79.667 -33 -107l-241 -665h553zM799 1535l-157 239l-160 -239h-82l221 336
h45l219 -336h-86z" />
    <glyph glyph-name="Atilde" unicode="&#xc3;" horiz-adv-x="1288" 
d="M1118 0l-164 446h-622l-164 -446h-109l541 1434h94l535 -1434h-111zM678 1200c-7.33301 20 -13.333 39.666 -18 58.999c-4.66699 16.667 -9.66699 33.334 -15 50.001h-4c-11.333 -44 -22.333 -79.667 -33 -107l-241 -665h553zM965 1768
c0 -68.667 -16.167 -123 -48.5 -163s-75.833 -60 -130.5 -60c-44 0 -94.333 25.333 -151 76c-42.667 36.667 -82.334 55 -119.001 55c-68 0 -102 -47.667 -102 -143h-72c0 66.667 16 120.167 48 160.5s74.667 60.5 128 60.5c48 0 101.333 -24 160 -72
c44.667 -39.333 83.667 -59 117 -59c26.667 0 49.334 12.333 68.001 37s28 60.667 28 108h74z" />
    <glyph glyph-name="Adieresis" unicode="&#xc4;" horiz-adv-x="1288" 
d="M1118 0l-164 446h-622l-164 -446h-109l541 1434h94l535 -1434h-111zM678 1200c-7.33301 20 -13.333 39.666 -18 58.999c-4.66699 16.667 -9.66699 33.334 -15 50.001h-4c-11.333 -44 -22.333 -79.667 -33 -107l-241 -665h553zM812 1530c-18 0 -34.332 6.5 -48.999 19.5
s-22 30.5 -22 52.5c0 20.667 7.16699 37.334 21.5 50.001s30.166 19 47.499 19c19.333 0 36.833 -6.5 52.5 -19.5s23.5 -29.5 23.5 -49.5c0 -20.667 -7.16699 -37.834 -21.5 -51.501s-31.833 -20.5 -52.5 -20.5zM479.001 1530c-18.667 0 -35.332 6.5 -49.999 19.5
s-22 30.5 -22 52.5c0 20.667 7.33301 37.334 22 50.001s30.667 19 48 19c19.333 0 36.666 -6.5 51.999 -19.5s23 -29.5 23 -49.5c0 -20.667 -7 -37.834 -21 -51.501s-31.333 -20.5 -52 -20.5z" />
    <glyph glyph-name="Aring" unicode="&#xc5;" horiz-adv-x="1288" 
d="M1118 0l-163.998 446h-622l-164 -446h-109l519 1374c-89.333 28 -134 86.667 -134 176c0 54 19.667 98.333 59 133s86.666 52 141.999 52c57.333 0 105.166 -16.833 143.499 -50.5s57.5 -78.5 57.5 -134.5c0 -86 -43.667 -144 -131 -174l514 -1376h-111zM645.002 1667
c-38 0 -68.667 -10.668 -92 -32.001s-35 -49.666 -35 -84.999c0 -34.667 12.167 -62.667 36.5 -84s54.5 -32 90.5 -32c38 0 69 10.667 93 32s36 49.333 36 84c0 38 -12.5 67 -37.5 87s-55.5 30 -91.5 30zM678.002 1200c-7.33301 20 -13.333 39.666 -18 58.999
c-4.66699 16.667 -9.66699 33.334 -15 50.001h-4c-11.333 -44 -22.333 -79.667 -33 -107l-241 -665h553z" />
    <glyph glyph-name="AE" unicode="&#xc6;" horiz-adv-x="1706" 
d="M846 0v446h-502l-219 -446h-109l697 1434h803v-97h-572v-571h531v-90h-531v-586h604v-90h-702zM846 1337h-78l-383 -800h461v800z" />
    <glyph glyph-name="Ccedilla" unicode="&#xc7;" horiz-adv-x="1272" 
d="M1137 47c-144 -56.667 -284.001 -80 -420.001 -70v-94c150 0 225 -49 225 -147c0 -113.333 -84.667 -170 -254 -170c-24 0 -50.667 1.33301 -80 4v74c33.333 -4 62 -6 86 -6c106.667 0 160 30.667 160 92c0 57.333 -48.333 86 -145 86
c-21.333 0 -42.666 -1.33301 -63.999 -4v174c-168 30.667 -299.333 109.667 -394 237s-142 282.333 -142 465c0 232.667 67 419.167 201 559.5s304.333 210.5 511 210.5c110 0 215.333 -17.667 316 -53v-105c-100.667 45.333 -206.667 68 -318 68
c-180 0 -326.333 -61 -439 -183s-169 -284.333 -169 -487c0 -195.333 53.833 -349.5 161.5 -462.5s244.167 -169.5 409.5 -169.5c132 0 250.333 25.667 355 77v-96z" />
    <glyph glyph-name="Egrave" unicode="&#xc8;" horiz-adv-x="1024" 
d="M184 0v1434h670v-91h-571v-575h530v-90h-530v-588h604v-90h-703zM556 1536l-248 328h104l234 -328h-90z" />
    <glyph glyph-name="Eacute" unicode="&#xc9;" horiz-adv-x="1024" 
d="M184 0v1434h670v-91h-571v-575h530v-90h-530v-588h604v-90h-703zM506 1533h-90l234 328h104z" />
    <glyph glyph-name="Ecircumflex" unicode="&#xca;" horiz-adv-x="1024" 
d="M184 0v1434h670v-91h-571v-575h530v-90h-530v-588h604v-90h-703zM699 1537l-157 239l-160 -239h-82l221 336h45l219 -336h-86z" />
    <glyph glyph-name="Edieresis" unicode="&#xcb;" horiz-adv-x="1024" 
d="M184 0v1434h670v-91h-571v-575h530v-90h-530v-588h604v-90h-703zM714 1536c-18 0 -34.332 6.5 -48.999 19.5s-22 30.5 -22 52.5c0 20.667 7.16699 37.334 21.5 50.001s30.166 19 47.499 19c19.333 0 36.833 -6.5 52.5 -19.5s23.5 -29.5 23.5 -49.5
c0 -20.667 -7.16699 -37.834 -21.5 -51.501s-31.833 -20.5 -52.5 -20.5zM381.001 1536c-18.667 0 -35.332 6.5 -49.999 19.5s-22 30.5 -22 52.5c0 20.667 7.33301 37.334 22 50.001s30.667 19 48 19c19.333 0 36.666 -6.5 51.999 -19.5s23 -29.5 23 -49.5
c0 -20.667 -7 -37.834 -21 -51.501s-31.333 -20.5 -52 -20.5z" />
    <glyph glyph-name="Igrave" unicode="&#xcc;" horiz-adv-x="463" 
d="M421 1434v-90h-140v-1254h140v-90h-379v90h140v1254h-140v90h379zM211 1536l-248 328h104l234 -328h-90z" />
    <glyph glyph-name="Iacute" unicode="&#xcd;" horiz-adv-x="463" 
d="M421 1434v-90h-140v-1254h140v-90h-379v90h140v1254h-140v90h379zM260 1536h-90l234 328h104z" />
    <glyph glyph-name="Icircumflex" unicode="&#xce;" horiz-adv-x="463" 
d="M421 1434v-90h-140v-1254h140v-90h-379v90h140v1254h-140v90h379zM389 1537l-157 239l-160 -239h-82l221 336h45l219 -336h-86z" />
    <glyph glyph-name="Idieresis" unicode="&#xcf;" horiz-adv-x="463" 
d="M421 1434v-90h-140v-1254h140v-90h-379v90h140v1254h-140v90h379zM397 1536c-18 0 -34.332 6.5 -48.999 19.5s-22 30.5 -22 52.5c0 20.667 7.16699 37.334 21.5 50.001s30.166 19 47.499 19c19.333 0 36.833 -6.5 52.5 -19.5s23.5 -29.5 23.5 -49.5
c0 -20.667 -7.16699 -37.834 -21.5 -51.501s-31.833 -20.5 -52.5 -20.5zM64.001 1536c-18.667 0 -35.332 6.5 -49.999 19.5s-22 30.5 -22 52.5c0 20.667 7.33301 37.334 22 50.001s30.667 19 48 19c19.333 0 36.666 -6.5 51.999 -19.5s23 -29.5 23 -49.5
c0 -20.667 -7 -37.834 -21 -51.501s-31.333 -20.5 -52 -20.5z" />
    <glyph glyph-name="Eth" unicode="&#xd0;" horiz-adv-x="1380" 
d="M184 0l-0.00195312 668h-149v88h149v678h359c238.667 0 419.834 -59.167 543.501 -177.5s185.5 -291.5 185.5 -519.5c0 -221.333 -67.167 -399.5 -201.5 -534.5s-317.166 -202.5 -548.499 -202.5h-338zM282.998 1343v-587h403v-88h-403v-578h225
c212 0 375.167 55 489.5 165s171.5 269.333 171.5 478c0 406.667 -213.667 610 -641 610h-245z" />
    <glyph glyph-name="Ntilde" unicode="&#xd1;" horiz-adv-x="1452" 
d="M1198 0l-854.001 1159c-17.333 23.333 -32.666 46.666 -45.999 69.999l-13 20h-4c1.33301 -17.333 2 -38.333 2 -63v-1186h-99v1434h76l848 -1149c18.667 -25.333 39 -56 61 -92h5c-3.33301 46.667 -5 86.667 -5 120v1121h99v-1434h-70zM1101 1768
c0 -68.667 -16.167 -123 -48.5 -163s-75.833 -60 -130.5 -60c-44 0 -94.333 25.333 -151 76c-42.667 36.667 -82.334 55 -119.001 55c-68 0 -102 -47.667 -102 -143h-72c0 66.667 16 120.167 48 160.5s74.667 60.5 128 60.5c48 0 101.333 -24 160 -72
c44.667 -39.333 83.667 -59 117 -59c26.667 0 49.334 12.333 68.001 37s28 60.667 28 108h74z" />
    <glyph glyph-name="Ograve" unicode="&#xd2;" horiz-adv-x="1559" 
d="M774 -25c-202.667 0 -364.167 67.332 -484.5 201.999s-180.5 309.667 -180.5 525c0 228.667 61.833 411.834 185.5 549.501s292.5 206.5 506.5 206.5c193.333 0 349.833 -66.167 469.5 -198.5s179.5 -305.833 179.5 -520.5c0 -237.333 -61.333 -424 -184 -560
s-286.667 -204 -492 -204zM784 1368c-166.667 0 -303.832 -60.335 -411.499 -181.002s-161.5 -278.667 -161.5 -474c0 -197.333 51 -354.5 153 -471.5s238 -175.5 408 -175.5c177.333 0 317.666 57.833 420.999 173.5s155 276.834 155 483.501
c0 202.667 -50.5 360.834 -151.5 474.501s-238.5 170.5 -412.5 170.5zM866.002 1535l-248 328h104l234 -328h-90z" />
    <glyph glyph-name="Oacute" unicode="&#xd3;" horiz-adv-x="1559" 
d="M774 -25c-202.667 0 -364.167 67.332 -484.5 201.999s-180.5 309.667 -180.5 525c0 228.667 61.833 411.834 185.5 549.501s292.5 206.5 506.5 206.5c193.333 0 349.833 -66.167 469.5 -198.5s179.5 -305.833 179.5 -520.5c0 -237.333 -61.333 -424 -184 -560
s-286.667 -204 -492 -204zM784 1368c-166.667 0 -303.832 -60.335 -411.499 -181.002s-161.5 -278.667 -161.5 -474c0 -197.333 51 -354.5 153 -471.5s238 -175.5 408 -175.5c177.333 0 317.666 57.833 420.999 173.5s155 276.834 155 483.501
c0 202.667 -50.5 360.834 -151.5 474.501s-238.5 170.5 -412.5 170.5zM731.002 1536h-90l234 328h104z" />
    <glyph glyph-name="Ocircumflex" unicode="&#xd4;" horiz-adv-x="1559" 
d="M774 -25c-202.667 0 -364.167 67.332 -484.5 201.999s-180.5 309.667 -180.5 525c0 228.667 61.833 411.834 185.5 549.501s292.5 206.5 506.5 206.5c193.333 0 349.833 -66.167 469.5 -198.5s179.5 -305.833 179.5 -520.5c0 -237.333 -61.333 -424 -184 -560
s-286.667 -204 -492 -204zM784 1368c-166.667 0 -303.832 -60.335 -411.499 -181.002s-161.5 -278.667 -161.5 -474c0 -197.333 51 -354.5 153 -471.5s238 -175.5 408 -175.5c177.333 0 317.666 57.833 420.999 173.5s155 276.834 155 483.501
c0 202.667 -50.5 360.834 -151.5 474.501s-238.5 170.5 -412.5 170.5zM935.002 1536l-157 239l-160 -239h-82l221 336h45l219 -336h-86z" />
    <glyph glyph-name="Otilde" unicode="&#xd5;" horiz-adv-x="1559" 
d="M774 -25c-202.667 0 -364.167 67.332 -484.5 201.999s-180.5 309.667 -180.5 525c0 228.667 61.833 411.834 185.5 549.501s292.5 206.5 506.5 206.5c193.333 0 349.833 -66.167 469.5 -198.5s179.5 -305.833 179.5 -520.5c0 -237.333 -61.333 -424 -184 -560
s-286.667 -204 -492 -204zM784 1368c-166.667 0 -303.832 -60.335 -411.499 -181.002s-161.5 -278.667 -161.5 -474c0 -197.333 51 -354.5 153 -471.5s238 -175.5 408 -175.5c177.333 0 317.666 57.833 420.999 173.5s155 276.834 155 483.501
c0 202.667 -50.5 360.834 -151.5 474.501s-238.5 170.5 -412.5 170.5zM1091 1767c0 -68.667 -16.167 -123 -48.5 -163s-75.833 -60 -130.5 -60c-44 0 -94.333 25.333 -151 76c-42.667 36.667 -82.334 55 -119.001 55c-68 0 -102 -47.667 -102 -143h-72
c0 66.667 16 120.167 48 160.5s74.667 60.5 128 60.5c48 0 101.333 -24 160 -72c44.667 -39.333 83.667 -59 117 -59c26.667 0 49.334 12.333 68.001 37s28 60.667 28 108h74z" />
    <glyph glyph-name="Odieresis" unicode="&#xd6;" horiz-adv-x="1559" 
d="M774 -25c-202.667 0 -364.167 67.332 -484.5 201.999s-180.5 309.667 -180.5 525c0 228.667 61.833 411.834 185.5 549.501s292.5 206.5 506.5 206.5c193.333 0 349.833 -66.167 469.5 -198.5s179.5 -305.833 179.5 -520.5c0 -237.333 -61.333 -424 -184 -560
s-286.667 -204 -492 -204zM784 1368c-166.667 0 -303.832 -60.335 -411.499 -181.002s-161.5 -278.667 -161.5 -474c0 -197.333 51 -354.5 153 -471.5s238 -175.5 408 -175.5c177.333 0 317.666 57.833 420.999 173.5s155 276.834 155 483.501
c0 202.667 -50.5 360.834 -151.5 474.501s-238.5 170.5 -412.5 170.5zM950.002 1533c-18 0 -34.332 6.5 -48.999 19.5s-22 30.5 -22 52.5c0 20.667 7.16699 37.334 21.5 50.001s30.166 19 47.499 19c19.333 0 36.833 -6.5 52.5 -19.5s23.5 -29.5 23.5 -49.5
c0 -20.667 -7.16699 -37.834 -21.5 -51.501s-31.833 -20.5 -52.5 -20.5zM617.003 1533c-18.667 0 -35.332 6.5 -49.999 19.5s-22 30.5 -22 52.5c0 20.667 7.33301 37.334 22 50.001s30.667 19 48 19c19.333 0 36.666 -6.5 51.999 -19.5s23 -29.5 23 -49.5
c0 -20.667 -7 -37.834 -21 -51.501s-31.333 -20.5 -52 -20.5z" />
    <glyph glyph-name="multiply" unicode="&#xd7;" horiz-adv-x="1331" 
d="M999 203l-333 336l-334 -336l-60 59l334 334l-334 336l60 59l334 -336l333 336l60 -59l-334 -336l334 -334z" />
    <glyph glyph-name="Oslash" unicode="&#xd8;" horiz-adv-x="1559" 
d="M317 147l-170 -202l-63 51l178 213c-102 133.333 -153 297.666 -153 492.999c0 228.667 61.833 411.834 185.5 549.501s292.5 206.5 506.5 206.5c156.667 0 289.667 -43.667 399 -131l139 166l64 -53l-141 -168c125.333 -134 188 -311.667 188 -533
c0 -237.333 -61.333 -424 -184 -560s-286.667 -204 -492 -204c-182.667 0 -335 57.333 -457 172zM1139 1253c-96 76.667 -214.332 115 -354.999 115c-166.667 0 -303.834 -60.333 -411.501 -181s-161.5 -278.667 -161.5 -474c0 -172 39 -314 117 -426zM1198 1196
l-816.999 -973.002c102 -104.667 232.333 -157 391 -157c177.333 0 317.666 57.833 420.999 173.5s155 276.834 155 483.501c0 198.667 -50 356.334 -150 473.001z" />
    <glyph glyph-name="Ugrave" unicode="&#xd9;" horiz-adv-x="1327" 
d="M1161 573c0 -398.667 -170 -598 -510 -598c-323.333 0 -485 192 -485 576v883h98v-869c0 -332.667 135.333 -499 406 -499c262 0 393 161.667 393 485v883h98v-861zM683 1536l-248 328h104l234 -328h-90z" />
    <glyph glyph-name="Uacute" unicode="&#xda;" horiz-adv-x="1327" 
d="M1161 573c0 -398.667 -170 -598 -510 -598c-323.333 0 -485 192 -485 576v883h98v-869c0 -332.667 135.333 -499 406 -499c262 0 393 161.667 393 485v883h98v-861zM663 1535h-90l234 328h104z" />
    <glyph glyph-name="Ucircumflex" unicode="&#xdb;" horiz-adv-x="1327" 
d="M1161 573c0 -398.667 -170 -598 -510 -598c-323.333 0 -485 192 -485 576v883h98v-869c0 -332.667 135.333 -499 406 -499c262 0 393 161.667 393 485v883h98v-861zM859 1537l-157 239l-160 -239h-82l221 336h45l219 -336h-86z" />
    <glyph glyph-name="Udieresis" unicode="&#xdc;" horiz-adv-x="1327" 
d="M1161 573c0 -398.667 -170 -598 -510 -598c-323.333 0 -485 192 -485 576v883h98v-869c0 -332.667 135.333 -499 406 -499c262 0 393 161.667 393 485v883h98v-861zM860 1537c-18 0 -34.332 6.5 -48.999 19.5s-22 30.5 -22 52.5c0 20.667 7.16699 37.334 21.5 50.001
s30.166 19 47.499 19c19.333 0 36.833 -6.5 52.5 -19.5s23.5 -29.5 23.5 -49.5c0 -20.667 -7.16699 -37.834 -21.5 -51.501s-31.833 -20.5 -52.5 -20.5zM527.001 1537c-18.667 0 -35.332 6.5 -49.999 19.5s-22 30.5 -22 52.5c0 20.667 7.33301 37.334 22 50.001
s30.667 19 48 19c19.333 0 36.666 -6.5 51.999 -19.5s23 -29.5 23 -49.5c0 -20.667 -7 -37.834 -21 -51.501s-31.333 -20.5 -52 -20.5z" />
    <glyph glyph-name="Yacute" unicode="&#xdd;" horiz-adv-x="1106" 
d="M598 545l0.000976562 -545.001h-98v543l-439 891h111l334 -691c12 -24 27 -59.333 45 -106h4c9.33301 24.667 25.666 59.334 48.999 104.001l350 693h107zM532.001 1567h-90l234 328h104z" />
    <glyph glyph-name="Thorn" unicode="&#xde;" horiz-adv-x="1114" 
d="M283 338v-338h-99v1434h99v-238h247c303.333 0 455 -134.333 455 -403c0 -136 -44.333 -245.833 -133 -329.5s-211 -125.5 -367 -125.5h-202zM283 1106l0.000976562 -678h204c127.333 0 225.166 30.5 293.499 91.5s102.5 147.833 102.5 260.5
c0 217.333 -123.667 326 -371 326h-229z" />
    <glyph glyph-name="germandbls" unicode="&#xdf;" horiz-adv-x="1061" 
d="M430 -6l-0.000976562 94.001c48.667 -19.333 95.667 -29 141 -29c94 0 168.833 29.333 224.5 88s83.5 136.667 83.5 234c0 103.333 -36.333 189 -109 257s-175 112.667 -307 134v80c204.667 46.667 307 157.334 307 332.001c0 81.333 -21.5 145.666 -64.5 192.999
s-102.833 71 -179.5 71c-85.333 0 -151.666 -30.333 -198.999 -91s-71 -145.667 -71 -255v-1100h-92v1114c0 130.667 33.667 232.667 101 306s157.333 110 270 110c99.333 0 179.333 -30.667 240 -92s91 -142 91 -242c0 -176 -85.333 -301 -256 -375v-4
c113.333 -30 202.5 -83.833 267.5 -161.5s97.5 -167.834 97.5 -270.501c0 -119.333 -37 -217.833 -111 -295.5s-170.333 -116.5 -289 -116.5c-46 0 -94.333 6.33301 -145 19z" />
    <glyph glyph-name="agrave" unicode="&#xe0;" horiz-adv-x="1012" 
d="M776 0l0.000976562 205h-4c-32.667 -70 -80.167 -125.833 -142.5 -167.5s-131.5 -62.5 -207.5 -62.5c-97.333 0 -174.333 27.333 -231 82s-85 123.667 -85 207c0 178.667 118.333 286.667 355 324l315 47c0 220 -82.667 330 -248 330
c-112.667 0 -222.334 -45.333 -329.001 -136v111c38 30 89.5 55.667 154.5 77s126.167 32 183.5 32c105.333 0 186.833 -32.667 244.5 -98s86.5 -160.333 86.5 -285v-666h-92zM494.001 510c-107.333 -15.333 -182.667 -40.168 -226 -74.501s-65 -90.166 -65 -167.499
c0 -60.667 20.167 -110.667 60.5 -150s96.5 -59 168.5 -59c98.667 0 180.667 36.5 246 109.5s98 167.167 98 282.5v100zM519 1188l-248 328h104l234 -328h-90z" />
    <glyph glyph-name="aacute" unicode="&#xe1;" horiz-adv-x="1012" 
d="M776 0l0.000976562 205h-4c-32.667 -70 -80.167 -125.833 -142.5 -167.5s-131.5 -62.5 -207.5 -62.5c-97.333 0 -174.333 27.333 -231 82s-85 123.667 -85 207c0 178.667 118.333 286.667 355 324l315 47c0 220 -82.667 330 -248 330
c-112.667 0 -222.334 -45.333 -329.001 -136v111c38 30 89.5 55.667 154.5 77s126.167 32 183.5 32c105.333 0 186.833 -32.667 244.5 -98s86.5 -160.333 86.5 -285v-666h-92zM494.001 510c-107.333 -15.333 -182.667 -40.168 -226 -74.501s-65 -90.166 -65 -167.499
c0 -60.667 20.167 -110.667 60.5 -150s96.5 -59 168.5 -59c98.667 0 180.667 36.5 246 109.5s98 167.167 98 282.5v100zM452 1188h-90l234 328h104z" />
    <glyph glyph-name="acircumflex" unicode="&#xe2;" horiz-adv-x="1012" 
d="M776 0l0.000976562 205h-4c-32.667 -70 -80.167 -125.833 -142.5 -167.5s-131.5 -62.5 -207.5 -62.5c-97.333 0 -174.333 27.333 -231 82s-85 123.667 -85 207c0 178.667 118.333 286.667 355 324l315 47c0 220 -82.667 330 -248 330
c-112.667 0 -222.334 -45.333 -329.001 -136v111c38 30 89.5 55.667 154.5 77s126.167 32 183.5 32c105.333 0 186.833 -32.667 244.5 -98s86.5 -160.333 86.5 -285v-666h-92zM494.001 510c-107.333 -15.333 -182.667 -40.168 -226 -74.501s-65 -90.166 -65 -167.499
c0 -60.667 20.167 -110.667 60.5 -150s96.5 -59 168.5 -59c98.667 0 180.667 36.5 246 109.5s98 167.167 98 282.5v100zM670 1188l-157 239l-160 -239h-82l221 336h45l219 -336h-86z" />
    <glyph glyph-name="atilde" unicode="&#xe3;" horiz-adv-x="1012" 
d="M776 0l0.000976562 205h-4c-32.667 -70 -80.167 -125.833 -142.5 -167.5s-131.5 -62.5 -207.5 -62.5c-97.333 0 -174.333 27.333 -231 82s-85 123.667 -85 207c0 178.667 118.333 286.667 355 324l315 47c0 220 -82.667 330 -248 330
c-112.667 0 -222.334 -45.333 -329.001 -136v111c38 30 89.5 55.667 154.5 77s126.167 32 183.5 32c105.333 0 186.833 -32.667 244.5 -98s86.5 -160.333 86.5 -285v-666h-92zM494.001 510c-107.333 -15.333 -182.667 -40.168 -226 -74.501s-65 -90.166 -65 -167.499
c0 -60.667 20.167 -110.667 60.5 -150s96.5 -59 168.5 -59c98.667 0 180.667 36.5 246 109.5s98 167.167 98 282.5v100zM824 1423c0 -68.667 -16.167 -123 -48.5 -163s-75.833 -60 -130.5 -60c-44 0 -94.333 25.333 -151 76c-42.667 36.667 -82.334 55 -119.001 55
c-68 0 -102 -47.667 -102 -143h-72c0 66.667 16 120.167 48 160.5s74.667 60.5 128 60.5c48 0 101.333 -24 160 -72c44.667 -39.333 83.667 -59 117 -59c26.667 0 49.334 12.333 68.001 37s28 60.667 28 108h74z" />
    <glyph glyph-name="adieresis" unicode="&#xe4;" horiz-adv-x="1012" 
d="M776 0l0.000976562 205h-4c-32.667 -70 -80.167 -125.833 -142.5 -167.5s-131.5 -62.5 -207.5 -62.5c-97.333 0 -174.333 27.333 -231 82s-85 123.667 -85 207c0 178.667 118.333 286.667 355 324l315 47c0 220 -82.667 330 -248 330
c-112.667 0 -222.334 -45.333 -329.001 -136v111c38 30 89.5 55.667 154.5 77s126.167 32 183.5 32c105.333 0 186.833 -32.667 244.5 -98s86.5 -160.333 86.5 -285v-666h-92zM494.001 510c-107.333 -15.333 -182.667 -40.168 -226 -74.501s-65 -90.166 -65 -167.499
c0 -60.667 20.167 -110.667 60.5 -150s96.5 -59 168.5 -59c98.667 0 180.667 36.5 246 109.5s98 167.167 98 282.5v100zM665 1188c-18 0 -34.332 6.5 -48.999 19.5s-22 30.5 -22 52.5c0 20.667 7.16699 37.334 21.5 50.001s30.166 19 47.499 19
c19.333 0 36.833 -6.5 52.5 -19.5s23.5 -29.5 23.5 -49.5c0 -20.667 -7.16699 -37.834 -21.5 -51.501s-31.833 -20.5 -52.5 -20.5zM332.001 1188c-18.667 0 -35.332 6.5 -49.999 19.5s-22 30.5 -22 52.5c0 20.667 7.33301 37.334 22 50.001s30.667 19 48 19
c19.333 0 36.666 -6.5 51.999 -19.5s23 -29.5 23 -49.5c0 -20.667 -7 -37.834 -21 -51.501s-31.333 -20.5 -52 -20.5z" />
    <glyph glyph-name="aring" unicode="&#xe5;" horiz-adv-x="1012" 
d="M776 0l0.000976562 205h-4c-32.667 -70 -80.167 -125.833 -142.5 -167.5s-131.5 -62.5 -207.5 -62.5c-97.333 0 -174.333 27.333 -231 82s-85 123.667 -85 207c0 178.667 118.333 286.667 355 324l315 47c0 220 -82.667 330 -248 330
c-112.667 0 -222.334 -45.333 -329.001 -136v111c38 30 89.5 55.667 154.5 77s126.167 32 183.5 32c105.333 0 186.833 -32.667 244.5 -98s86.5 -160.333 86.5 -285v-666h-92zM494.001 510c-107.333 -15.333 -182.667 -40.168 -226 -74.501s-65 -90.166 -65 -167.499
c0 -60.667 20.167 -110.667 60.5 -150s96.5 -59 168.5 -59c98.667 0 180.667 36.5 246 109.5s98 167.167 98 282.5v100zM521 1188c-57.333 0 -105.167 16.833 -143.5 50.5s-57.5 78.167 -57.5 133.5c0 53.333 19 97.333 57 132s86 52 144 52
c58.667 0 106.834 -16.833 144.501 -50.5s56.5 -78.167 56.5 -133.5c0 -53.333 -19.333 -97.333 -58 -132s-86.334 -52 -143.001 -52zM520.999 1489c-38 0 -68.667 -10.6699 -92 -32.0029s-35 -49.666 -35 -84.999s12.167 -63.666 36.5 -84.999s54.5 -32 90.5 -32
c38 0 69 10.833 93 32.5s36 49.834 36 84.501c0 38 -12.5 67 -37.5 87s-55.5 30 -91.5 30z" />
    <glyph glyph-name="ae" unicode="&#xe6;" horiz-adv-x="1718" 
d="M868 508c0 -140.667 32.5 -250.668 97.5 -330.001s154.167 -119 267.5 -119c114.667 0 226.667 42.333 336 127v-98c-106 -75.333 -224.333 -113 -355 -113c-90.667 0 -170.667 24.833 -240 74.5s-119.666 119.834 -150.999 210.501h-4c-88.667 -190 -219 -285 -391 -285
c-100 0 -178.667 26.833 -236 80.5s-86 123.167 -86 208.5c0 95.333 33 170.333 99 225s161.667 85 287 91l284 12c0 248.667 -79.667 373 -239 373c-124 0 -236.667 -44.667 -338 -134v109c107.333 72.667 223.333 109 348 109c153.333 0 251.666 -84.667 294.999 -254h4
c84 169.333 211.667 254 383 254c126.667 0 224.5 -44.333 293.5 -133s103.5 -211 103.5 -367v-41h-758zM1530 591.999c-4 118 -32.332 209.667 -84.999 275s-125.334 98 -218.001 98c-96 0 -175.5 -32.167 -238.5 -96.5s-101.833 -156.5 -116.5 -276.5h658z
M776.001 507.999l-264 -8c-104 -3.33301 -181.5 -22.833 -232.5 -58.5s-76.5 -93.5 -76.5 -173.5c0 -65.333 21.167 -116.5 63.5 -153.5s99.5 -55.5 171.5 -55.5c90.667 0 169.667 35.833 237 107.5s101 158.167 101 259.5v82z" />
    <glyph glyph-name="ccedilla" unicode="&#xe7;" horiz-adv-x="909" 
d="M827 45c-76 -46.667 -166.669 -70.002 -272.002 -70.002c-139.333 0 -251.666 47.833 -336.999 143.5s-128 220.834 -128 375.501c0 162.667 48 295.834 144 399.501s219.333 155.5 370 155.5c78 0 153.667 -16 227 -48v-104c-73.333 45.333 -153.666 68 -240.999 68
c-120 0 -217.333 -43.167 -292 -129.5s-112 -198.166 -112 -335.499c0 -132.667 34.167 -239.334 102.5 -320.001s158.5 -121 270.5 -121c102.667 0 192 27.333 268 82v-96zM402.998 -430.002l-0.000976562 74c33.333 -4 62 -6 86 -6c106.667 0 160 30.667 160 92
c0 57.333 -48.333 86 -145 86c-21.333 0 -42.666 -1.33301 -63.999 -4v188h72v-117c150 0 225 -49 225 -147c0 -113.333 -84.667 -170 -254 -170c-24 0 -50.667 1.33301 -80 4z" />
    <glyph glyph-name="egrave" unicode="&#xe8;" horiz-adv-x="1034" 
d="M186 508c0 -140.667 32.5 -250.667 97.5 -330s154.167 -119 267.5 -119c114.667 0 226.667 42.333 336 127v-98c-106 -75.333 -224.333 -113 -355 -113c-132 0 -238.667 47.333 -320 142s-122 228.334 -122 401.001c0 149.333 42.5 275.166 127.5 377.499
s195.5 153.5 331.5 153.5c127.333 0 225 -44.667 293 -134s102 -211.333 102 -366v-41h-758zM848 592c-4 118 -32.332 209.667 -84.999 275s-125.334 98 -218.001 98c-96 0 -175.5 -32.167 -238.5 -96.5s-101.833 -156.5 -116.5 -276.5h658zM569.001 1188l-248 328h104
l234 -328h-90z" />
    <glyph glyph-name="eacute" unicode="&#xe9;" horiz-adv-x="1034" 
d="M186 508c0 -140.667 32.5 -250.667 97.5 -330s154.167 -119 267.5 -119c114.667 0 226.667 42.333 336 127v-98c-106 -75.333 -224.333 -113 -355 -113c-132 0 -238.667 47.333 -320 142s-122 228.334 -122 401.001c0 149.333 42.5 275.166 127.5 377.499
s195.5 153.5 331.5 153.5c127.333 0 225 -44.667 293 -134s102 -211.333 102 -366v-41h-758zM848 592c-4 118 -32.332 209.667 -84.999 275s-125.334 98 -218.001 98c-96 0 -175.5 -32.167 -238.5 -96.5s-101.833 -156.5 -116.5 -276.5h658zM489.001 1188h-90l234 328h104z
" />
    <glyph glyph-name="ecircumflex" unicode="&#xea;" horiz-adv-x="1034" 
d="M186 508c0 -140.667 32.5 -250.667 97.5 -330s154.167 -119 267.5 -119c114.667 0 226.667 42.333 336 127v-98c-106 -75.333 -224.333 -113 -355 -113c-132 0 -238.667 47.333 -320 142s-122 228.334 -122 401.001c0 149.333 42.5 275.166 127.5 377.499
s195.5 153.5 331.5 153.5c127.333 0 225 -44.667 293 -134s102 -211.333 102 -366v-41h-758zM848 592c-4 118 -32.332 209.667 -84.999 275s-125.334 98 -218.001 98c-96 0 -175.5 -32.167 -238.5 -96.5s-101.833 -156.5 -116.5 -276.5h658zM704.001 1188l-157 239
l-160 -239h-82l221 336h45l219 -336h-86z" />
    <glyph glyph-name="edieresis" unicode="&#xeb;" horiz-adv-x="1034" 
d="M186 508c0 -140.667 32.5 -250.667 97.5 -330s154.167 -119 267.5 -119c114.667 0 226.667 42.333 336 127v-98c-106 -75.333 -224.333 -113 -355 -113c-132 0 -238.667 47.333 -320 142s-122 228.334 -122 401.001c0 149.333 42.5 275.166 127.5 377.499
s195.5 153.5 331.5 153.5c127.333 0 225 -44.667 293 -134s102 -211.333 102 -366v-41h-758zM848 592c-4 118 -32.332 209.667 -84.999 275s-125.334 98 -218.001 98c-96 0 -175.5 -32.167 -238.5 -96.5s-101.833 -156.5 -116.5 -276.5h658zM702.001 1188
c-18 0 -34.332 6.5 -48.999 19.5s-22 30.5 -22 52.5c0 20.667 7.16699 37.334 21.5 50.001s30.166 19 47.499 19c19.333 0 36.833 -6.5 52.5 -19.5s23.5 -29.5 23.5 -49.5c0 -20.667 -7.16699 -37.834 -21.5 -51.501s-31.833 -20.5 -52.5 -20.5zM369.002 1188
c-18.667 0 -35.332 6.5 -49.999 19.5s-22 30.5 -22 52.5c0 20.667 7.33301 37.334 22 50.001s30.667 19 48 19c19.333 0 36.666 -6.5 51.999 -19.5s23 -29.5 23 -49.5c0 -20.667 -7 -37.834 -21 -51.501s-31.333 -20.5 -52 -20.5z" />
    <glyph glyph-name="igrave" unicode="&#xec;" horiz-adv-x="420" 
d="M164 0v1024h92v-1024h-92zM254 1188l-248 328h104l234 -328h-90z" />
    <glyph glyph-name="iacute" unicode="&#xed;" horiz-adv-x="420" 
d="M164 0v1024h92v-1024h-92zM173 1188h-90l234 328h104z" />
    <glyph glyph-name="icircumflex" unicode="&#xee;" horiz-adv-x="420" 
d="M164 0v1024h92v-1024h-92zM369 1188l-157 239l-160 -239h-82l221 336h45l219 -336h-86z" />
    <glyph glyph-name="idieresis" unicode="&#xef;" horiz-adv-x="420" 
d="M164 0v1024h92v-1024h-92zM377 1188c-18 0 -34.332 6.5 -48.999 19.5s-22 30.5 -22 52.5c0 20.667 7.16699 37.334 21.5 50.001s30.166 19 47.499 19c19.333 0 36.833 -6.5 52.5 -19.5s23.5 -29.5 23.5 -49.5c0 -20.667 -7.16699 -37.834 -21.5 -51.501
s-31.833 -20.5 -52.5 -20.5zM44.001 1188c-18.667 0 -35.332 6.5 -49.999 19.5s-22 30.5 -22 52.5c0 20.667 7.33301 37.334 22 50.001s30.667 19 48 19c19.333 0 36.666 -6.5 51.999 -19.5s23 -29.5 23 -49.5c0 -20.667 -7 -37.834 -21 -51.501s-31.333 -20.5 -52 -20.5z
" />
    <glyph glyph-name="eth" unicode="&#xf0;" horiz-adv-x="1090" 
d="M801 956l4 5.00195c-68 120 -141 218.667 -219 296l-299 -149l-35 70l276 133c-84.667 76.667 -168.667 144 -252 202h150c54 -38.667 116 -90.334 186 -155.001l301 149l35 -71l-280 -136c108.667 -112.667 191 -238.334 247 -377.001s84 -276.334 84 -413.001
c0 -156.667 -40.333 -285 -121 -385s-191 -150 -331 -150c-146.667 0 -259.5 48 -338.5 144s-118.5 225 -118.5 387c0 160.667 42.833 291.334 128.5 392.001s198.5 151 338.5 151c98 0 179.333 -31 244 -93zM557 965.002c-111.333 0 -201 -42.332 -269 -126.999
s-102 -196 -102 -334s32.167 -246.667 96.5 -326s153.166 -119 266.499 -119c108.667 0 194.834 40.667 258.501 122s95.5 191.666 95.5 330.999c0 302 -115.333 453 -346 453z" />
    <glyph glyph-name="ntilde" unicode="&#xf1;" horiz-adv-x="1096" 
d="M860 0l-0.00195312 596.001c0 246 -88.667 369 -266 369c-98.667 0 -179.667 -36.167 -243 -108.5s-95 -161.833 -95 -268.5v-588h-92v1024h92v-186h4c74.667 140.667 191.334 211 350.001 211c110.667 0 195.334 -36.833 254.001 -110.5s88 -178.834 88 -315.501v-623
h-92zM895.998 1423c0 -68.667 -16.167 -123 -48.5 -163s-75.833 -60 -130.5 -60c-44 0 -94.333 25.333 -151 76c-42.667 36.667 -82.334 55 -119.001 55c-68 0 -102 -47.667 -102 -143h-72c0 66.667 16 120.167 48 160.5s74.667 60.5 128 60.5c48 0 101.333 -24 160 -72
c44.667 -39.333 83.667 -59 117 -59c26.667 0 49.334 12.333 68.001 37s28 60.667 28 108h74z" />
    <glyph glyph-name="ograve" unicode="&#xf2;" horiz-adv-x="1149" 
d="M575 -25c-149.333 0 -267.5 49.168 -354.5 147.501s-130.5 226.166 -130.5 383.499c0 170 45.5 303 136.5 399s210.833 144 359.5 144c146 0 261.333 -47.667 346 -143s127 -227.333 127 -396c0 -159.333 -43.167 -288.333 -129.5 -387s-204.5 -148 -354.5 -148z
M582 965.001c-120.667 0 -216.834 -40.667 -288.501 -122s-107.5 -194.333 -107.5 -339c0 -134 35 -241.667 105 -323s165.667 -122 287 -122c123.333 0 218.333 40 285 120s100 191 100 333c0 146 -33.167 258 -99.5 336s-160.166 117 -281.499 117zM592 1188l-248 328h104
l234 -328h-90z" />
    <glyph glyph-name="oacute" unicode="&#xf3;" horiz-adv-x="1149" 
d="M575 -25c-149.333 0 -267.5 49.168 -354.5 147.501s-130.5 226.166 -130.5 383.499c0 170 45.5 303 136.5 399s210.833 144 359.5 144c146 0 261.333 -47.667 346 -143s127 -227.333 127 -396c0 -159.333 -43.167 -288.333 -129.5 -387s-204.5 -148 -354.5 -148z
M582 965.001c-120.667 0 -216.834 -40.667 -288.501 -122s-107.5 -194.333 -107.5 -339c0 -134 35 -241.667 105 -323s165.667 -122 287 -122c123.333 0 218.333 40 285 120s100 191 100 333c0 146 -33.167 258 -99.5 336s-160.166 117 -281.499 117zM541 1188h-90l234 328
h104z" />
    <glyph glyph-name="ocircumflex" unicode="&#xf4;" horiz-adv-x="1149" 
d="M575 -25c-149.333 0 -267.5 49.168 -354.5 147.501s-130.5 226.166 -130.5 383.499c0 170 45.5 303 136.5 399s210.833 144 359.5 144c146 0 261.333 -47.667 346 -143s127 -227.333 127 -396c0 -159.333 -43.167 -288.333 -129.5 -387s-204.5 -148 -354.5 -148z
M582 965.001c-120.667 0 -216.834 -40.667 -288.501 -122s-107.5 -194.333 -107.5 -339c0 -134 35 -241.667 105 -323s165.667 -122 287 -122c123.333 0 218.333 40 285 120s100 191 100 333c0 146 -33.167 258 -99.5 336s-160.166 117 -281.499 117zM748 1188l-157 239
l-160 -239h-82l221 336h45l219 -336h-86z" />
    <glyph glyph-name="otilde" unicode="&#xf5;" horiz-adv-x="1149" 
d="M575 -25c-149.333 0 -267.5 49.168 -354.5 147.501s-130.5 226.166 -130.5 383.499c0 170 45.5 303 136.5 399s210.833 144 359.5 144c146 0 261.333 -47.667 346 -143s127 -227.333 127 -396c0 -159.333 -43.167 -288.333 -129.5 -387s-204.5 -148 -354.5 -148z
M582 965.001c-120.667 0 -216.834 -40.667 -288.501 -122s-107.5 -194.333 -107.5 -339c0 -134 35 -241.667 105 -323s165.667 -122 287 -122c123.333 0 218.333 40 285 120s100 191 100 333c0 146 -33.167 258 -99.5 336s-160.166 117 -281.499 117zM911 1423
c0 -68.667 -16.167 -123 -48.5 -163s-75.833 -60 -130.5 -60c-44 0 -94.333 25.333 -151 76c-42.667 36.667 -82.334 55 -119.001 55c-68 0 -102 -47.667 -102 -143h-72c0 66.667 16 120.167 48 160.5s74.667 60.5 128 60.5c48 0 101.333 -24 160 -72
c44.667 -39.333 83.667 -59 117 -59c26.667 0 49.334 12.333 68.001 37s28 60.667 28 108h74z" />
    <glyph glyph-name="odieresis" unicode="&#xf6;" horiz-adv-x="1149" 
d="M575 -25c-149.333 0 -267.5 49.168 -354.5 147.501s-130.5 226.166 -130.5 383.499c0 170 45.5 303 136.5 399s210.833 144 359.5 144c146 0 261.333 -47.667 346 -143s127 -227.333 127 -396c0 -159.333 -43.167 -288.333 -129.5 -387s-204.5 -148 -354.5 -148z
M582 965.001c-120.667 0 -216.834 -40.667 -288.501 -122s-107.5 -194.333 -107.5 -339c0 -134 35 -241.667 105 -323s165.667 -122 287 -122c123.333 0 218.333 40 285 120s100 191 100 333c0 146 -33.167 258 -99.5 336s-160.166 117 -281.499 117zM749 1188
c-18 0 -34.332 6.5 -48.999 19.5s-22 30.5 -22 52.5c0 20.667 7.16699 37.334 21.5 50.001s30.166 19 47.499 19c19.333 0 36.833 -6.5 52.5 -19.5s23.5 -29.5 23.5 -49.5c0 -20.667 -7.16699 -37.834 -21.5 -51.501s-31.833 -20.5 -52.5 -20.5zM416.001 1188
c-18.667 0 -35.332 6.5 -49.999 19.5s-22 30.5 -22 52.5c0 20.667 7.33301 37.334 22 50.001s30.667 19 48 19c19.333 0 36.666 -6.5 51.999 -19.5s23 -29.5 23 -49.5c0 -20.667 -7 -37.834 -21 -51.501s-31.333 -20.5 -52 -20.5z" />
    <glyph glyph-name="divide" unicode="&#xf7;" horiz-adv-x="1331" 
d="M668 866c-21.333 0 -39.666 7.66699 -54.999 23s-23 33.666 -23 54.999s7.66699 39.333 23 54s33.666 22 54.999 22s39.166 -7.33301 53.499 -22s21.5 -32.667 21.5 -54s-7.16699 -39.666 -21.5 -54.999s-32.166 -23 -53.499 -23zM213 555v84h907v-84h-907zM668 174
c-21.333 0 -39.666 7.66699 -54.999 23s-23 33.666 -23 54.999s7.66699 39.333 23 54s33.666 22 54.999 22s39.166 -7.33301 53.499 -22s21.5 -32.667 21.5 -54s-7.16699 -39.666 -21.5 -54.999s-32.166 -23 -53.499 -23z" />
    <glyph glyph-name="oslash" unicode="&#xf8;" horiz-adv-x="1149" 
d="M961 870c65.333 -93.333 98 -213.333 98 -360c0 -159.333 -43.167 -288.333 -129.5 -387s-204.5 -148 -354.5 -148c-128 0 -234.333 37.667 -319 113l-166 -184l-61 57l170 189c-72.667 97.333 -109 216 -109 356c0 170 45.5 303 136.5 399s210.833 144 359.5 144
c132.667 0 239.667 -38.333 321 -115l172 190l62 -55zM846 866c-66 66 -153.999 99 -263.999 99c-120.667 0 -216.834 -40.667 -288.501 -122s-107.5 -194.333 -107.5 -339c0 -111.333 25.333 -206.333 76 -285zM897.001 799l-582 -643c69.333 -64.667 157 -97 263 -97
c123.333 0 218.333 40 285 120s100 191 100 333c0 114 -22 209.667 -66 287z" />
    <glyph glyph-name="ugrave" unicode="&#xf9;" horiz-adv-x="1096" 
d="M840 0v186.001h-4c-71.333 -140.667 -181.333 -211 -330 -211c-242 0 -363 152.333 -363 457v592h93v-569c0 -138.667 22.833 -239.334 68.5 -302.001s117.5 -94 215.5 -94c95.333 0 172.5 35 231.5 105s88.5 163.333 88.5 280v580h92v-1024h-92zM558 1188l-248 328h104
l234 -328h-90z" />
    <glyph glyph-name="uacute" unicode="&#xfa;" horiz-adv-x="1096" 
d="M840 0v186.001h-4c-71.333 -140.667 -181.333 -211 -330 -211c-242 0 -363 152.333 -363 457v592h93v-569c0 -138.667 22.833 -239.334 68.5 -302.001s117.5 -94 215.5 -94c95.333 0 172.5 35 231.5 105s88.5 163.333 88.5 280v580h92v-1024h-92zM543 1188h-90l234 328
h104z" />
    <glyph glyph-name="ucircumflex" unicode="&#xfb;" horiz-adv-x="1096" 
d="M840 0v186.001h-4c-71.333 -140.667 -181.333 -211 -330 -211c-242 0 -363 152.333 -363 457v592h93v-569c0 -138.667 22.833 -239.334 68.5 -302.001s117.5 -94 215.5 -94c95.333 0 172.5 35 231.5 105s88.5 163.333 88.5 280v580h92v-1024h-92zM726 1188l-157 239
l-160 -239h-82l221 336h45l219 -336h-86z" />
    <glyph glyph-name="udieresis" unicode="&#xfc;" horiz-adv-x="1096" 
d="M840 0v186.001h-4c-71.333 -140.667 -181.333 -211 -330 -211c-242 0 -363 152.333 -363 457v592h93v-569c0 -138.667 22.833 -239.334 68.5 -302.001s117.5 -94 215.5 -94c95.333 0 172.5 35 231.5 105s88.5 163.333 88.5 280v580h92v-1024h-92zM735 1188
c-18 0 -34.332 6.5 -48.999 19.5s-22 30.5 -22 52.5c0 20.667 7.16699 37.334 21.5 50.001s30.166 19 47.499 19c19.333 0 36.833 -6.5 52.5 -19.5s23.5 -29.5 23.5 -49.5c0 -20.667 -7.16699 -37.834 -21.5 -51.501s-31.833 -20.5 -52.5 -20.5zM402.001 1188
c-18.667 0 -35.332 6.5 -49.999 19.5s-22 30.5 -22 52.5c0 20.667 7.33301 37.334 22 50.001s30.667 19 48 19c19.333 0 36.666 -6.5 51.999 -19.5s23 -29.5 23 -49.5c0 -20.667 -7 -37.834 -21 -51.501s-31.333 -20.5 -52 -20.5z" />
    <glyph glyph-name="yacute" unicode="&#xfd;" horiz-adv-x="928" 
d="M414 -209c-37.333 -92 -78.6689 -160.333 -124.002 -205s-103.666 -67 -174.999 -67c-30 0 -56.667 4.66699 -80 14v92c24 -9.33301 52 -14 84 -14c82 0 146.667 56.667 194 170l95 227l-388 1016h103l309 -834c6.66699 -18 11.334 -31.667 14.001 -41
c2.66699 -12.667 5.66699 -24 9 -34h4l24 69l330 840h100zM447.997 1188h-90l234 328h104z" />
    <glyph glyph-name="thorn" unicode="&#xfe;" horiz-adv-x="1147" 
d="M260 182h-4.00098v-653h-92v1987h92v-703h4c36.667 75.333 89.167 133.5 157.5 174.5s143.5 61.5 225.5 61.5c130 0 231.5 -44.833 304.5 -134.5s109.5 -211.5 109.5 -365.5c0 -171.333 -41.833 -309.833 -125.5 -415.5s-194.167 -158.5 -331.5 -158.5
c-153.333 0 -266.666 69 -339.999 207zM255.999 563l-0.000976562 -128.999c0 -102.667 32.333 -190.834 97 -264.501s149.667 -110.5 255 -110.5c104.667 0 189.667 44.833 255 134.5s98 207.5 98 353.5c0 128 -30 229.667 -90 305s-140 113 -240 113
c-119.333 0 -211.666 -40 -276.999 -120s-98 -174 -98 -282z" />
    <glyph glyph-name="ydieresis" unicode="&#xff;" horiz-adv-x="928" 
d="M414 -209c-37.333 -92 -78.6689 -160.333 -124.002 -205s-103.666 -67 -174.999 -67c-30 0 -56.667 4.66699 -80 14v92c24 -9.33301 52 -14 84 -14c82 0 146.667 56.667 194 170l95 227l-388 1016h103l309 -834c6.66699 -18 11.334 -31.667 14.001 -41
c2.66699 -12.667 5.66699 -24 9 -34h4l24 69l330 840h100zM635.997 1188c-18 0 -34.332 6.5 -48.999 19.5s-22 30.5 -22 52.5c0 20.667 7.16699 37.334 21.5 50.001s30.166 19 47.499 19c19.333 0 36.833 -6.5 52.5 -19.5s23.5 -29.5 23.5 -49.5
c0 -20.667 -7.16699 -37.834 -21.5 -51.501s-31.833 -20.5 -52.5 -20.5zM302.998 1188c-18.667 0 -35.332 6.5 -49.999 19.5s-22 30.5 -22 52.5c0 20.667 7.33301 37.334 22 50.001s30.667 19 48 19c19.333 0 36.666 -6.5 51.999 -19.5s23 -29.5 23 -49.5
c0 -20.667 -7 -37.834 -21 -51.501s-31.333 -20.5 -52 -20.5z" />
    <glyph glyph-name="Amacron" unicode="&#x100;" horiz-adv-x="1288" 
d="M1118 0l-164 446h-622l-164 -446h-109l541 1434h94l535 -1434h-111zM678 1200c-7.33301 20 -13.333 39.666 -18 58.999c-4.66699 16.667 -9.66699 33.334 -15 50.001h-4c-11.333 -44 -22.333 -79.667 -33 -107l-241 -665h553zM388 1536v84h508v-84h-508z" />
    <glyph glyph-name="amacron" unicode="&#x101;" horiz-adv-x="1012" 
d="M776 0l0.000976562 205h-4c-32.667 -70 -80.167 -125.833 -142.5 -167.5s-131.5 -62.5 -207.5 -62.5c-97.333 0 -174.333 27.333 -231 82s-85 123.667 -85 207c0 178.667 118.333 286.667 355 324l315 47c0 220 -82.667 330 -248 330
c-112.667 0 -222.334 -45.333 -329.001 -136v111c38 30 89.5 55.667 154.5 77s126.167 32 183.5 32c105.333 0 186.833 -32.667 244.5 -98s86.5 -160.333 86.5 -285v-666h-92zM494.001 510c-107.333 -15.333 -182.667 -40.168 -226 -74.501s-65 -90.166 -65 -167.499
c0 -60.667 20.167 -110.667 60.5 -150s96.5 -59 168.5 -59c98.667 0 180.667 36.5 246 109.5s98 167.167 98 282.5v100zM267 1188v84h508v-84h-508z" />
    <glyph glyph-name="Abreve" unicode="&#x102;" horiz-adv-x="1288" 
d="M1118 0l-164 446h-622l-164 -446h-109l541 1434h94l535 -1434h-111zM678 1200c-7.33301 20 -13.333 39.666 -18 58.999c-4.66699 16.667 -9.66699 33.334 -15 50.001h-4c-11.333 -44 -22.333 -79.667 -33 -107l-241 -665h553zM919 1772
c-10.667 -72 -40.501 -129.167 -89.501 -171.5s-109.833 -63.5 -182.5 -63.5c-73.333 0 -134.166 20.667 -182.499 62s-75.5 99 -81.5 173h84c4 -50 22.5 -89 55.5 -117s75.167 -42 126.5 -42c45.333 0 85.5 14.5 120.5 43.5s55.5 67.5 61.5 115.5h88z" />
    <glyph glyph-name="abreve" unicode="&#x103;" horiz-adv-x="1012" 
d="M776 0l0.000976562 205h-4c-32.667 -70 -80.167 -125.833 -142.5 -167.5s-131.5 -62.5 -207.5 -62.5c-97.333 0 -174.333 27.333 -231 82s-85 123.667 -85 207c0 178.667 118.333 286.667 355 324l315 47c0 220 -82.667 330 -248 330
c-112.667 0 -222.334 -45.333 -329.001 -136v111c38 30 89.5 55.667 154.5 77s126.167 32 183.5 32c105.333 0 186.833 -32.667 244.5 -98s86.5 -160.333 86.5 -285v-666h-92zM494.001 510c-107.333 -15.333 -182.667 -40.168 -226 -74.501s-65 -90.166 -65 -167.499
c0 -60.667 20.167 -110.667 60.5 -150s96.5 -59 168.5 -59c98.667 0 180.667 36.5 246 109.5s98 167.167 98 282.5v100zM784 1423c-10.667 -72 -40.501 -129.167 -89.501 -171.5s-109.833 -63.5 -182.5 -63.5c-73.333 0 -134.166 20.667 -182.499 62s-75.5 99 -81.5 173h84
c4 -50 22.5 -89 55.5 -117s75.167 -42 126.5 -42c45.333 0 85.5 14.5 120.5 43.5s55.5 67.5 61.5 115.5h88z" />
    <glyph glyph-name="Aogonek" unicode="&#x104;" horiz-adv-x="1288" 
d="M1118 0l-164 446h-622l-164 -446h-109l541 1434h94l535 -1434h-111zM678 1200c-7.33301 20 -13.333 39.666 -18 58.999c-4.66699 16.667 -9.66699 33.334 -15 50.001h-4c-11.333 -44 -22.333 -79.667 -33 -107l-241 -665h553zM1206 -0.000976562
c-113.333 -90 -169.998 -170.001 -169.998 -240.001c0 -58.667 28 -88 84 -88c25.333 0 52 5.66699 80 17v-70c-32.667 -12 -64 -18 -94 -18c-46.667 0 -84.334 13.5 -113.001 40.5s-43 64.5 -43 112.5c0 36.667 14.167 77.334 42.5 122.001s70.166 86 125.499 124h88z" />
    <glyph glyph-name="aogonek" unicode="&#x105;" horiz-adv-x="1012" 
d="M776 0l0.000976562 205h-4c-32.667 -70 -80.167 -125.833 -142.5 -167.5s-131.5 -62.5 -207.5 -62.5c-97.333 0 -174.333 27.333 -231 82s-85 123.667 -85 207c0 178.667 118.333 286.667 355 324l315 47c0 220 -82.667 330 -248 330
c-112.667 0 -222.334 -45.333 -329.001 -136v111c38 30 89.5 55.667 154.5 77s126.167 32 183.5 32c105.333 0 186.833 -32.667 244.5 -98s86.5 -160.333 86.5 -285v-666h-92zM494.001 510c-107.333 -15.333 -182.667 -40.168 -226 -74.501s-65 -90.166 -65 -167.499
c0 -60.667 20.167 -110.667 60.5 -150s96.5 -59 168.5 -59c98.667 0 180.667 36.5 246 109.5s98 167.167 98 282.5v100zM864 -0.00195312c-113.333 -90 -169.998 -170.001 -169.998 -240.001c0 -58.667 28 -88 84 -88c25.333 0 52 5.66699 80 17v-70
c-32.667 -12 -64 -18 -94 -18c-46.667 0 -84.334 13.5 -113.001 40.5s-43 64.5 -43 112.5c0 36.667 14.167 77.334 42.5 122.001s70.166 86 125.499 124h88z" />
    <glyph glyph-name="Cacute" unicode="&#x106;" horiz-adv-x="1272" 
d="M1137 47c-116 -48 -237 -72 -363 -72c-196 0 -355.833 65.833 -479.5 197.5s-185.5 303.5 -185.5 515.5c0 232.667 67 419.167 201 559.5s304.333 210.5 511 210.5c110 0 215.333 -17.667 316 -53v-105c-100.667 45.333 -206.667 68 -318 68
c-180 0 -326.333 -61 -439 -183s-169 -284.333 -169 -487c0 -195.333 53.833 -349.5 161.5 -462.5s244.167 -169.5 409.5 -169.5c132 0 250.333 25.667 355 77v-96zM696 1536h-90l234 328h104z" />
    <glyph glyph-name="cacute" unicode="&#x107;" horiz-adv-x="909" 
d="M827 45c-76 -46.667 -166.669 -70.002 -272.002 -70.002c-139.333 0 -251.666 47.833 -336.999 143.5s-128 220.834 -128 375.501c0 162.667 48 295.834 144 399.501s219.333 155.5 370 155.5c78 0 153.667 -16 227 -48v-104c-73.333 45.333 -153.666 68 -240.999 68
c-120 0 -217.333 -43.167 -292 -129.5s-112 -198.166 -112 -335.499c0 -132.667 34.167 -239.334 102.5 -320.001s158.5 -121 270.5 -121c102.667 0 192 27.333 268 82v-96zM509.998 1188h-90l234 328h104z" />
    <glyph glyph-name="Ccircumflex" unicode="&#x108;" horiz-adv-x="1272" 
d="M1137 47c-116 -48 -237 -72 -363 -72c-196 0 -355.833 65.833 -479.5 197.5s-185.5 303.5 -185.5 515.5c0 232.667 67 419.167 201 559.5s304.333 210.5 511 210.5c110 0 215.333 -17.667 316 -53v-105c-100.667 45.333 -206.667 68 -318 68
c-180 0 -326.333 -61 -439 -183s-169 -284.333 -169 -487c0 -195.333 53.833 -349.5 161.5 -462.5s244.167 -169.5 409.5 -169.5c132 0 250.333 25.667 355 77v-96zM920 1537l-157 239l-160 -239h-82l221 336h45l219 -336h-86z" />
    <glyph glyph-name="ccircumflex" unicode="&#x109;" horiz-adv-x="909" 
d="M827 45c-76 -46.667 -166.669 -70.002 -272.002 -70.002c-139.333 0 -251.666 47.833 -336.999 143.5s-128 220.834 -128 375.501c0 162.667 48 295.834 144 399.501s219.333 155.5 370 155.5c78 0 153.667 -16 227 -48v-104c-73.333 45.333 -153.666 68 -240.999 68
c-120 0 -217.333 -43.167 -292 -129.5s-112 -198.166 -112 -335.499c0 -132.667 34.167 -239.334 102.5 -320.001s158.5 -121 270.5 -121c102.667 0 192 27.333 268 82v-96zM703.998 1188l-157 239l-160 -239h-82l221 336h45l219 -336h-86z" />
    <glyph glyph-name="Cdotaccent" unicode="&#x10a;" horiz-adv-x="1272" 
d="M1137 47c-116 -48 -237 -72 -363 -72c-196 0 -355.833 65.833 -479.5 197.5s-185.5 303.5 -185.5 515.5c0 232.667 67 419.167 201 559.5s304.333 210.5 511 210.5c110 0 215.333 -17.667 316 -53v-105c-100.667 45.333 -206.667 68 -318 68
c-180 0 -326.333 -61 -439 -183s-169 -284.333 -169 -487c0 -195.333 53.833 -349.5 161.5 -462.5s244.167 -169.5 409.5 -169.5c132 0 250.333 25.667 355 77v-96zM767 1536c-20.667 0 -38.834 7.33105 -54.501 21.998s-23.5 33.334 -23.5 56.001s7.83301 40.5 23.5 53.5
s33.167 19.5 52.5 19.5c20.667 0 39.167 -6.5 55.5 -19.5s24.5 -30.833 24.5 -53.5c0 -21.333 -7.66699 -39.666 -23 -54.999s-33.666 -23 -54.999 -23z" />
    <glyph glyph-name="cdotaccent" unicode="&#x10b;" horiz-adv-x="909" 
d="M827 45c-76 -46.667 -166.669 -70.002 -272.002 -70.002c-139.333 0 -251.666 47.833 -336.999 143.5s-128 220.834 -128 375.501c0 162.667 48 295.834 144 399.501s219.333 155.5 370 155.5c78 0 153.667 -16 227 -48v-104c-73.333 45.333 -153.666 68 -240.999 68
c-120 0 -217.333 -43.167 -292 -129.5s-112 -198.166 -112 -335.499c0 -132.667 34.167 -239.334 102.5 -320.001s158.5 -121 270.5 -121c102.667 0 192 27.333 268 82v-96zM559.998 1188c-20.667 0 -38.834 7.33105 -54.501 21.998s-23.5 33.334 -23.5 56.001
s7.83301 40.5 23.5 53.5s33.167 19.5 52.5 19.5c20.667 0 39.167 -6.5 55.5 -19.5s24.5 -30.833 24.5 -53.5c0 -21.333 -7.66699 -39.666 -23 -54.999s-33.666 -23 -54.999 -23z" />
    <glyph glyph-name="Ccaron" unicode="&#x10c;" horiz-adv-x="1272" 
d="M1137 47c-116 -48 -237 -72 -363 -72c-196 0 -355.833 65.833 -479.5 197.5s-185.5 303.5 -185.5 515.5c0 232.667 67 419.167 201 559.5s304.333 210.5 511 210.5c110 0 215.333 -17.667 316 -53v-105c-100.667 45.333 -206.667 68 -318 68
c-180 0 -326.333 -61 -439 -183s-169 -284.333 -169 -487c0 -195.333 53.833 -349.5 161.5 -462.5s244.167 -169.5 409.5 -169.5c132 0 250.333 25.667 355 77v-96zM802 1536h-45l-220 336h86l158 -240l160 240h82z" />
    <glyph glyph-name="ccaron" unicode="&#x10d;" horiz-adv-x="909" 
d="M827 45c-76 -46.667 -166.669 -70.002 -272.002 -70.002c-139.333 0 -251.666 47.833 -336.999 143.5s-128 220.834 -128 375.501c0 162.667 48 295.834 144 399.501s219.333 155.5 370 155.5c78 0 153.667 -16 227 -48v-104c-73.333 45.333 -153.666 68 -240.999 68
c-120 0 -217.333 -43.167 -292 -129.5s-112 -198.166 -112 -335.499c0 -132.667 34.167 -239.334 102.5 -320.001s158.5 -121 270.5 -121c102.667 0 192 27.333 268 82v-96zM597.998 1188h-45l-220 336h86l158 -240l160 240h82z" />
    <glyph glyph-name="Dcaron" unicode="&#x10e;" horiz-adv-x="1380" 
d="M184 0v1434h359c238 0 419 -59.333 543 -178s186 -291.667 186 -519c0 -218.667 -66.5 -396.167 -199.5 -532.5s-316.5 -204.5 -550.5 -204.5h-338zM283 1343v-1253h225c212.667 0 376 55.167 490 165.5s171 269.5 171 477.5c0 406.667 -213.667 610 -641 610h-245z
M691 1536h-45l-220 336h86l158 -240l160 240h82z" />
    <glyph glyph-name="dcaron" unicode="&#x10f;" horiz-adv-x="1254" 
d="M891 0v186.001h-4c-33.333 -64.667 -82.666 -116 -147.999 -154s-139 -57 -221 -57c-126 0 -228.833 46 -308.5 138s-119.5 219 -119.5 381c0 165.333 43.5 299.166 130.5 401.499s199.833 153.5 338.5 153.5c153.333 0 262.666 -63 327.999 -189h4v656h92v-1516h-92z
M891 623.001c0 95.333 -30.167 176.167 -90.5 242.5s-141.5 99.5 -243.5 99.5c-107.333 0 -196 -41.167 -266 -123.5s-105 -195.5 -105 -339.5c0 -141.333 31.5 -250.5 94.5 -327.5s144.167 -115.5 243.5 -115.5c116.667 0 207 36.167 271 108.5s96 160.5 96 264.5v191z
M1301 1516l-126 -261h-79l93 261h112z" />
    <glyph glyph-name="Dcroat" unicode="&#x110;" horiz-adv-x="1380" 
d="M184 0l-0.00195312 668h-149v88h149v678h359c238.667 0 419.834 -59.167 543.501 -177.5s185.5 -291.5 185.5 -519.5c0 -221.333 -67.167 -399.5 -201.5 -534.5s-317.166 -202.5 -548.499 -202.5h-338zM282.998 1343v-587h403v-88h-403v-578h225
c212 0 375.167 55 489.5 165s171.5 269.333 171.5 478c0 406.667 -213.667 610 -641 610h-245z" />
    <glyph glyph-name="dcroat" unicode="&#x111;" horiz-adv-x="1147" 
d="M891 0v186.001h-4c-33.333 -64.667 -82.666 -116 -147.999 -154s-139 -57 -221 -57c-126 0 -228.833 46 -308.5 138s-119.5 219 -119.5 381c0 165.333 43.5 299.166 130.5 401.499s199.833 153.5 338.5 153.5c153.333 0 262.666 -63 327.999 -189h4v371h-335v84h335v201
h92v-201h135v-84h-135v-1231h-92zM891 623.001c0 95.333 -30.167 176.167 -90.5 242.5s-141.5 99.5 -243.5 99.5c-107.333 0 -196 -41.167 -266 -123.5s-105 -195.5 -105 -339.5c0 -141.333 31.5 -250.5 94.5 -327.5s144.167 -115.5 243.5 -115.5
c116.667 0 207 36.167 271 108.5s96 160.5 96 264.5v191z" />
    <glyph glyph-name="Emacron" unicode="&#x112;" horiz-adv-x="1024" 
d="M184 0v1434h670v-91h-571v-575h530v-90h-530v-588h604v-90h-703zM273 1535v84h508v-84h-508z" />
    <glyph glyph-name="emacron" unicode="&#x113;" horiz-adv-x="1034" 
d="M186 508c0 -140.667 32.5 -250.667 97.5 -330s154.167 -119 267.5 -119c114.667 0 226.667 42.333 336 127v-98c-106 -75.333 -224.333 -113 -355 -113c-132 0 -238.667 47.333 -320 142s-122 228.334 -122 401.001c0 149.333 42.5 275.166 127.5 377.499
s195.5 153.5 331.5 153.5c127.333 0 225 -44.667 293 -134s102 -211.333 102 -366v-41h-758zM848 592c-4 118 -32.332 209.667 -84.999 275s-125.334 98 -218.001 98c-96 0 -175.5 -32.167 -238.5 -96.5s-101.833 -156.5 -116.5 -276.5h658zM285.001 1188v84h508v-84h-508z
" />
    <glyph glyph-name="Ebreve" unicode="&#x114;" horiz-adv-x="1024" 
d="M184 0v1434h670v-91h-571v-575h530v-90h-530v-588h604v-90h-703zM805 1772c-10.667 -72 -40.501 -129.167 -89.501 -171.5s-109.833 -63.5 -182.5 -63.5c-73.333 0 -134.166 20.667 -182.499 62s-75.5 99 -81.5 173h84c4 -50 22.5 -89 55.5 -117s75.167 -42 126.5 -42
c45.333 0 85.5 14.5 120.5 43.5s55.5 67.5 61.5 115.5h88z" />
    <glyph glyph-name="ebreve" unicode="&#x115;" horiz-adv-x="1034" 
d="M186 508c0 -140.667 32.5 -250.667 97.5 -330s154.167 -119 267.5 -119c114.667 0 226.667 42.333 336 127v-98c-106 -75.333 -224.333 -113 -355 -113c-132 0 -238.667 47.333 -320 142s-122 228.334 -122 401.001c0 149.333 42.5 275.166 127.5 377.499
s195.5 153.5 331.5 153.5c127.333 0 225 -44.667 293 -134s102 -211.333 102 -366v-41h-758zM848 592c-4 118 -32.332 209.667 -84.999 275s-125.334 98 -218.001 98c-96 0 -175.5 -32.167 -238.5 -96.5s-101.833 -156.5 -116.5 -276.5h658zM810.001 1423
c-10.667 -72 -40.501 -129.167 -89.501 -171.5s-109.833 -63.5 -182.5 -63.5c-73.333 0 -134.166 20.667 -182.499 62s-75.5 99 -81.5 173h84c4 -50 22.5 -89 55.5 -117s75.167 -42 126.5 -42c45.333 0 85.5 14.5 120.5 43.5s55.5 67.5 61.5 115.5h88z" />
    <glyph glyph-name="Edotaccent" unicode="&#x116;" horiz-adv-x="1024" 
d="M184 0v1434h670v-91h-571v-575h530v-90h-530v-588h604v-90h-703zM524 1536c-20.667 0 -38.834 7.33105 -54.501 21.998s-23.5 33.334 -23.5 56.001s7.83301 40.5 23.5 53.5s33.167 19.5 52.5 19.5c20.667 0 39.167 -6.5 55.5 -19.5s24.5 -30.833 24.5 -53.5
c0 -21.333 -7.66699 -39.666 -23 -54.999s-33.666 -23 -54.999 -23z" />
    <glyph glyph-name="edotaccent" unicode="&#x117;" horiz-adv-x="1034" 
d="M186 508c0 -140.667 32.5 -250.667 97.5 -330s154.167 -119 267.5 -119c114.667 0 226.667 42.333 336 127v-98c-106 -75.333 -224.333 -113 -355 -113c-132 0 -238.667 47.333 -320 142s-122 228.334 -122 401.001c0 149.333 42.5 275.166 127.5 377.499
s195.5 153.5 331.5 153.5c127.333 0 225 -44.667 293 -134s102 -211.333 102 -366v-41h-758zM848 592c-4 118 -32.332 209.667 -84.999 275s-125.334 98 -218.001 98c-96 0 -175.5 -32.167 -238.5 -96.5s-101.833 -156.5 -116.5 -276.5h658zM541.001 1188
c-20.667 0 -38.834 7.33105 -54.501 21.998s-23.5 33.334 -23.5 56.001s7.83301 40.5 23.5 53.5s33.167 19.5 52.5 19.5c20.667 0 39.167 -6.5 55.5 -19.5s24.5 -30.833 24.5 -53.5c0 -21.333 -7.66699 -39.666 -23 -54.999s-33.666 -23 -54.999 -23z" />
    <glyph glyph-name="Eogonek" unicode="&#x118;" horiz-adv-x="1024" 
d="M184 0v1434h670v-91h-571v-575h530v-90h-530v-588h604v-90h-703zM845 0c-113.333 -90 -169.998 -170.001 -169.998 -240.001c0 -58.667 28 -88 84 -88c25.333 0 52 5.66699 80 17v-70c-32.667 -12 -64 -18 -94 -18c-46.667 0 -84.334 13.5 -113.001 40.5
s-43 64.5 -43 112.5c0 36.667 14.167 77.334 42.5 122.001s70.166 86 125.499 124h88z" />
    <glyph glyph-name="eogonek" unicode="&#x119;" horiz-adv-x="1034" 
d="M186 508c0 -140.667 32.5 -250.667 97.5 -330s154.167 -119 267.5 -119c114.667 0 226.667 42.333 336 127v-98c-106 -75.333 -224.333 -113 -355 -113c-132 0 -238.667 47.333 -320 142s-122 228.334 -122 401.001c0 149.333 42.5 275.166 127.5 377.499
s195.5 153.5 331.5 153.5c127.333 0 225 -44.667 293 -134s102 -211.333 102 -366v-41h-758zM848 592c-4 118 -32.332 209.667 -84.999 275s-125.334 98 -218.001 98c-96 0 -175.5 -32.167 -238.5 -96.5s-101.833 -156.5 -116.5 -276.5h658zM675.001 0
c-113.333 -90 -169.998 -170.001 -169.998 -240.001c0 -58.667 28 -88 84 -88c25.333 0 52 5.66699 80 17v-70c-32.667 -12 -64 -18 -94 -18c-46.667 0 -84.334 13.5 -113.001 40.5s-43 64.5 -43 112.5c0 36.667 14.167 77.334 42.5 122.001s70.166 86 125.499 124h88z" />
    <glyph glyph-name="Ecaron" unicode="&#x11a;" horiz-adv-x="1024" 
d="M184 0v1434h670v-91h-571v-575h530v-90h-530v-588h604v-90h-703zM542 1536h-45l-220 336h86l158 -240l160 240h82z" />
    <glyph glyph-name="ecaron" unicode="&#x11b;" horiz-adv-x="1034" 
d="M186 508c0 -140.667 32.5 -250.667 97.5 -330s154.167 -119 267.5 -119c114.667 0 226.667 42.333 336 127v-98c-106 -75.333 -224.333 -113 -355 -113c-132 0 -238.667 47.333 -320 142s-122 228.334 -122 401.001c0 149.333 42.5 275.166 127.5 377.499
s195.5 153.5 331.5 153.5c127.333 0 225 -44.667 293 -134s102 -211.333 102 -366v-41h-758zM848 592c-4 118 -32.332 209.667 -84.999 275s-125.334 98 -218.001 98c-96 0 -175.5 -32.167 -238.5 -96.5s-101.833 -156.5 -116.5 -276.5h658zM556.001 1188h-45l-220 336h86
l158 -240l160 240h82z" />
    <glyph glyph-name="Gcircumflex" unicode="&#x11c;" horiz-adv-x="1368" 
d="M1221 100c-148 -83.333 -300.331 -125.001 -456.998 -125.001c-195.333 0 -353.333 66.333 -474 199s-181 306.667 -181 522c0 217.333 65 398.666 195 543.999s303.667 218 521 218c126 0 248.333 -25.333 367 -76v-108c-130 62.667 -257 94 -381 94
c-180.667 0 -325.834 -61.667 -435.501 -185s-164.5 -280.666 -164.5 -471.999c0 -201.333 51.5 -359.166 154.5 -473.499s241.833 -171.5 416.5 -171.5c129.333 0 242.666 28 339.999 84v473h-338v90h437v-613zM934.002 1538l-157 239l-160 -239h-82l221 336h45l219 -336
h-86z" />
    <glyph glyph-name="gcircumflex" unicode="&#x11d;" horiz-adv-x="1147" 
d="M983 76c0 -192.667 -41.999 -333.665 -125.999 -422.998s-214.667 -134 -392 -134c-98.667 0 -200.334 26 -305.001 78v96c108 -60 210.333 -90 307 -90c282.667 0 424 149.333 424 448v133h-4c-80.667 -139.333 -203.667 -209 -369 -209
c-126 0 -228.833 45.667 -308.5 137s-119.5 218.666 -119.5 381.999s43 296.666 129 399.999s199.333 155 340 155c150.667 0 260 -62.333 328 -187h4v162h92v-948zM891.001 631.002c0 90.667 -30.499 169.001 -91.499 235.001s-140.5 99 -238.5 99
c-112.667 0 -203.334 -42.333 -272.001 -127s-103 -196.667 -103 -336c0 -140 31.5 -248.833 94.5 -326.5s146.167 -116.5 249.5 -116.5c110 0 197.667 35.667 263 107s98 158.666 98 261.999v203zM729.002 1188l-157 239l-160 -239h-82l221 336h45l219 -336h-86z" />
    <glyph glyph-name="Gbreve" unicode="&#x11e;" horiz-adv-x="1368" 
d="M1221 100c-148 -83.333 -300.331 -125.001 -456.998 -125.001c-195.333 0 -353.333 66.333 -474 199s-181 306.667 -181 522c0 217.333 65 398.666 195 543.999s303.667 218 521 218c126 0 248.333 -25.333 367 -76v-108c-130 62.667 -257 94 -381 94
c-180.667 0 -325.834 -61.667 -435.501 -185s-164.5 -280.666 -164.5 -471.999c0 -201.333 51.5 -359.166 154.5 -473.499s241.833 -171.5 416.5 -171.5c129.333 0 242.666 28 339.999 84v473h-338v90h437v-613zM1054 1770c-10.667 -72 -40.501 -129.167 -89.501 -171.5
s-109.833 -63.5 -182.5 -63.5c-73.333 0 -134.166 20.667 -182.499 62s-75.5 99 -81.5 173h84c4 -50 22.5 -89 55.5 -117s75.167 -42 126.5 -42c45.333 0 85.5 14.5 120.5 43.5s55.5 67.5 61.5 115.5h88z" />
    <glyph glyph-name="gbreve" unicode="&#x11f;" horiz-adv-x="1147" 
d="M983 76c0 -192.667 -41.999 -333.665 -125.999 -422.998s-214.667 -134 -392 -134c-98.667 0 -200.334 26 -305.001 78v96c108 -60 210.333 -90 307 -90c282.667 0 424 149.333 424 448v133h-4c-80.667 -139.333 -203.667 -209 -369 -209
c-126 0 -228.833 45.667 -308.5 137s-119.5 218.666 -119.5 381.999s43 296.666 129 399.999s199.333 155 340 155c150.667 0 260 -62.333 328 -187h4v162h92v-948zM891.001 631.002c0 90.667 -30.499 169.001 -91.499 235.001s-140.5 99 -238.5 99
c-112.667 0 -203.334 -42.333 -272.001 -127s-103 -196.667 -103 -336c0 -140 31.5 -248.833 94.5 -326.5s146.167 -116.5 249.5 -116.5c110 0 197.667 35.667 263 107s98 158.666 98 261.999v203zM846.002 1423c-10.667 -72 -40.501 -129.167 -89.501 -171.5
s-109.833 -63.5 -182.5 -63.5c-73.333 0 -134.166 20.667 -182.499 62s-75.5 99 -81.5 173h84c4 -50 22.5 -89 55.5 -117s75.167 -42 126.5 -42c45.333 0 85.5 14.5 120.5 43.5s55.5 67.5 61.5 115.5h88z" />
    <glyph glyph-name="Gdotaccent" unicode="&#x120;" horiz-adv-x="1368" 
d="M1221 100c-148 -83.333 -300.331 -125.001 -456.998 -125.001c-195.333 0 -353.333 66.333 -474 199s-181 306.667 -181 522c0 217.333 65 398.666 195 543.999s303.667 218 521 218c126 0 248.333 -25.333 367 -76v-108c-130 62.667 -257 94 -381 94
c-180.667 0 -325.834 -61.667 -435.501 -185s-164.5 -280.666 -164.5 -471.999c0 -201.333 51.5 -359.166 154.5 -473.499s241.833 -171.5 416.5 -171.5c129.333 0 242.666 28 339.999 84v473h-338v90h437v-613zM772.002 1536c-20.667 0 -38.834 7.33105 -54.501 21.998
s-23.5 33.334 -23.5 56.001s7.83301 40.5 23.5 53.5s33.167 19.5 52.5 19.5c20.667 0 39.167 -6.5 55.5 -19.5s24.5 -30.833 24.5 -53.5c0 -21.333 -7.66699 -39.666 -23 -54.999s-33.666 -23 -54.999 -23z" />
    <glyph glyph-name="gdotaccent" unicode="&#x121;" horiz-adv-x="1147" 
d="M983 76c0 -192.667 -41.999 -333.665 -125.999 -422.998s-214.667 -134 -392 -134c-98.667 0 -200.334 26 -305.001 78v96c108 -60 210.333 -90 307 -90c282.667 0 424 149.333 424 448v133h-4c-80.667 -139.333 -203.667 -209 -369 -209
c-126 0 -228.833 45.667 -308.5 137s-119.5 218.666 -119.5 381.999s43 296.666 129 399.999s199.333 155 340 155c150.667 0 260 -62.333 328 -187h4v162h92v-948zM891.001 631.002c0 90.667 -30.499 169.001 -91.499 235.001s-140.5 99 -238.5 99
c-112.667 0 -203.334 -42.333 -272.001 -127s-103 -196.667 -103 -336c0 -140 31.5 -248.833 94.5 -326.5s146.167 -116.5 249.5 -116.5c110 0 197.667 35.667 263 107s98 158.666 98 261.999v203zM558.002 1188c-20.667 0 -38.834 7.33105 -54.501 21.998
s-23.5 33.334 -23.5 56.001s7.83301 40.5 23.5 53.5s33.167 19.5 52.5 19.5c20.667 0 39.167 -6.5 55.5 -19.5s24.5 -30.833 24.5 -53.5c0 -21.333 -7.66699 -39.666 -23 -54.999s-33.666 -23 -54.999 -23z" />
    <glyph glyph-name="Gcommaaccent" unicode="&#x122;" horiz-adv-x="1368" 
d="M1221 100c-148 -83.333 -300.331 -125.001 -456.998 -125.001c-195.333 0 -353.333 66.333 -474 199s-181 306.667 -181 522c0 217.333 65 398.666 195 543.999s303.667 218 521 218c126 0 248.333 -25.333 367 -76v-108c-130 62.667 -257 94 -381 94
c-180.667 0 -325.834 -61.667 -435.501 -185s-164.5 -280.666 -164.5 -471.999c0 -201.333 51.5 -359.166 154.5 -473.499s241.833 -171.5 416.5 -171.5c129.333 0 242.666 28 339.999 84v473h-338v90h437v-613zM658.002 -430.001l-0.000976562 74c33.333 -4 62 -6 86 -6
c106.667 0 160 30.667 160 92c0 57.333 -48.333 86 -145 86c-21.333 0 -42.666 -1.33301 -63.999 -4v188h72v-117c150 0 225 -49 225 -147c0 -113.333 -84.667 -170 -254 -170c-24 0 -50.667 1.33301 -80 4z" />
    <glyph glyph-name="gcommaaccent" unicode="&#x123;" horiz-adv-x="1147" 
d="M470 1219l126 261h79l-93 -261h-112zM983 76c0 -192.667 -41.999 -333.665 -125.999 -422.998s-214.667 -134 -392 -134c-98.667 0 -200.334 26 -305.001 78v96c108 -60 210.333 -90 307 -90c282.667 0 424 149.333 424 448v133h-4
c-80.667 -139.333 -203.667 -209 -369 -209c-126 0 -228.833 45.667 -308.5 137s-119.5 218.666 -119.5 381.999s43 296.666 129 399.999s199.333 155 340 155c150.667 0 260 -62.333 328 -187h4v162h92v-948zM891.001 631.002c0 90.667 -30.499 169.001 -91.499 235.001
s-140.5 99 -238.5 99c-112.667 0 -203.334 -42.333 -272.001 -127s-103 -196.667 -103 -336c0 -140 31.5 -248.833 94.5 -326.5s146.167 -116.5 249.5 -116.5c110 0 197.667 35.667 263 107s98 158.666 98 261.999v203z" />
    <glyph glyph-name="Hcircumflex" unicode="&#x124;" horiz-adv-x="1386" 
d="M1104 0v688h-821v-688h-99v1434h99v-656h821v656h98v-1434h-98zM848 1536l-157 239l-160 -239h-82l221 336h45l219 -336h-86z" />
    <glyph glyph-name="hcircumflex" unicode="&#x125;" horiz-adv-x="1096" 
d="M860 0v614c0 121.333 -22 210.166 -66 266.499s-112.667 84.5 -206 84.5c-88 0 -165.333 -34.333 -232 -103s-100 -167 -100 -295v-567h-92v1516h92v-676h4c80.667 139.333 198 209 352 209c110.667 0 195 -35.667 253 -107s87 -173.666 87 -306.999v-635h-92zM731 1617
l-157 239l-160 -239h-82l221 336h45l219 -336h-86z" />
    <glyph glyph-name="Hbar" unicode="&#x126;" horiz-adv-x="1386" 
d="M61 1045v91h123v298h99v-298h821v298h98v-298h123v-91h-123v-1045h-98v688h-821v-688h-99v1045h-123zM1104 778v267h-821v-267h821z" />
    <glyph glyph-name="hbar" unicode="&#x127;" horiz-adv-x="1096" 
d="M883 0l-0.00292969 590.001c0 120.667 -22.167 209.167 -66.5 265.5s-113.166 84.5 -206.499 84.5c-19.333 0 -41 -2.5 -65 -7.5s-48.167 -13.5 -72.5 -25.5s-48.166 -28 -71.499 -48s-44 -44.667 -62 -74s-32.5 -64 -43.5 -104s-16.5 -86 -16.5 -138v-543h-93v1231h-135
v84h135v201h93v-201h389v-84h-389v-416h4c16 29.333 35.5 56.666 58.5 81.999s49.167 47.5 78.5 66.5s61.833 33.833 97.5 44.5s74.834 16 117.501 16c57.333 0 107.333 -9.5 150 -28.5s78 -46.333 106 -82s49 -79 63 -130s21 -108.833 21 -173.5v-610h-92z" />
    <glyph glyph-name="Itilde" unicode="&#x128;" horiz-adv-x="463" 
d="M421 1434v-90h-140v-1254h140v-90h-379v90h140v1254h-140v90h379zM545 1769c0 -68.667 -16.167 -123 -48.5 -163s-75.833 -60 -130.5 -60c-44 0 -94.333 25.333 -151 76c-42.667 36.667 -82.334 55 -119.001 55c-68 0 -102 -47.667 -102 -143h-72
c0 66.667 16 120.167 48 160.5s74.667 60.5 128 60.5c48 0 101.333 -24 160 -72c44.667 -39.333 83.667 -59 117 -59c26.667 0 49.334 12.333 68.001 37s28 60.667 28 108h74z" />
    <glyph glyph-name="itilde" unicode="&#x129;" horiz-adv-x="420" 
d="M164 0v1024h92v-1024h-92zM524 1423c0 -68.667 -16.167 -123 -48.5 -163s-75.833 -60 -130.5 -60c-44 0 -94.333 25.333 -151 76c-42.667 36.667 -82.334 55 -119.001 55c-68 0 -102 -47.667 -102 -143h-72c0 66.667 16 120.167 48 160.5s74.667 60.5 128 60.5
c48 0 101.333 -24 160 -72c44.667 -39.333 83.667 -59 117 -59c26.667 0 49.334 12.333 68.001 37s28 60.667 28 108h74z" />
    <glyph glyph-name="Imacron" unicode="&#x12a;" horiz-adv-x="463" 
d="M421 1434v-90h-140v-1254h140v-90h-379v90h140v1254h-140v90h379zM-20 1536v84h508v-84h-508z" />
    <glyph glyph-name="imacron" unicode="&#x12b;" horiz-adv-x="420" 
d="M164 0v1024h92v-1024h-92zM-44 1188v84h508v-84h-508z" />
    <glyph glyph-name="Ibreve" unicode="&#x12c;" horiz-adv-x="463" 
d="M421 1434v-90h-140v-1254h140v-90h-379v90h140v1254h-140v90h379zM499 1771c-10.667 -72 -40.501 -129.167 -89.501 -171.5s-109.833 -63.5 -182.5 -63.5c-73.333 0 -134.166 20.667 -182.499 62s-75.5 99 -81.5 173h84c4 -50 22.5 -89 55.5 -117s75.167 -42 126.5 -42
c45.333 0 85.5 14.5 120.5 43.5s55.5 67.5 61.5 115.5h88z" />
    <glyph glyph-name="ibreve" unicode="&#x12d;" horiz-adv-x="420" 
d="M164 0v1024h92v-1024h-92zM478 1423c-10.667 -72 -40.501 -129.167 -89.501 -171.5s-109.833 -63.5 -182.5 -63.5c-73.333 0 -134.166 20.667 -182.499 62s-75.5 99 -81.5 173h84c4 -50 22.5 -89 55.5 -117s75.167 -42 126.5 -42c45.333 0 85.5 14.5 120.5 43.5
s55.5 67.5 61.5 115.5h88z" />
    <glyph glyph-name="Iogonek" unicode="&#x12e;" horiz-adv-x="463" 
d="M421 1434v-90h-140v-1254h140v-90h-379v90h140v1254h-140v90h379zM360 0c-113.333 -90 -169.998 -170.001 -169.998 -240.001c0 -58.667 28 -88 84 -88c25.333 0 52 5.66699 80 17v-70c-32.667 -12 -64 -18 -94 -18c-46.667 0 -84.334 13.5 -113.001 40.5
s-43 64.5 -43 112.5c0 36.667 14.167 77.334 42.5 122.001s70.166 86 125.499 124h88z" />
    <glyph glyph-name="iogonek" unicode="&#x12f;" horiz-adv-x="420" 
d="M209 1282c-20 0 -37.6689 7.33105 -53.002 21.998s-23 33.334 -23 56.001c0 22 7.83301 39.833 23.5 53.5s33.167 20.5 52.5 20.5c20.667 0 38.834 -6.66699 54.501 -20s23.5 -31.333 23.5 -54c0 -21.333 -7.66699 -39.666 -23 -54.999s-33.666 -23 -54.999 -23z
M163.998 -0.00195312v1024h92v-1024h-92zM257.998 -0.00195312c-113.333 -90 -169.998 -170.001 -169.998 -240.001c0 -58.667 28 -88 84 -88c25.333 0 52 5.66699 80 17v-70c-32.667 -12 -64 -18 -94 -18c-46.667 0 -84.334 13.5 -113.001 40.5s-43 64.5 -43 112.5
c0 36.667 14.167 77.334 42.5 122.001s70.166 86 125.499 124h88z" />
    <glyph glyph-name="Idotaccent" unicode="&#x130;" horiz-adv-x="463" 
d="M421 1434v-90h-140v-1254h140v-90h-379v90h140v1254h-140v90h379zM231 1537c-20.667 0 -38.834 7.33105 -54.501 21.998s-23.5 33.334 -23.5 56.001s7.83301 40.5 23.5 53.5s33.167 19.5 52.5 19.5c20.667 0 39.167 -6.5 55.5 -19.5s24.5 -30.833 24.5 -53.5
c0 -21.333 -7.66699 -39.666 -23 -54.999s-33.666 -23 -54.999 -23z" />
    <glyph glyph-name="dotlessi" unicode="&#x131;" horiz-adv-x="420" 
d="M164 0v1024h92v-1024h-92z" />
    <glyph glyph-name="IJ" unicode="&#x132;" horiz-adv-x="1151" 
d="M974 494c0 -346 -120.001 -519 -360.001 -519c-37.333 0 -73.666 5 -108.999 15v96c39.333 -13.333 76.333 -20 111 -20c92 0 158.333 34.833 199 104.5s61 178.167 61 325.5v938h98v-940zM420.999 1434v-90h-140v-1254h140v-90h-379v90h140v1254h-140v90h379z" />
    <glyph glyph-name="ij" unicode="&#x133;" horiz-adv-x="840" 
d="M209 1282c-20 0 -37.6689 7.33105 -53.002 21.998s-23 33.334 -23 56.001c0 22 7.83301 39.833 23.5 53.5s33.167 20.5 52.5 20.5c20.667 0 38.834 -6.66699 54.501 -20s23.5 -31.333 23.5 -54c0 -21.333 -7.66699 -39.666 -23 -54.999s-33.666 -23 -54.999 -23z
M163.998 -0.00195312v1024h92v-1024h-92zM628.998 1282c-20 0 -37.6689 7.33105 -53.002 21.998s-23 33.334 -23 56.001c0 22 7.83301 39.833 23.5 53.5s33.167 20.5 52.5 20.5c20.667 0 38.834 -6.66699 54.501 -20s23.5 -31.333 23.5 -54
c0 -21.333 -7.66699 -39.666 -23 -54.999s-33.666 -23 -54.999 -23zM675.996 28.9961c0 -340 -120.667 -510 -362 -510c-48 0 -96.667 11.667 -146 35v96c53.333 -31.333 105.333 -47 156 -47c173.333 0 260 136.333 260 409v1012h92v-995z" />
    <glyph glyph-name="Jcircumflex" unicode="&#x134;" horiz-adv-x="664" 
d="M487 494c0 -346 -120.001 -519 -360.001 -519c-37.333 0 -73.666 5 -108.999 15v96c39.333 -13.333 76.333 -20 111 -20c92 0 158.333 34.833 199 104.5s61 178.167 61 325.5v938h98v-940zM590.999 1536l-157 239l-160 -239h-82l221 336h45l219 -336h-86z" />
    <glyph glyph-name="jcircumflex" unicode="&#x135;" horiz-adv-x="420" 
d="M256 29c0 -340 -120.667 -510 -362 -510c-48 0 -96.667 11.667 -146 35v96c53.333 -31.333 105.333 -47 156 -47c173.333 0 260 136.333 260 409v1012h92v-995zM360 1188l-157 239l-160 -239h-82l221 336h45l219 -336h-86z" />
    <glyph glyph-name="Kcommaaccent" unicode="&#x136;" horiz-adv-x="1079" 
d="M922 0l-611 686c-11.333 12.667 -19.333 23.667 -24 33h-4v-719h-99v1434h99v-676h4c8 14 16.667 25.667 26 35l580 641h129l-629 -695l668 -739h-139zM668 -118l-126 -261h-79l93 261h112z" />
    <glyph glyph-name="kcommaaccent" unicode="&#x137;" horiz-adv-x="909" 
d="M750 0l-490 506h-4v-506h-92v1516h92v-977h4l465 485h119l-486 -496l525 -528h-133zM561 -118l-126 -261h-79l93 261h112z" />
    <glyph glyph-name="kgreenlandic" unicode="&#x138;" horiz-adv-x="909" 
d="M750 0l-490 506h-4v-506h-92v1024h92v-485h4l465 485h119l-486 -496l525 -528h-133z" />
    <glyph glyph-name="Lacute" unicode="&#x139;" horiz-adv-x="938" 
d="M184 0v1434h99v-1344h575v-90h-674zM559 1536h-90l234 328h104z" />
    <glyph glyph-name="lacute" unicode="&#x13a;" horiz-adv-x="420" 
d="M164 0v1516h92v-1516h-92zM239 1621h-90l234 328h104z" />
    <glyph glyph-name="Lcommaaccent" unicode="&#x13b;" horiz-adv-x="938" 
d="M184 0v1434h99v-1344h575v-90h-674zM426 -430l-0.000976562 74c33.333 -4 62 -6 86 -6c106.667 0 160 30.667 160 92c0 57.333 -48.333 86 -145 86c-21.333 0 -42.666 -1.33301 -63.999 -4v188h72v-117c150 0 225 -49 225 -147c0 -113.333 -84.667 -170 -254 -170
c-24 0 -50.667 1.33301 -80 4z" />
    <glyph glyph-name="lcommaaccent" unicode="&#x13c;" horiz-adv-x="420" 
d="M164 0v1516h92v-1516h-92zM130 -430l-0.000976562 74c33.333 -4 62 -6 86 -6c106.667 0 160 30.667 160 92c0 57.333 -48.333 86 -145 86c-21.333 0 -42.666 -1.33301 -63.999 -4v188h72v-117c150 0 225 -49 225 -147c0 -113.333 -84.667 -170 -254 -170
c-24 0 -50.667 1.33301 -80 4z" />
    <glyph glyph-name="Lcaron" unicode="&#x13d;" horiz-adv-x="938" 
d="M184 0v1434h99v-1344h575v-90h-674zM825 1434l-126 -261h-79l93 261h112z" />
    <glyph glyph-name="lcaron" unicode="&#x13e;" horiz-adv-x="527" 
d="M164 0v1516h92v-1516h-92zM574 1516l-126 -261h-79l93 261h112z" />
    <glyph glyph-name="Ldot" unicode="&#x13f;" horiz-adv-x="938" 
d="M184 0v1434h99v-1344h575v-90h-674zM655 625c-22.667 0 -41.667 8 -57 24s-23 35.333 -23 58s7.66699 41.5 23 56.5s34.333 22.5 57 22.5s42 -7.5 58 -22.5s24 -33.833 24 -56.5s-8 -42 -24 -58s-35.333 -24 -58 -24z" />
    <glyph glyph-name="ldot" unicode="&#x140;" horiz-adv-x="538" 
d="M164 0v1516h92v-1516h-92zM455 625c-22.667 0 -41.667 8 -57 24s-23 35.333 -23 58s7.66699 41.5 23 56.5s34.333 22.5 57 22.5s42 -7.5 58 -22.5s24 -33.833 24 -56.5s-8 -42 -24 -58s-35.333 -24 -58 -24z" />
    <glyph glyph-name="Lslash" unicode="&#x141;" horiz-adv-x="938" 
d="M184 0v569l-114 -69v96l114 70v768h99v-709l366 223v-96l-366 -223v-539h575v-90h-674z" />
    <glyph glyph-name="lslash" unicode="&#x142;" horiz-adv-x="502" 
d="M297 700v-700h-92v631l-180 -137v96l180 137v789h92v-719l182 135v-96z" />
    <glyph glyph-name="Nacute" unicode="&#x143;" horiz-adv-x="1452" 
d="M1198 0l-854.001 1159c-17.333 23.333 -32.666 46.666 -45.999 69.999l-13 20h-4c1.33301 -17.333 2 -38.333 2 -63v-1186h-99v1434h76l848 -1149c18.667 -25.333 39 -56 61 -92h5c-3.33301 46.667 -5 86.667 -5 120v1121h99v-1434h-70zM708.999 1536h-90l234 328h104z
" />
    <glyph glyph-name="nacute" unicode="&#x144;" horiz-adv-x="1096" 
d="M860 0l-0.00195312 596.001c0 246 -88.667 369 -266 369c-98.667 0 -179.667 -36.167 -243 -108.5s-95 -161.833 -95 -268.5v-588h-92v1024h92v-186h4c74.667 140.667 191.334 211 350.001 211c110.667 0 195.334 -36.833 254.001 -110.5s88 -178.834 88 -315.501v-623
h-92zM538.998 1188h-90l234 328h104z" />
    <glyph glyph-name="Ncommaaccent" unicode="&#x145;" horiz-adv-x="1452" 
d="M1198 0l-854.001 1159c-17.333 23.333 -32.666 46.666 -45.999 69.999l-13 20h-4c1.33301 -17.333 2 -38.333 2 -63v-1186h-99v1434h76l848 -1149c18.667 -25.333 39 -56 61 -92h5c-3.33301 46.667 -5 86.667 -5 120v1121h99v-1434h-70zM799.999 -117.999l-126 -261h-79
l93 261h112z" />
    <glyph glyph-name="ncommaaccent" unicode="&#x146;" horiz-adv-x="1096" 
d="M860 0l-0.00195312 596.001c0 246 -88.667 369 -266 369c-98.667 0 -179.667 -36.167 -243 -108.5s-95 -161.833 -95 -268.5v-588h-92v1024h92v-186h4c74.667 140.667 191.334 211 350.001 211c110.667 0 195.334 -36.833 254.001 -110.5s88 -178.834 88 -315.501v-623
h-92zM626.998 -117.999l-126 -261h-79l93 261h112z" />
    <glyph glyph-name="Ncaron" unicode="&#x147;" horiz-adv-x="1452" 
d="M1198 0l-854.001 1159c-17.333 23.333 -32.666 46.666 -45.999 69.999l-13 20h-4c1.33301 -17.333 2 -38.333 2 -63v-1186h-99v1434h76l848 -1149c18.667 -25.333 39 -56 61 -92h5c-3.33301 46.667 -5 86.667 -5 120v1121h99v-1434h-70zM762.999 1536h-45l-220 336h86
l158 -240l160 240h82z" />
    <glyph glyph-name="ncaron" unicode="&#x148;" horiz-adv-x="1096" 
d="M860 0l-0.00195312 596.001c0 246 -88.667 369 -266 369c-98.667 0 -179.667 -36.167 -243 -108.5s-95 -161.833 -95 -268.5v-588h-92v1024h92v-186h4c74.667 140.667 191.334 211 350.001 211c110.667 0 195.334 -36.833 254.001 -110.5s88 -178.834 88 -315.501v-623
h-92zM593.998 1188h-45l-220 336h86l158 -240l160 240h82z" />
    <glyph glyph-name="napostrophe" unicode="&#x149;" horiz-adv-x="1176" 
d="M940 0l-0.00195312 596.001c0 246 -88.667 369 -266 369c-98.667 0 -179.667 -36.167 -243 -108.5s-95 -161.833 -95 -268.5v-588h-92v1024h92v-186h4c74.667 140.667 191.334 211 350.001 211c110.667 0 195.334 -36.833 254.001 -110.5s88 -178.834 88 -315.501v-623
h-92zM46.998 985.001h-73l125 449h104z" />
    <glyph glyph-name="Eng" unicode="&#x14a;" horiz-adv-x="1444" 
d="M1268 0c0 -282 -109.666 -423.001 -328.999 -423.001c-38 0 -74.333 5 -109 15v96c40 -13.333 77 -20 111 -20c84.667 0 145.667 26.333 183 79s56 136.334 56 251.001v3l-836 1158c-8.66699 11.333 -16.834 23 -24.501 35l-21.5 35l-13 20h-4
c0.666992 -8.66699 1.16699 -18.167 1.5 -28.5s0.5 -21.833 0.5 -34.5v-1186h-99v1434h76l848 -1172c9.33301 -12.667 19 -26.667 29 -42l32 -50h5c-1.33301 23.333 -2.5 45 -3.5 65s-1.5 38.333 -1.5 55v1144h99v-1434z" />
    <glyph glyph-name="eng" unicode="&#x14b;" horiz-adv-x="1096" 
d="M952 2c0 -143.333 -24.499 -249.834 -73.499 -319.501s-122.833 -104.5 -221.5 -104.5c-20 0 -42.333 3 -67 9s-46.667 14.667 -66 26v96c21.333 -15.333 43.666 -27 66.999 -35s45.333 -12 66 -12c70.667 0 122.167 27.833 154.5 83.5s48.5 141.167 48.5 256.5v594
c0 246 -88.667 369 -266 369c-99.333 0 -180.333 -36.333 -243 -109c-63.333 -72.667 -95 -162 -95 -268v-588h-92v1024h92v-186h4c74.667 140.667 191.334 211 350.001 211c111.333 0 196.166 -36.667 254.499 -110s87.5 -178.666 87.5 -315.999v-621z" />
    <glyph glyph-name="Omacron" unicode="&#x14c;" horiz-adv-x="1559" 
d="M774 -25c-202.667 0 -364.167 67.332 -484.5 201.999s-180.5 309.667 -180.5 525c0 228.667 61.833 411.834 185.5 549.501s292.5 206.5 506.5 206.5c193.333 0 349.833 -66.167 469.5 -198.5s179.5 -305.833 179.5 -520.5c0 -237.333 -61.333 -424 -184 -560
s-286.667 -204 -492 -204zM784 1368c-166.667 0 -303.832 -60.335 -411.499 -181.002s-161.5 -278.667 -161.5 -474c0 -197.333 51 -354.5 153 -471.5s238 -175.5 408 -175.5c177.333 0 317.666 57.833 420.999 173.5s155 276.834 155 483.501
c0 202.667 -50.5 360.834 -151.5 474.501s-238.5 170.5 -412.5 170.5zM536.002 1536v84h508v-84h-508z" />
    <glyph glyph-name="omacron" unicode="&#x14d;" horiz-adv-x="1149" 
d="M575 -25c-149.333 0 -267.5 49.168 -354.5 147.501s-130.5 226.166 -130.5 383.499c0 170 45.5 303 136.5 399s210.833 144 359.5 144c146 0 261.333 -47.667 346 -143s127 -227.333 127 -396c0 -159.333 -43.167 -288.333 -129.5 -387s-204.5 -148 -354.5 -148z
M582 965.001c-120.667 0 -216.834 -40.667 -288.501 -122s-107.5 -194.333 -107.5 -339c0 -134 35 -241.667 105 -323s165.667 -122 287 -122c123.333 0 218.333 40 285 120s100 191 100 333c0 146 -33.167 258 -99.5 336s-160.166 117 -281.499 117zM334 1188v84h508v-84
h-508z" />
    <glyph glyph-name="Obreve" unicode="&#x14e;" horiz-adv-x="1559" 
d="M774 -25c-202.667 0 -364.167 67.332 -484.5 201.999s-180.5 309.667 -180.5 525c0 228.667 61.833 411.834 185.5 549.501s292.5 206.5 506.5 206.5c193.333 0 349.833 -66.167 469.5 -198.5s179.5 -305.833 179.5 -520.5c0 -237.333 -61.333 -424 -184 -560
s-286.667 -204 -492 -204zM784 1368c-166.667 0 -303.832 -60.335 -411.499 -181.002s-161.5 -278.667 -161.5 -474c0 -197.333 51 -354.5 153 -471.5s238 -175.5 408 -175.5c177.333 0 317.666 57.833 420.999 173.5s155 276.834 155 483.501
c0 202.667 -50.5 360.834 -151.5 474.501s-238.5 170.5 -412.5 170.5zM1059 1772c-10.667 -72 -40.501 -129.167 -89.501 -171.5s-109.833 -63.5 -182.5 -63.5c-73.333 0 -134.166 20.667 -182.499 62s-75.5 99 -81.5 173h84c4 -50 22.5 -89 55.5 -117s75.167 -42 126.5 -42
c45.333 0 85.5 14.5 120.5 43.5s55.5 67.5 61.5 115.5h88z" />
    <glyph glyph-name="obreve" unicode="&#x14f;" horiz-adv-x="1149" 
d="M575 -25c-149.333 0 -267.5 49.168 -354.5 147.501s-130.5 226.166 -130.5 383.499c0 170 45.5 303 136.5 399s210.833 144 359.5 144c146 0 261.333 -47.667 346 -143s127 -227.333 127 -396c0 -159.333 -43.167 -288.333 -129.5 -387s-204.5 -148 -354.5 -148z
M582 965.001c-120.667 0 -216.834 -40.667 -288.501 -122s-107.5 -194.333 -107.5 -339c0 -134 35 -241.667 105 -323s165.667 -122 287 -122c123.333 0 218.333 40 285 120s100 191 100 333c0 146 -33.167 258 -99.5 336s-160.166 117 -281.499 117zM852 1423
c-10.667 -72 -40.501 -129.167 -89.501 -171.5s-109.833 -63.5 -182.5 -63.5c-73.333 0 -134.166 20.667 -182.499 62s-75.5 99 -81.5 173h84c4 -50 22.5 -89 55.5 -117s75.167 -42 126.5 -42c45.333 0 85.5 14.5 120.5 43.5s55.5 67.5 61.5 115.5h88z" />
    <glyph glyph-name="Ohungarumlaut" unicode="&#x150;" horiz-adv-x="1559" 
d="M774 -25c-202.667 0 -364.167 67.332 -484.5 201.999s-180.5 309.667 -180.5 525c0 228.667 61.833 411.834 185.5 549.501s292.5 206.5 506.5 206.5c193.333 0 349.833 -66.167 469.5 -198.5s179.5 -305.833 179.5 -520.5c0 -237.333 -61.333 -424 -184 -560
s-286.667 -204 -492 -204zM784 1368c-166.667 0 -303.832 -60.335 -411.499 -181.002s-161.5 -278.667 -161.5 -474c0 -197.333 51 -354.5 153 -471.5s238 -175.5 408 -175.5c177.333 0 317.666 57.833 420.999 173.5s155 276.834 155 483.501
c0 202.667 -50.5 360.834 -151.5 474.501s-238.5 170.5 -412.5 170.5zM865.002 1537h-74l211 317h110zM643.002 1537h-73l211 317h110z" />
    <glyph glyph-name="ohungarumlaut" unicode="&#x151;" horiz-adv-x="1149" 
d="M575 -25c-149.333 0 -267.5 49.168 -354.5 147.501s-130.5 226.166 -130.5 383.499c0 170 45.5 303 136.5 399s210.833 144 359.5 144c146 0 261.333 -47.667 346 -143s127 -227.333 127 -396c0 -159.333 -43.167 -288.333 -129.5 -387s-204.5 -148 -354.5 -148z
M582 965.001c-120.667 0 -216.834 -40.667 -288.501 -122s-107.5 -194.333 -107.5 -339c0 -134 35 -241.667 105 -323s165.667 -122 287 -122c123.333 0 218.333 40 285 120s100 191 100 333c0 146 -33.167 258 -99.5 336s-160.166 117 -281.499 117zM676 1188h-74l211 317
h110zM454 1188h-73l211 317h110z" />
    <glyph glyph-name="OE" unicode="&#x152;" horiz-adv-x="1935" 
d="M1077 0c-116 -16.667 -210.001 -24.999 -282.001 -24.999c-217.333 0 -386 67.667 -506 203s-180 310 -180 524c0 229.333 62.333 412.666 187 549.999s296.334 206 515.001 206c94 0 182.667 -8 266 -24h670v-91h-571v-575h530v-90h-530v-588h604v-90h-703zM1077 1341
c-86.667 18 -177.333 27 -272 27c-182 0 -326.5 -61 -433.5 -183s-160.5 -279.333 -160.5 -472c0 -194.667 50.667 -351.167 152 -469.5s244.666 -177.5 429.999 -177.5c92.667 0 187.334 10 284.001 30v1245z" />
    <glyph glyph-name="oe" unicode="&#x153;" horiz-adv-x="1886" 
d="M1057 508c0 -139.333 32.166 -249 96.499 -329s153.5 -120 267.5 -120c116 0 228 42.333 336 127v-98c-104.667 -75.333 -221.334 -113 -350.001 -113c-196 0 -327.667 99 -395 297h-4c-77.333 -198 -221.666 -297 -432.999 -297c-150.667 0 -269.167 49.667 -355.5 149
s-129.5 226.666 -129.5 381.999c0 172 45.667 305.5 137 400.5s211 142.5 359 142.5c104 0 193.333 -26.667 268 -80s126.667 -125.666 156 -216.999h4c76.667 198 212.334 297 407.001 297c126.667 0 224 -44.167 292 -132.5s102 -210.833 102 -367.5v-41h-758zM1718 592
c-4 118 -32.332 209.667 -84.999 275s-125.334 98 -218.001 98c-96.667 0 -176.667 -32.667 -240 -98s-101.333 -157 -114 -275h657zM582 965c-120.667 0 -216.834 -40.667 -288.501 -122s-107.5 -194.333 -107.5 -339c0 -134 35 -241.667 105 -323s165.667 -122 287 -122
c123.333 0 218.333 40 285 120s100 191 100 333c0 146 -33.167 258 -99.5 336s-160.166 117 -281.499 117z" />
    <glyph glyph-name="Racute" unicode="&#x154;" horiz-adv-x="1137" 
d="M918 0l-191.002 419.998c-39.333 86.667 -78.666 144.834 -117.999 174.501s-88.666 44.5 -147.999 44.5h-178v-639h-99v1434h398c126.667 0 226.167 -34.167 298.5 -102.5s108.5 -158.5 108.5 -270.5c0 -103.333 -29.667 -189.666 -89 -258.999s-142.333 -114 -249 -134
v-4c56.667 -22.667 112 -91.667 166 -207l213 -457h-112zM282.998 1343l0.000976562 -614h247c109.333 0 196.166 28.667 260.499 86s96.5 136 96.5 236c0 91.333 -29 162.833 -87 214.5s-141 77.5 -249 77.5h-268zM554.999 1536h-90l234 328h104z" />
    <glyph glyph-name="racute" unicode="&#x155;" horiz-adv-x="676" 
d="M647 928c-30.667 22 -66.667 32.999 -108 32.999c-80.667 0 -148.334 -41.667 -203.001 -125s-82 -201.666 -82 -354.999v-481h-90v1024h90v-227h4c23.333 78 60.333 138.667 111 182s109.334 65 176.001 65c38 0 72 -6 102 -18v-98zM391 1188h-90l234 328h104z" />
    <glyph glyph-name="Rcommaaccent" unicode="&#x156;" horiz-adv-x="1137" 
d="M918 0l-191.002 419.998c-39.333 86.667 -78.666 144.834 -117.999 174.501s-88.666 44.5 -147.999 44.5h-178v-639h-99v1434h398c126.667 0 226.167 -34.167 298.5 -102.5s108.5 -158.5 108.5 -270.5c0 -103.333 -29.667 -189.666 -89 -258.999s-142.333 -114 -249 -134
v-4c56.667 -22.667 112 -91.667 166 -207l213 -457h-112zM282.998 1343l0.000976562 -614h247c109.333 0 196.166 28.667 260.499 86s96.5 136 96.5 236c0 91.333 -29 162.833 -87 214.5s-141 77.5 -249 77.5h-268zM640.999 -118.002l-126 -261h-79l93 261h112z" />
    <glyph glyph-name="rcommaaccent" unicode="&#x157;" horiz-adv-x="676" 
d="M647 928c-30.667 22 -66.667 32.999 -108 32.999c-80.667 0 -148.334 -41.667 -203.001 -125s-82 -201.666 -82 -354.999v-481h-90v1024h90v-227h4c23.333 78 60.333 138.667 111 182s109.334 65 176.001 65c38 0 72 -6 102 -18v-98zM502 -118.001l-126 -261h-79l93 261
h112z" />
    <glyph glyph-name="Rcaron" unicode="&#x158;" horiz-adv-x="1137" 
d="M918 0l-191.002 419.998c-39.333 86.667 -78.666 144.834 -117.999 174.501s-88.666 44.5 -147.999 44.5h-178v-639h-99v1434h398c126.667 0 226.167 -34.167 298.5 -102.5s108.5 -158.5 108.5 -270.5c0 -103.333 -29.667 -189.666 -89 -258.999s-142.333 -114 -249 -134
v-4c56.667 -22.667 112 -91.667 166 -207l213 -457h-112zM282.998 1343l0.000976562 -614h247c109.333 0 196.166 28.667 260.499 86s96.5 136 96.5 236c0 91.333 -29 162.833 -87 214.5s-141 77.5 -249 77.5h-268zM575.999 1536h-45l-220 336h86l158 -240l160 240h82z" />
    <glyph glyph-name="rcaron" unicode="&#x159;" horiz-adv-x="676" 
d="M647 928c-30.667 22 -66.667 32.999 -108 32.999c-80.667 0 -148.334 -41.667 -203.001 -125s-82 -201.666 -82 -354.999v-481h-90v1024h90v-227h4c23.333 78 60.333 138.667 111 182s109.334 65 176.001 65c38 0 72 -6 102 -18v-98zM412 1188h-45l-220 336h86l158 -240
l160 240h82z" />
    <glyph glyph-name="Sacute" unicode="&#x15a;" horiz-adv-x="1018" 
d="M139 51l-0.000976562 113c102.667 -65.333 206.667 -98 312 -98c112 0 197 23.167 255 69.5s87 111.166 87 194.499c0 73.333 -19.5 131.833 -58.5 175.5s-123.5 103.167 -253.5 178.5c-145.333 84.667 -237.333 155.5 -276 212.5s-58 122.833 -58 197.5
c0 101.333 39.333 187.333 118 258s183.667 106 315 106c85.333 0 170.666 -14.333 255.999 -43v-104c-84 38 -173.667 57 -269 57c-97.333 0 -174.5 -24.667 -231.5 -74s-85.5 -112 -85.5 -188c0 -73.333 19.5 -131.666 58.5 -174.999s123.167 -102.333 252.5 -177
c134 -76 223.167 -143.5 267.5 -202.5s66.5 -126.833 66.5 -203.5c0 -110 -38.167 -199.667 -114.5 -269s-184.166 -104 -323.499 -104c-49.333 0 -106.166 7.66699 -170.499 23s-113.5 33 -147.5 53zM497.999 1535h-90l234 328h104z" />
    <glyph glyph-name="sacute" unicode="&#x15b;" horiz-adv-x="795" 
d="M111 45l-0.00195312 110.999c34.667 -30 76.667 -53.667 126 -71s92 -26 128 -26c160.667 0 241 65.667 241 197c0 45.333 -17.667 84 -53 116s-92.666 65 -171.999 99c-98 42.667 -166.833 86.834 -206.5 132.501s-59.5 101.167 -59.5 166.5
c0 83.333 31.833 150.666 95.5 201.999s142.167 77 235.5 77c88 0 163.333 -18 226 -54v-104c-76 49.333 -154.667 74 -236 74c-67.333 0 -121.666 -17.5 -162.999 -52.5s-62 -80.5 -62 -136.5c0 -48.667 13 -88.167 39 -118.5s83.333 -65.166 172 -104.499
c106.667 -48 180 -92.5 220 -133.5s60 -95.5 60 -163.5c0 -81.333 -30.5 -148.5 -91.5 -201.5s-145.167 -79.5 -252.5 -79.5c-98.667 0 -181 23.333 -247 70zM380.998 1188h-90l234 328h104z" />
    <glyph glyph-name="Scircumflex" unicode="&#x15c;" horiz-adv-x="1018" 
d="M139 51l-0.000976562 113c102.667 -65.333 206.667 -98 312 -98c112 0 197 23.167 255 69.5s87 111.166 87 194.499c0 73.333 -19.5 131.833 -58.5 175.5s-123.5 103.167 -253.5 178.5c-145.333 84.667 -237.333 155.5 -276 212.5s-58 122.833 -58 197.5
c0 101.333 39.333 187.333 118 258s183.667 106 315 106c85.333 0 170.666 -14.333 255.999 -43v-104c-84 38 -173.667 57 -269 57c-97.333 0 -174.5 -24.667 -231.5 -74s-85.5 -112 -85.5 -188c0 -73.333 19.5 -131.666 58.5 -174.999s123.167 -102.333 252.5 -177
c134 -76 223.167 -143.5 267.5 -202.5s66.5 -126.833 66.5 -203.5c0 -110 -38.167 -199.667 -114.5 -269s-184.166 -104 -323.499 -104c-49.333 0 -106.166 7.66699 -170.499 23s-113.5 33 -147.5 53zM680.999 1536l-157 239l-160 -239h-82l221 336h45l219 -336h-86z" />
    <glyph glyph-name="scircumflex" unicode="&#x15d;" horiz-adv-x="795" 
d="M111 45l-0.00195312 110.999c34.667 -30 76.667 -53.667 126 -71s92 -26 128 -26c160.667 0 241 65.667 241 197c0 45.333 -17.667 84 -53 116s-92.666 65 -171.999 99c-98 42.667 -166.833 86.834 -206.5 132.501s-59.5 101.167 -59.5 166.5
c0 83.333 31.833 150.666 95.5 201.999s142.167 77 235.5 77c88 0 163.333 -18 226 -54v-104c-76 49.333 -154.667 74 -236 74c-67.333 0 -121.666 -17.5 -162.999 -52.5s-62 -80.5 -62 -136.5c0 -48.667 13 -88.167 39 -118.5s83.333 -65.166 172 -104.499
c106.667 -48 180 -92.5 220 -133.5s60 -95.5 60 -163.5c0 -81.333 -30.5 -148.5 -91.5 -201.5s-145.167 -79.5 -252.5 -79.5c-98.667 0 -181 23.333 -247 70zM575.998 1188l-157 239l-160 -239h-82l221 336h45l219 -336h-86z" />
    <glyph glyph-name="Scedilla" unicode="&#x15e;" horiz-adv-x="1018" 
d="M139 51l-0.000976562 113c102.667 -65.333 206.667 -98 312 -98c112 0 197 23.167 255 69.5s87 111.166 87 194.499c0 73.333 -19.5 131.833 -58.5 175.5s-123.5 103.167 -253.5 178.5c-145.333 84.667 -237.333 155.5 -276 212.5s-58 122.833 -58 197.5
c0 101.333 39.333 187.333 118 258s183.667 106 315 106c85.333 0 170.666 -14.333 255.999 -43v-104c-84 38 -173.667 57 -269 57c-97.333 0 -174.5 -24.667 -231.5 -74s-85.5 -112 -85.5 -188c0 -73.333 19.5 -131.666 58.5 -174.999s123.167 -102.333 252.5 -177
c134 -76 223.167 -143.5 267.5 -202.5s66.5 -126.833 66.5 -203.5c0 -110 -38.167 -199.667 -114.5 -269s-184.166 -104 -323.499 -104c-49.333 0 -106.166 7.66699 -170.499 23s-113.5 33 -147.5 53zM396.999 -430l-0.000976562 74c33.333 -4 62 -6 86 -6
c106.667 0 160 30.667 160 92c0 57.333 -48.333 86 -145 86c-21.333 0 -42.666 -1.33301 -63.999 -4v188h72v-117c150 0 225 -49 225 -147c0 -113.333 -84.667 -170 -254 -170c-24 0 -50.667 1.33301 -80 4z" />
    <glyph glyph-name="scedilla" unicode="&#x15f;" horiz-adv-x="795" 
d="M111 45l-0.00195312 110.999c34.667 -30 76.667 -53.667 126 -71s92 -26 128 -26c160.667 0 241 65.667 241 197c0 45.333 -17.667 84 -53 116s-92.666 65 -171.999 99c-98 42.667 -166.833 86.834 -206.5 132.501s-59.5 101.167 -59.5 166.5
c0 83.333 31.833 150.666 95.5 201.999s142.167 77 235.5 77c88 0 163.333 -18 226 -54v-104c-76 49.333 -154.667 74 -236 74c-67.333 0 -121.666 -17.5 -162.999 -52.5s-62 -80.5 -62 -136.5c0 -48.667 13 -88.167 39 -118.5s83.333 -65.166 172 -104.499
c106.667 -48 180 -92.5 220 -133.5s60 -95.5 60 -163.5c0 -81.333 -30.5 -148.5 -91.5 -201.5s-145.167 -79.5 -252.5 -79.5c-98.667 0 -181 23.333 -247 70zM276.998 -430.001l-0.000976562 74c33.333 -4 62 -6 86 -6c106.667 0 160 30.667 160 92
c0 57.333 -48.333 86 -145 86c-21.333 0 -42.666 -1.33301 -63.999 -4v188h72v-117c150 0 225 -49 225 -147c0 -113.333 -84.667 -170 -254 -170c-24 0 -50.667 1.33301 -80 4z" />
    <glyph glyph-name="Scaron" unicode="&#x160;" horiz-adv-x="1018" 
d="M139 51l-0.000976562 113c102.667 -65.333 206.667 -98 312 -98c112 0 197 23.167 255 69.5s87 111.166 87 194.499c0 73.333 -19.5 131.833 -58.5 175.5s-123.5 103.167 -253.5 178.5c-145.333 84.667 -237.333 155.5 -276 212.5s-58 122.833 -58 197.5
c0 101.333 39.333 187.333 118 258s183.667 106 315 106c85.333 0 170.666 -14.333 255.999 -43v-104c-84 38 -173.667 57 -269 57c-97.333 0 -174.5 -24.667 -231.5 -74s-85.5 -112 -85.5 -188c0 -73.333 19.5 -131.666 58.5 -174.999s123.167 -102.333 252.5 -177
c134 -76 223.167 -143.5 267.5 -202.5s66.5 -126.833 66.5 -203.5c0 -110 -38.167 -199.667 -114.5 -269s-184.166 -104 -323.499 -104c-49.333 0 -106.166 7.66699 -170.499 23s-113.5 33 -147.5 53zM565.999 1567h-45l-220 336h86l158 -240l160 240h82z" />
    <glyph glyph-name="scaron" unicode="&#x161;" horiz-adv-x="795" 
d="M111 45l-0.00195312 110.999c34.667 -30 76.667 -53.667 126 -71s92 -26 128 -26c160.667 0 241 65.667 241 197c0 45.333 -17.667 84 -53 116s-92.666 65 -171.999 99c-98 42.667 -166.833 86.834 -206.5 132.501s-59.5 101.167 -59.5 166.5
c0 83.333 31.833 150.666 95.5 201.999s142.167 77 235.5 77c88 0 163.333 -18 226 -54v-104c-76 49.333 -154.667 74 -236 74c-67.333 0 -121.666 -17.5 -162.999 -52.5s-62 -80.5 -62 -136.5c0 -48.667 13 -88.167 39 -118.5s83.333 -65.166 172 -104.499
c106.667 -48 180 -92.5 220 -133.5s60 -95.5 60 -163.5c0 -81.333 -30.5 -148.5 -91.5 -201.5s-145.167 -79.5 -252.5 -79.5c-98.667 0 -181 23.333 -247 70zM444.998 1188h-45l-220 336h86l158 -240l160 240h82z" />
    <glyph glyph-name="uni0162" unicode="&#x162;" horiz-adv-x="1047" 
d="M573 1343v-1343h-98v1343h-414v91h926v-91h-414zM447 -430l-0.000976562 74c33.333 -4 62 -6 86 -6c106.667 0 160 30.667 160 92c0 57.333 -48.333 86 -145 86c-21.333 0 -42.666 -1.33301 -63.999 -4v188h72v-117c150 0 225 -49 225 -147
c0 -113.333 -84.667 -170 -254 -170c-24 0 -50.667 1.33301 -80 4z" />
    <glyph glyph-name="uni0163" unicode="&#x163;" horiz-adv-x="608" 
d="M569 14c-48 -22.667 -92.999 -33.999 -134.999 -33.999c-151.333 0 -227 90.667 -227 272v688h-184v84h184v266l46 16c16 4.66699 31.333 9.66699 46 15v-297h270v-84h-270v-676c0 -70.667 11.167 -121.834 33.5 -153.501s60.166 -47.5 113.499 -47.5
c38 0 79 12.333 123 37v-86zM278.001 -429.999l-0.000976562 74c33.333 -4 62 -6 86 -6c106.667 0 160 30.667 160 92c0 57.333 -48.333 86 -145 86c-21.333 0 -42.666 -1.33301 -63.999 -4v188h72v-117c150 0 225 -49 225 -147c0 -113.333 -84.667 -170 -254 -170
c-24 0 -50.667 1.33301 -80 4z" />
    <glyph glyph-name="Tcaron" unicode="&#x164;" horiz-adv-x="1047" 
d="M573 1343v-1343h-98v1343h-414v91h926v-91h-414zM547 1536h-45l-220 336h86l158 -240l160 240h82z" />
    <glyph glyph-name="tcaron" unicode="&#x165;" horiz-adv-x="664" 
d="M569 14c-48 -22.667 -92.999 -33.999 -134.999 -33.999c-151.333 0 -227 90.667 -227 272v688h-184v84h184v266l46 16c16 4.66699 31.333 9.66699 46 15v-297h270v-84h-270v-676c0 -70.667 11.167 -121.834 33.5 -153.501s60.166 -47.5 113.499 -47.5
c38 0 79 12.333 123 37v-86zM675.001 1516l-126 -261h-79l93 261h112z" />
    <glyph glyph-name="Tbar" unicode="&#x166;" horiz-adv-x="1047" 
d="M573 1343v-576h324v-91h-324v-676h-98v676h-324v91h324v576h-414v91h926v-91h-414z" />
    <glyph glyph-name="tbar" unicode="&#x167;" horiz-adv-x="608" 
d="M569 14c-48 -22.667 -92.999 -33.999 -134.999 -33.999c-151.333 0 -227 90.667 -227 272v320h-164v84h164v284h-184v84h184v266l46 16c16 4.66699 31.333 9.66699 46 15v-297h270v-84h-270v-284h240v-84h-240v-308c0 -70.667 11.167 -121.834 33.5 -153.501
s60.166 -47.5 113.499 -47.5c38 0 79 12.333 123 37v-86z" />
    <glyph glyph-name="Utilde" unicode="&#x168;" horiz-adv-x="1327" 
d="M1161 573c0 -398.667 -170 -598 -510 -598c-323.333 0 -485 192 -485 576v883h98v-869c0 -332.667 135.333 -499 406 -499c262 0 393 161.667 393 485v883h98v-861zM978 1771c0 -68.667 -16.167 -123 -48.5 -163s-75.833 -60 -130.5 -60c-44 0 -94.333 25.333 -151 76
c-42.667 36.667 -82.334 55 -119.001 55c-68 0 -102 -47.667 -102 -143h-72c0 66.667 16 120.167 48 160.5s74.667 60.5 128 60.5c48 0 101.333 -24 160 -72c44.667 -39.333 83.667 -59 117 -59c26.667 0 49.334 12.333 68.001 37s28 60.667 28 108h74z" />
    <glyph glyph-name="utilde" unicode="&#x169;" horiz-adv-x="1096" 
d="M840 0v186.001h-4c-71.333 -140.667 -181.333 -211 -330 -211c-242 0 -363 152.333 -363 457v592h93v-569c0 -138.667 22.833 -239.334 68.5 -302.001s117.5 -94 215.5 -94c95.333 0 172.5 35 231.5 105s88.5 163.333 88.5 280v580h92v-1024h-92zM851 1423
c0 -68.667 -16.167 -123 -48.5 -163s-75.833 -60 -130.5 -60c-44 0 -94.333 25.333 -151 76c-42.667 36.667 -82.334 55 -119.001 55c-68 0 -102 -47.667 -102 -143h-72c0 66.667 16 120.167 48 160.5s74.667 60.5 128 60.5c48 0 101.333 -24 160 -72
c44.667 -39.333 83.667 -59 117 -59c26.667 0 49.334 12.333 68.001 37s28 60.667 28 108h74z" />
    <glyph glyph-name="Umacron" unicode="&#x16a;" horiz-adv-x="1327" 
d="M1161 573c0 -398.667 -170 -598 -510 -598c-323.333 0 -485 192 -485 576v883h98v-869c0 -332.667 135.333 -499 406 -499c262 0 393 161.667 393 485v883h98v-861zM408 1535v84h508v-84h-508z" />
    <glyph glyph-name="umacron" unicode="&#x16b;" horiz-adv-x="1096" 
d="M840 0v186.001h-4c-71.333 -140.667 -181.333 -211 -330 -211c-242 0 -363 152.333 -363 457v592h93v-569c0 -138.667 22.833 -239.334 68.5 -302.001s117.5 -94 215.5 -94c95.333 0 172.5 35 231.5 105s88.5 163.333 88.5 280v580h92v-1024h-92zM280 1188v84h508v-84
h-508z" />
    <glyph glyph-name="Ubreve" unicode="&#x16c;" horiz-adv-x="1327" 
d="M1161 573c0 -398.667 -170 -598 -510 -598c-323.333 0 -485 192 -485 576v883h98v-869c0 -332.667 135.333 -499 406 -499c262 0 393 161.667 393 485v883h98v-861zM927 1771c-10.667 -72 -40.501 -129.167 -89.501 -171.5s-109.833 -63.5 -182.5 -63.5
c-73.333 0 -134.166 20.667 -182.499 62s-75.5 99 -81.5 173h84c4 -50 22.5 -89 55.5 -117s75.167 -42 126.5 -42c45.333 0 85.5 14.5 120.5 43.5s55.5 67.5 61.5 115.5h88z" />
    <glyph glyph-name="ubreve" unicode="&#x16d;" horiz-adv-x="1096" 
d="M840 0v186.001h-4c-71.333 -140.667 -181.333 -211 -330 -211c-242 0 -363 152.333 -363 457v592h93v-569c0 -138.667 22.833 -239.334 68.5 -302.001s117.5 -94 215.5 -94c95.333 0 172.5 35 231.5 105s88.5 163.333 88.5 280v580h92v-1024h-92zM811 1423
c-10.667 -72 -40.501 -129.167 -89.501 -171.5s-109.833 -63.5 -182.5 -63.5c-73.333 0 -134.166 20.667 -182.499 62s-75.5 99 -81.5 173h84c4 -50 22.5 -89 55.5 -117s75.167 -42 126.5 -42c45.333 0 85.5 14.5 120.5 43.5s55.5 67.5 61.5 115.5h88z" />
    <glyph glyph-name="Uring" unicode="&#x16e;" horiz-adv-x="1327" 
d="M1161 573c0 -398.667 -170 -598 -510 -598c-323.333 0 -485 192 -485 576v883h98v-869c0 -332.667 135.333 -499 406 -499c262 0 393 161.667 393 485v883h98v-861zM673 1535c-57.333 0 -105.167 16.833 -143.5 50.5s-57.5 78.167 -57.5 133.5c0 53.333 19 97.333 57 132
s86 52 144 52c58.667 0 106.834 -16.833 144.501 -50.5s56.5 -78.167 56.5 -133.5c0 -53.333 -19.333 -97.333 -58 -132s-86.334 -52 -143.001 -52zM672.999 1836c-38 0 -68.667 -10.6699 -92 -32.0029s-35 -49.666 -35 -84.999s12.167 -63.666 36.5 -84.999
s54.5 -32 90.5 -32c38 0 69 10.833 93 32.5s36 49.834 36 84.501c0 38 -12.5 67 -37.5 87s-55.5 30 -91.5 30z" />
    <glyph glyph-name="uring" unicode="&#x16f;" horiz-adv-x="1096" 
d="M840 0v186.001h-4c-71.333 -140.667 -181.333 -211 -330 -211c-242 0 -363 152.333 -363 457v592h93v-569c0 -138.667 22.833 -239.334 68.5 -302.001s117.5 -94 215.5 -94c95.333 0 172.5 35 231.5 105s88.5 163.333 88.5 280v580h92v-1024h-92zM538 1188
c-57.333 0 -105.167 16.833 -143.5 50.5s-57.5 78.167 -57.5 133.5c0 53.333 19 97.333 57 132s86 52 144 52c58.667 0 106.834 -16.833 144.501 -50.5s56.5 -78.167 56.5 -133.5c0 -53.333 -19.333 -97.333 -58 -132s-86.334 -52 -143.001 -52zM537.999 1489
c-38 0 -68.667 -10.6699 -92 -32.0029s-35 -49.666 -35 -84.999s12.167 -63.666 36.5 -84.999s54.5 -32 90.5 -32c38 0 69 10.833 93 32.5s36 49.834 36 84.501c0 38 -12.5 67 -37.5 87s-55.5 30 -91.5 30z" />
    <glyph glyph-name="Uhungarumlaut" unicode="&#x170;" horiz-adv-x="1327" 
d="M1161 573c0 -398.667 -170 -598 -510 -598c-323.333 0 -485 192 -485 576v883h98v-869c0 -332.667 135.333 -499 406 -499c262 0 393 161.667 393 485v883h98v-861zM758 1536h-74l211 317h110zM536 1536h-73l211 317h110z" />
    <glyph glyph-name="uhungarumlaut" unicode="&#x171;" horiz-adv-x="1096" 
d="M840 0v186.001h-4c-71.333 -140.667 -181.333 -211 -330 -211c-242 0 -363 152.333 -363 457v592h93v-569c0 -138.667 22.833 -239.334 68.5 -302.001s117.5 -94 215.5 -94c95.333 0 172.5 35 231.5 105s88.5 163.333 88.5 280v580h92v-1024h-92zM643 1188h-74l211 317
h110zM421 1188h-73l211 317h110z" />
    <glyph glyph-name="Uogonek" unicode="&#x172;" horiz-adv-x="1327" 
d="M1161 573c0 -398.667 -170 -598 -510 -598c-323.333 0 -485 192 -485 576v883h98v-869c0 -332.667 135.333 -499 406 -499c262 0 393 161.667 393 485v883h98v-861zM783 0c-113.333 -90 -169.998 -170.001 -169.998 -240.001c0 -58.667 28 -88 84 -88
c25.333 0 52 5.66699 80 17v-70c-32.667 -12 -64 -18 -94 -18c-46.667 0 -84.334 13.5 -113.001 40.5s-43 64.5 -43 112.5c0 36.667 14.167 77.334 42.5 122.001s70.166 86 125.499 124h88z" />
    <glyph glyph-name="uogonek" unicode="&#x173;" horiz-adv-x="1096" 
d="M840 0v186.001h-4c-71.333 -140.667 -181.333 -211 -330 -211c-242 0 -363 152.333 -363 457v592h93v-569c0 -138.667 22.833 -239.334 68.5 -302.001s117.5 -94 215.5 -94c95.333 0 172.5 35 231.5 105s88.5 163.333 88.5 280v580h92v-1024h-92zM932 0.000976562
c-113.333 -90 -169.998 -170.001 -169.998 -240.001c0 -58.667 28 -88 84 -88c25.333 0 52 5.66699 80 17v-70c-32.667 -12 -64 -18 -94 -18c-46.667 0 -84.334 13.5 -113.001 40.5s-43 64.5 -43 112.5c0 36.667 14.167 77.334 42.5 122.001s70.166 86 125.499 124h88z" />
    <glyph glyph-name="Wcircumflex" unicode="&#x174;" horiz-adv-x="1833" 
d="M1362 0l-81.998 -0.00195312l-319 1079c-16 55.333 -25 100.333 -27 135h-4c-2 -29.333 -12.333 -73.666 -31 -132.999l-340 -1081h-82l-426 1434h111l327 -1149c14.667 -52 25 -94.333 31 -127h4c4 24.667 15.667 67 35 127l354 1149h50l325 -1149
c15.333 -53.333 25.666 -95.666 30.999 -126.999h4c3.33301 18.667 8.66602 40 15.999 64l336 1212h107zM1086 1536l-157 239l-160 -239h-82l221 336h45l219 -336h-86z" />
    <glyph glyph-name="wcircumflex" unicode="&#x175;" horiz-adv-x="1386" 
d="M1032 0h-85.999l-223 772c-6 21.333 -11.333 50 -16 86h-5c-1.33301 -15.333 -8 -43.333 -20 -84l-250 -774h-86l-309 1024h102l238 -817c6 -21.333 10.667 -50 14 -86h8c1.33301 19.333 7.66602 48 18.999 86l260 817h63l232 -817c5.33301 -19.333 10 -48 14 -86h8
c0 19.333 5.66699 48 17 86l243 817h95zM861.001 1188l-157 239l-160 -239h-82l221 336h45l219 -336h-86z" />
    <glyph glyph-name="Ycircumflex" unicode="&#x176;" horiz-adv-x="1106" 
d="M598 545l0.000976562 -545.001h-98v543l-439 891h111l334 -691c12 -24 27 -59.333 45 -106h4c9.33301 24.667 25.666 59.334 48.999 104.001l350 693h107zM704.001 1535l-157 239l-160 -239h-82l221 336h45l219 -336h-86z" />
    <glyph glyph-name="ycircumflex" unicode="&#x177;" horiz-adv-x="928" 
d="M414 -209c-37.333 -92 -78.6689 -160.333 -124.002 -205s-103.666 -67 -174.999 -67c-30 0 -56.667 4.66699 -80 14v92c24 -9.33301 52 -14 84 -14c82 0 146.667 56.667 194 170l95 227l-388 1016h103l309 -834c6.66699 -18 11.334 -31.667 14.001 -41
c2.66699 -12.667 5.66699 -24 9 -34h4l24 69l330 840h100zM612.997 1188l-157 239l-160 -239h-82l221 336h45l219 -336h-86z" />
    <glyph glyph-name="Ydieresis" unicode="&#x178;" horiz-adv-x="1106" 
d="M598 545l0.000976562 -545.001h-98v543l-439 891h111l334 -691c12 -24 27 -59.333 45 -106h4c9.33301 24.667 25.666 59.334 48.999 104.001l350 693h107zM716.001 1535c-18 0 -34.332 6.5 -48.999 19.5s-22 30.5 -22 52.5c0 20.667 7.16699 37.334 21.5 50.001
s30.166 19 47.499 19c19.333 0 36.833 -6.5 52.5 -19.5s23.5 -29.5 23.5 -49.5c0 -20.667 -7.16699 -37.834 -21.5 -51.501s-31.833 -20.5 -52.5 -20.5zM383.002 1535c-18.667 0 -35.332 6.5 -49.999 19.5s-22 30.5 -22 52.5c0 20.667 7.33301 37.334 22 50.001
s30.667 19 48 19c19.333 0 36.666 -6.5 51.999 -19.5s23 -29.5 23 -49.5c0 -20.667 -7 -37.834 -21 -51.501s-31.333 -20.5 -52 -20.5z" />
    <glyph glyph-name="Zacute" unicode="&#x179;" horiz-adv-x="1167" 
d="M215 90h858v-90h-1007v31l868 1312h-799v91h952v-27zM596 1537h-90l234 328h104z" />
    <glyph glyph-name="zacute" unicode="&#x17a;" horiz-adv-x="950" 
d="M207 84h661v-84h-811v35l680 905h-631v84h787v-25zM481 1188h-90l234 328h104z" />
    <glyph glyph-name="Zdotaccent" unicode="&#x17b;" horiz-adv-x="1167" 
d="M215 90h858v-90h-1007v31l868 1312h-799v91h952v-27zM613 1535c-20.667 0 -38.834 7.33105 -54.501 21.998s-23.5 33.334 -23.5 56.001s7.83301 40.5 23.5 53.5s33.167 19.5 52.5 19.5c20.667 0 39.167 -6.5 55.5 -19.5s24.5 -30.833 24.5 -53.5
c0 -21.333 -7.66699 -39.666 -23 -54.999s-33.666 -23 -54.999 -23z" />
    <glyph glyph-name="zdotaccent" unicode="&#x17c;" horiz-adv-x="950" 
d="M207 84h661v-84h-811v35l680 905h-631v84h787v-25zM499 1188c-20.667 0 -38.834 7.33105 -54.501 21.998s-23.5 33.334 -23.5 56.001s7.83301 40.5 23.5 53.5s33.167 19.5 52.5 19.5c20.667 0 39.167 -6.5 55.5 -19.5s24.5 -30.833 24.5 -53.5
c0 -21.333 -7.66699 -39.666 -23 -54.999s-33.666 -23 -54.999 -23z" />
    <glyph glyph-name="Zcaron" unicode="&#x17d;" horiz-adv-x="1167" 
d="M215 90h858v-90h-1007v31l868 1312h-799v91h952v-27zM648 1535h-45l-220 336h86l158 -240l160 240h82z" />
    <glyph glyph-name="zcaron" unicode="&#x17e;" horiz-adv-x="950" 
d="M207 84h661v-84h-811v35l680 905h-631v84h787v-25zM530 1188h-45l-220 336h86l158 -240l160 240h82z" />
    <glyph glyph-name="longs" unicode="&#x17f;" horiz-adv-x="510" 
d="M557 1419c-24.667 19.333 -61.999 29 -111.999 29c-126 0 -189 -84.667 -189 -254v-1194h-92v1202c0 108 27.167 190 81.5 246s122.166 84 203.499 84c43.333 0 79.333 -6.33301 108 -19v-94z" />
    <glyph glyph-name="uni0180" unicode="&#x180;" horiz-adv-x="1169" 
d="M282 182h-4.00098v-182h-92v1231h-135v84h135v201h92v-201h390v-84h-390v-418h4c36.667 75.333 89.167 133.5 157.5 174.5s143.5 61.5 225.5 61.5c130 0 231.5 -44.833 304.5 -134.5s109.5 -211.5 109.5 -365.5c0 -171.333 -42.333 -309.833 -127 -415.5
s-194.667 -158.5 -330 -158.5c-153.333 0 -266.666 69 -339.999 207zM277.999 563l-0.000976562 -128.999c0 -102.667 32.333 -190.834 97 -264.501s149.667 -110.5 255 -110.5c104.667 0 189.667 44.833 255 134.5s98 207.5 98 353.5c0 128 -30 229.667 -90 305
s-140 113 -240 113c-119.333 0 -211.666 -40 -276.999 -120s-98 -174 -98 -282z" />
    <glyph glyph-name="uni0181" unicode="&#x181;" horiz-adv-x="1210" 
d="M280 0l-0.000976562 1343h-32c-54 0 -97.5 -14.167 -130.5 -42.5s-49.5 -70.833 -49.5 -127.5c0 -36.667 6.66699 -72.334 20 -107.001h-97c-14.667 36 -22 76.667 -22 122c0 32.667 5.5 63.834 16.5 93.501s27.833 55.834 50.5 78.501s51.334 40.667 86.001 54
s76 20 124 20h411c56 0 106.667 -8 152 -24s84.166 -38.5 116.499 -67.5s57.166 -63.833 74.499 -104.5s26 -86 26 -136c0 -42 -5.66699 -81.167 -17 -117.5s-27.833 -69.333 -49.5 -99s-48 -55.5 -79 -77.5s-66.5 -39.333 -106.5 -52v-4
c48.667 -4.66699 92.834 -16.167 132.501 -34.5s73.5 -42.333 101.5 -72s49.5 -64.334 64.5 -104.001s22.5 -83.5 22.5 -131.5c0 -60 -10.167 -115 -30.5 -165s-49.166 -93.167 -86.499 -129.5s-82.5 -64.666 -135.5 -84.999s-112.167 -30.5 -177.5 -30.5h-385z
M378.999 697.999l0.000976562 -608h266c113.333 0 199.666 26.833 258.999 80.5s89 130.5 89 230.5c0 198 -134.333 297 -403 297h-211zM379 1343l0.000976562 -555.002h200c51.333 0 98.166 6.83301 140.499 20.5s78.5 33.334 108.5 59.001s53.333 56.834 70 93.501
s25 78 25 124c0 172 -101.667 258 -305 258h-239z" />
    <glyph glyph-name="uni0182" unicode="&#x182;" horiz-adv-x="1102" 
d="M1010 414c0 -56.667 -9.33301 -110 -28 -160s-46.167 -93.833 -82.5 -131.5s-81.333 -67.5 -135 -89.5s-115.167 -33 -184.5 -33h-396v1434h721v-91h-622v-546h325c56.667 0 109.5 -7.16699 158.5 -21.5s91.5 -36.833 127.5 -67.5s64.333 -70.167 85 -118.5
s31 -106.833 31 -175.5zM907 406c0 54 -7.66699 100 -23 138s-38 69 -68 93s-67 41.667 -111 53s-94.667 17 -152 17h-270v-617h276c61.333 0 114 8 158 24s80 38 108 66s48.667 61.333 62 100s20 80.667 20 126z" />
    <glyph glyph-name="uni0183" unicode="&#x183;" horiz-adv-x="1147" 
d="M260 182h-3.99707v-182h-92v1516h792v-85h-700v-618h4c37.333 75.333 89.666 133.333 156.999 174c69.333 41.333 144.666 62 225.999 62c64.667 0 122.667 -11.667 174 -35s94.666 -56.666 129.999 -99.999s62.5 -95.833 81.5 -157.5s28.5 -130.834 28.5 -207.501
c0 -84.667 -11.167 -162.167 -33.5 -232.5s-53.5 -130.833 -93.5 -181.5s-88 -90 -144 -118s-118 -42 -186 -42c-154 0 -267.333 69 -340 207zM256.003 563l0.00390625 -128.999c0 -50.667 8.5 -98.667 25.5 -144s40.833 -85.166 71.5 -119.499s67.667 -61.5 111 -81.5
s91.333 -30 144 -30s100.667 11.833 144 35.5s80.5 57 111.5 100s55 94.5 72 154.5s25.5 126 25.5 198c0 64 -7.83301 121.667 -23.5 173s-37.834 95.166 -66.501 131.499s-63.334 64.333 -104.001 84s-86 29.5 -136 29.5c-60 0 -113.333 -11 -160 -33
s-85.834 -51.5 -117.501 -88.5s-55.834 -79.833 -72.501 -128.5s-25 -99.334 -25 -152.001z" />
    <glyph glyph-name="uni0184" unicode="&#x184;" horiz-adv-x="1102" 
d="M283 797h325c56.667 0 109.5 -7.16699 158.5 -21.5s91.5 -36.833 127.5 -67.5s64.333 -70.167 85 -118.5s31 -106.833 31 -175.5c0 -56.667 -9.33301 -110 -28 -160s-46.167 -93.833 -82.5 -131.5s-81.333 -67.5 -135 -89.5s-115.167 -33 -184.5 -33h-396v1193l-137 115
v22l214 128h22v-661zM907 406c0 54 -7.66699 100 -23 138s-38 69 -68 93s-67 41.667 -111 53s-94.667 17 -152 17h-270v-617h276c61.333 0 114 8 158 24s80 38 108 66s48.667 61.333 62 100s20 80.667 20 126z" />
    <glyph glyph-name="uni0185" unicode="&#x185;" horiz-adv-x="1167" 
d="M280 182h-4.00098v-182h-92v1251l-137 115v22l207 128h22v-703h4c36.667 75.333 89.167 133.5 157.5 174.5s143.5 61.5 225.5 61.5c130 0 231.5 -44.833 304.5 -134.5s109.5 -211.5 109.5 -365.5c0 -171.333 -42.333 -309.833 -127 -415.5s-194.667 -158.5 -330 -158.5
c-153.333 0 -266.666 69 -339.999 207zM275.999 563l-0.000976562 -128.999c0 -102.667 32.333 -190.834 97 -264.501s149.667 -110.5 255 -110.5c104.667 0 189.667 44.833 255 134.5s98 207.5 98 353.5c0 128 -30 229.667 -90 305s-140 113 -240 113
c-119.333 0 -211.666 -40 -276.999 -120s-98 -174 -98 -282z" />
    <glyph glyph-name="uni0186" unicode="&#x186;" horiz-adv-x="1272" 
d="M135 143c106 -51.333 224.33 -76.999 354.997 -76.999c82 0 158 14.833 228 44.5s130.333 72.667 181 129s90.334 125.166 119.001 206.499s43 174 43 278c0 100 -14.5 189.833 -43.5 269.5s-69.667 147.167 -122 202.5s-115.166 97.833 -188.499 127.5
s-154.333 44.5 -243 44.5c-56 0 -112.167 -5.66699 -168.5 -17s-109.833 -28.333 -160.5 -51v105c50.667 17.333 104.334 30.5 161.001 39.5s112.667 13.5 168 13.5c102 0 195.667 -16.5 281 -49.5s159 -81 221 -144s110.333 -140.167 145 -231.5s52 -195.333 52 -312
c0 -113.333 -16.833 -215.833 -50.5 -307.5s-80.167 -170 -139.5 -235s-129.5 -115.167 -210.5 -150.5s-169.167 -53 -264.5 -53c-63.333 0 -125 5 -185 15s-119.333 27 -178 51v102z" />
    <glyph glyph-name="uni0187" unicode="&#x187;" horiz-adv-x="1272" 
d="M1048 1429c0 78.667 16.1631 138.165 48.4961 178.498s75.5 60.5 129.5 60.5c18.667 0 34.834 -1.33301 48.501 -4s26.167 -6.66699 37.5 -12v-89c-11.333 4 -23.166 7.33301 -35.499 10s-24.166 4 -35.499 4c-32.667 0 -58 -13 -76 -39s-27 -63.333 -27 -112
c0 -12 0.333008 -23.167 1 -33.5s1.66699 -20.5 3 -30.5s2.83301 -20.333 4.5 -31s3.83398 -22.334 6.50098 -35.001l-5 -3c-50.667 22.667 -104.167 40.834 -160.5 54.501s-112.5 20.5 -168.5 20.5c-180 0 -326.333 -61 -439 -183
c-112.667 -121.333 -169 -283.666 -169 -486.999c0 -195.333 53.667 -349.666 161 -462.999c108 -112.667 244.667 -169 410 -169c130.667 0 249 25.667 355 77v-96c-116 -48 -237 -72 -363 -72c-196 0 -356 65.667 -480 197c-123.333 132.667 -185 304.667 -185 516
c0 232.667 67 419 201 559c134 140.667 304.333 211 511 211c55.333 0 101.5 -3.16699 138.5 -9.5s66.5 -12.833 88.5 -19.5z" />
    <glyph glyph-name="uni0188" unicode="&#x188;" horiz-adv-x="948" 
d="M728 1035c0 78.667 16.1641 138.166 48.4971 178.499s75.5 60.5 129.5 60.5c18.667 0 34.834 -1.33301 48.501 -4s26.167 -6.66699 37.5 -12v-82c-11.333 4 -23.166 7.33301 -35.499 10s-24.166 4 -35.499 4c-32.667 0 -58 -14.167 -76 -42.5s-27 -66.833 -27 -115.5
c0 -12 0.333008 -23.167 1 -33.5s1.66699 -20.5 3 -30.5s2.83301 -20.333 4.5 -31s3.83398 -22.334 6.50098 -35.001l-5 -3c-36.667 22.667 -74.5 39.334 -113.5 50.001s-80.5 16 -124.5 16c-60 0 -114.667 -11.5 -164 -34.5s-91.833 -55 -127.5 -96
s-63.334 -90 -83.001 -147s-29.5 -119.5 -29.5 -187.5c0 -66 9 -126.167 27 -180.5s43.333 -100.833 76 -139.5s71.834 -68.5 117.501 -89.5s96.5 -31.5 152.5 -31.5c103.333 0 192.666 27.333 267.999 82v-96c-75.333 -46.667 -166 -70 -272 -70
c-70 0 -133.5 12.667 -190.5 38s-105.833 60.833 -146.5 106.5s-72.167 100.334 -94.5 164.001s-33.5 133.834 -33.5 210.501c0 80.667 12.833 155 38.5 223s61.167 126.667 106.5 176s99.5 87.666 162.5 114.999s131.833 41 206.5 41c22 0 42.833 -1 62.5 -3
s40.167 -5.66699 61.5 -11z" />
    <glyph glyph-name="uni0189" unicode="&#x189;" horiz-adv-x="1380" 
d="M184 0l-0.00195312 668h-149v88h149v678h359c238.667 0 419.834 -59.167 543.501 -177.5s185.5 -291.5 185.5 -519.5c0 -221.333 -67.167 -399.5 -201.5 -534.5s-317.166 -202.5 -548.499 -202.5h-338zM282.998 1343v-587h403v-88h-403v-578h225
c212 0 375.167 55 489.5 165s171.5 269.333 171.5 478c0 406.667 -213.667 610 -641 610h-245z" />
    <glyph glyph-name="uni018A" unicode="&#x18a;" horiz-adv-x="1476" 
d="M280 0l0.000976562 1343h-32c-54 0 -97.5 -14.167 -130.5 -42.5s-49.5 -70.833 -49.5 -127.5c0 -36.667 6.66699 -72.334 20 -107.001h-97c-14.667 36 -22 76.667 -22 122c0 32.667 5.5 63.834 16.5 93.501s27.833 55.834 50.5 78.501s51.334 40.667 86.001 54
s76 20 124 20h393c118.667 0 223.5 -15 314.5 -45s167.167 -74.333 228.5 -133s107.666 -131.334 138.999 -218.001s47 -187 47 -301c0 -108 -17 -207.167 -51 -297.5s-83.333 -168 -148 -233s-143.334 -115.667 -236.001 -152s-197.667 -54.5 -315 -54.5h-338z
M379.001 1343v-1253h225c106.667 0 201 14 283 42s151 69.333 207 124s98.5 121.834 127.5 201.501s43.5 171.5 43.5 275.5c0 406.667 -213.667 610 -641 610h-245z" />
    <glyph glyph-name="uni018B" unicode="&#x18b;" horiz-adv-x="1102" 
d="M92 414c0 68.667 11.667 127.167 35 175.5s55 87.833 95 118.5s86.333 53.167 139 67.5s108 21.5 166 21.5h292v546h-622v91h721v-1434h-396c-69.333 0 -130.833 11 -184.5 33s-98.667 51.833 -135 89.5s-63.833 81.5 -82.5 131.5s-28 103.333 -28 160zM195 406
c0 -43.333 6.66699 -84.166 20 -122.499s34 -71.833 62 -100.5s64 -51.334 108 -68.001s96.667 -25 158 -25h276v617h-270c-57.333 0 -108 -5.66699 -152 -17s-81 -29 -111 -53s-52.667 -55 -68 -93s-23 -84 -23 -138z" />
    <glyph glyph-name="uni018C" unicode="&#x18c;" horiz-adv-x="1147" 
d="M891 0v186.001h-4c-33.333 -64.667 -82.666 -116 -147.999 -154s-139 -57 -221 -57c-126 0 -228.833 46 -308.5 138s-119.5 219 -119.5 381c0 165.333 43.5 299.166 130.5 401.499s199.833 153.5 338.5 153.5c153.333 0 262.666 -63 327.999 -189h4v571h-700v85h792
v-1516h-92zM891 623.001c0 95.333 -30.167 176.167 -90.5 242.5s-141.5 99.5 -243.5 99.5c-107.333 0 -196 -41.167 -266 -123.5s-105 -195.5 -105 -339.5c0 -141.333 31.5 -250.5 94.5 -327.5s144.167 -115.5 243.5 -115.5c116.667 0 207 36.167 271 108.5
s96 160.5 96 264.5v191z" />
    <glyph glyph-name="uni018D" unicode="&#x18d;" horiz-adv-x="1184" 
d="M90 569c0 70.667 12.001 135.332 36.001 193.999s58 109.167 102 151.5s97.333 75.166 160 98.499s132.667 35 210 35c74 0 141.333 -12 202 -36s112.834 -56.833 156.501 -98.5s77.5 -90.667 101.5 -147s36 -116.833 36 -181.5c0 -73.333 -12.833 -138.5 -38.5 -195.5
s-59.667 -107 -102 -150s-90.666 -79.167 -144.999 -108.5s-109.833 -53.333 -166.5 -72l83.5 -53c29.667 -19.333 57.167 -41 82.5 -65s46.5 -50.833 63.5 -80.5s25.5 -62.5 25.5 -98.5c0 -35.333 -7.66699 -67.833 -23 -97.5s-38.666 -55.334 -69.999 -77.001
s-70.5 -38.5 -117.5 -50.5s-102.167 -18 -165.5 -18c-64 0 -122.5 6.83301 -175.5 20.5s-101.167 30.167 -144.5 49.5v106c22.667 -14 47.167 -26.667 73.5 -38s53.166 -21.166 80.499 -29.499s55 -14.833 83 -19.5s55 -7 81 -7c50 0 92.833 3.66699 128.5 11
s64.667 17.833 87 31.5s38.666 29.834 48.999 48.501s15.5 39.334 15.5 62.001c0 29.333 -7.16699 56 -21.5 80s-35.833 48 -64.5 72s-64.667 49 -108 75l-152 89c-54.667 31.333 -104.334 65.333 -149.001 102s-82.834 75.667 -114.501 117s-56.167 85.333 -73.5 132
s-26 96 -26 148zM187.001 578.998c0 -58 10.665 -109.997 31.998 -155.997s49.333 -87.667 84 -125s74 -71 118 -101s88.333 -57.667 133 -83c27.333 8.66699 57.5 19.167 90.5 31.5s65.833 27.166 98.5 44.499s64.334 37.666 95.001 60.999s57.834 50.666 81.501 81.999
s42.667 67 57 107s21.5 85.667 21.5 137c0 62 -11.167 117.167 -33.5 165.5s-52.166 88.833 -89.499 121.5s-80.833 57.5 -130.5 74.5s-101.834 25.5 -156.501 25.5s-106.334 -8.5 -155.001 -25.5s-91.167 -42 -127.5 -75s-65.166 -73.333 -86.499 -121
s-32 -102.167 -32 -163.5z" />
    <glyph glyph-name="uni018E" unicode="&#x18e;" horiz-adv-x="1024" 
d="M137 0v90h604v588h-530v90h530v575h-571v91h670v-1434h-703z" />
    <glyph glyph-name="uni018F" unicode="&#x18f;" horiz-adv-x="1494" 
d="M89 762h1193c-12 186 -69.167 333 -171.5 441s-232.5 162 -390.5 162c-156 0 -290.333 -32.333 -403 -97v115c105.333 50 233.333 75 384 75c212.667 0 379.834 -65.667 501.501 -197s182.5 -312.666 182.5 -543.999c0 -214.667 -60.667 -391.834 -182 -531.501
s-282.333 -209.5 -483 -209.5c-202 0 -357.667 66.5 -467 199.5s-164 328.5 -164 586.5zM1282 672l-1088 -0.000976562c3.33301 -184 51.666 -331 144.999 -441s220 -165 380 -165c160.667 0 290.834 54.833 390.501 164.5s157.167 256.834 172.5 441.501z" />
    <glyph glyph-name="uni0190" unicode="&#x190;" horiz-adv-x="1104" 
d="M116 370c0 47.333 7.66602 92.4961 22.999 135.496s38 81.333 68 115s67 61.834 111 84.501s94.667 37.667 152 45v4c-95.333 24.667 -168.333 68.334 -219 131.001s-76 140.334 -76 233.001c0 48 9 92.833 27 134.5s44.333 77.667 79 108s77.334 54.166 128.001 71.499
s109 26 175 26c74.667 0 140 -8.83301 196 -26.5s106 -38.834 150 -63.501v-98c-46 32 -97.667 57.333 -155 76s-118.333 28 -183 28c-54 0 -101 -7 -141 -21s-73.333 -33.167 -100 -57.5s-46.667 -53.166 -60 -86.499s-20 -69 -20 -107c0 -49.333 9.66699 -93.5 29 -132.5
s47 -72.167 83 -99.5s79.5 -48.166 130.5 -62.499s108.167 -21.5 171.5 -21.5h98v-84h-129c-69.333 0 -131.333 -6.5 -186 -19.5s-101 -32.667 -139 -59s-67 -59.833 -87 -100.5s-30 -88.667 -30 -144c0 -47.333 7.83301 -90.666 23.5 -129.999s39.667 -73 72 -101
s73.5 -49.833 123.5 -65.5s109.333 -23.5 178 -23.5c76 0 146 10.833 210 32.5s119 48.167 165 79.5v-99c-44 -28 -97.5 -51.167 -160.5 -69.5s-138.167 -27.5 -225.5 -27.5c-80.667 0 -151.167 10.333 -211.5 31s-110.5 49 -150.5 85s-70 78 -90 126s-30 99 -30 153z" />
    <glyph glyph-name="uni0191" unicode="&#x191;" horiz-adv-x="952" 
d="M184 1434l670 -0.000976562v-91h-571v-585h530v-90h-530v-606c0 -282 -95 -423 -285 -423c-32.667 0 -64 5 -94 15v96c32 -13.333 61.667 -20 89 -20c68.667 0 117.667 26.333 147 79s44 136.334 44 251.001v1374z" />
    <glyph glyph-name="florin" unicode="&#x192;" horiz-adv-x="1055" 
d="M911 1339c-21.333 8.66699 -44.3311 13 -68.998 13c-118.667 0 -187.667 -67 -207 -201l-33 -231h172v-82h-184l-98 -705c-20.667 -147.333 -56.5 -252.833 -107.5 -316.5s-117.833 -95.5 -200.5 -95.5c-22.667 0 -46.334 4.33301 -71.001 13v82
c27.333 -8.66699 49.666 -13 66.999 -13c117.333 0 190.333 108 219 324l97 711h-105v82h117l33 231c13.333 94 45.5 164.667 96.5 212s114.833 71 191.5 71c30 0 57.333 -3.66699 82 -11v-84z" />
    <glyph glyph-name="uni0193" unicode="&#x193;" horiz-adv-x="1368" 
d="M1096 1429c0 78.667 16.1641 138.167 48.4971 178.5s75.5 60.5 129.5 60.5c18.667 0 34.834 -1.33301 48.501 -4s26.167 -6.66699 37.5 -12v-89c-11.333 4 -23.166 7.33301 -35.499 10s-24.166 4 -35.499 4c-32.667 0 -58 -13 -76 -39s-27 -63.333 -27 -112
s5 -99 15 -151l-5 -3c-67.333 32 -132.666 56 -195.999 72s-126.333 24 -189 24c-180.667 0 -326 -61.667 -436 -185c-109.333 -123.333 -164 -280.666 -164 -471.999c0 -201.333 51.333 -359.333 154 -474c102.667 -114 241.667 -171 417 -171
c129.333 0 242.666 28 339.999 84v473h-338v90h437v-613c-148.667 -83.333 -301 -125 -457 -125c-195.333 0 -353.333 66.333 -474 199s-181 306.667 -181 522c0 217.333 65 398.666 195 543.999s303.667 218 521 218c46 0 91.667 -3.33301 137 -10s90 -16.667 134 -30v11z
" />
    <glyph glyph-name="uni0194" unicode="&#x194;" horiz-adv-x="1285" 
d="M690 117l34 -68.999c37.333 -75.333 64.333 -137.666 81 -186.999s25 -90.333 25 -123c0 -32 -4.5 -61.5 -13.5 -88.5s-22 -50.333 -39 -70s-38 -34.834 -63 -45.501s-53.833 -16 -86.5 -16c-64 0 -113.333 19 -148 57s-52 90.333 -52 157
c0 23.333 2.83301 47.666 8.5 72.999s13 50.833 22 76.5s19 51 30 76s22.167 49.167 33.5 72.5l42 89l-539 1315h111l454 -1124c8.66699 -24 16.167 -47.333 22.5 -70s11.166 -44.667 14.499 -66h4c3.33301 17.333 8.33301 37.333 15 60s15.334 48.667 26.001 78l482 1122
h106zM628 42.001c-14 -25.333 -27.166 -51.665 -39.499 -78.998s-23.166 -54.666 -32.499 -81.999s-16.833 -54 -22.5 -80s-8.5 -50.333 -8.5 -73c0 -38.667 8.83301 -69.334 26.5 -92.001s44.167 -34 79.5 -34c17.333 0 32.5 3.33301 45.5 10s23.667 15.667 32 27
s14.666 24.666 18.999 39.999s6.5 31.666 6.5 48.999c0 24 -3 49.167 -9 75.5s-13.833 53.166 -23.5 80.499s-20.834 54.333 -33.501 81s-26 52.334 -40 77.001z" />
    <glyph glyph-name="uni0195" unicode="&#x195;" horiz-adv-x="1755" 
d="M830 438l0.000976562 176.004c0 121.333 -20.833 210.166 -62.5 266.499s-106.834 84.5 -195.501 84.5c-83.333 0 -157 -34.333 -221 -103c-63.333 -68 -95 -166.333 -95 -295v-567h-92v1516h92v-676h4c77.333 139.333 189.666 209 336.999 209
c106 0 186.667 -35.5 242 -106.5s83 -173.5 83 -307.5v-178c0 -68.667 7.16699 -128 21.5 -178s35 -91.333 62 -124s59.667 -56.834 98 -72.501s81.166 -23.5 128.499 -23.5c42 0 81.833 8.5 119.5 25.5s70.834 42.5 99.501 76.5s51.334 76.833 68.001 128.5
s25 112.167 25 181.5c0 96 -11.833 191.5 -35.5 286.5s-55.5 183.833 -95.5 266.5h98c18.667 -37.333 35.667 -77.5 51 -120.5s28.5 -87.833 39.5 -134.5s19.5 -94.334 25.5 -143.001s9 -97.667 9 -147c0 -81.333 -10.167 -153.333 -30.5 -216
s-48.5 -115.334 -84.5 -158.001s-78.667 -75 -128 -97s-103 -33 -161 -33c-68.667 0 -128.167 11.5 -178.5 34.5s-92 55 -125 96s-57.667 89.833 -74 146.5s-24.5 118.667 -24.5 186z" />
    <glyph glyph-name="uni0196" unicode="&#x196;" horiz-adv-x="518" 
d="M375 -12c-37.333 0 -69.333 6.16797 -96 18.501s-48.5 29.666 -65.5 51.999s-29.5 49.166 -37.5 80.499s-12 66.333 -12 105v1190h92v-1192c0 -37.333 4.66699 -67.166 14 -89.499s20.666 -39.5 33.999 -51.5s27.333 -19.833 42 -23.5s27.667 -5.5 39 -5.5
c17.333 0 31.333 0.833008 42 2.5s20.667 4.16699 30 7.5v-80c-14.667 -5.33301 -29.167 -9 -43.5 -11s-27.166 -3 -38.499 -3z" />
    <glyph glyph-name="uni0197" unicode="&#x197;" horiz-adv-x="465" 
d="M420 688h-141v-688h-92v688h-142v84h142v662h92v-662h141v-84z" />
    <glyph glyph-name="uni0198" unicode="&#x198;" horiz-adv-x="1079" 
d="M389 746l671.997 -746h-139l-611 686c-11.333 12.667 -19.333 23.667 -24 33h-4v-719h-99v1434h99v-676h4c4 7.33301 8.33301 13.833 13 19.5l13 15.5l308 392c43.333 55.333 80.333 100 111 134s58 60.333 82 79s46.5 31.167 67.5 37.5s43.5 9.5 67.5 9.5
c19.333 0 35.333 -1.33301 48 -4s26.334 -6.66699 41.001 -12v-94c-14 6 -27.5 10.5 -40.5 13.5s-29.167 4.5 -48.5 4.5c-14 0 -27.667 -2.33301 -41 -7s-28.166 -13.667 -44.499 -27s-35.166 -31.833 -56.499 -55.5s-47 -54.5 -77 -92.5z" />
    <glyph glyph-name="uni0199" unicode="&#x199;" horiz-adv-x="909" 
d="M164 1115c0 282 95.001 423 285.001 423c32.667 0 64 -5 94 -15v-88c-30 12.667 -59.667 19 -89 19c-68.667 0 -118.834 -27.333 -150.501 -82s-47.5 -139.667 -47.5 -255v-578h4l465 485h119l-486 -496l525 -528h-133l-490 506h-4v-506h-92v1115z" />
    <glyph glyph-name="uni019A" unicode="&#x19a;" horiz-adv-x="465" 
d="M420 698h-141v-698h-92v698h-142v84h142v709h92v-709h141v-84z" />
    <glyph glyph-name="uni019B" unicode="&#x19b;" horiz-adv-x="1020" 
d="M877 0l-335.998 922.001l-404 -922h-100l459 1028l-34 98l-275 -134l-39 80l285 139l-9 28c-8 24 -17.667 47.833 -29 71.5s-25.333 45 -42 64s-36.334 34.333 -59.001 46s-49.667 17.5 -81 17.5c-14.667 0 -29.834 -1.33301 -45.501 -4s-31.167 -5.66699 -46.5 -9v88
c16.667 2.66699 33 4.83398 49 6.50098s31.667 2.5 47 2.5c39.333 0 74 -5.66699 104 -17s56.833 -28.333 80.5 -51s44.667 -50.834 63 -84.501s35.5 -72.834 51.5 -117.501l276 134l39 -80l-284 -139l428 -1167h-98z" />
    <glyph glyph-name="uni019C" unicode="&#x19c;" horiz-adv-x="1737" 
d="M276 1434l-0.000976562 -1020c0 -60 4.66699 -111.833 14 -155.5s23.833 -79.834 43.5 -108.501s45 -50 76 -64s68.167 -21 111.5 -21c40 0 77.833 9 113.5 27s66.834 42.833 93.501 74.5s47.834 69.5 63.501 113.5s23.5 92 23.5 144v1010h98v-1027
c0 -228 85.667 -342 257 -342c41.333 0 79.333 8.83301 114 26.5s64.667 42.667 90 75s45 71.166 59 116.499s21 95.666 21 150.999v1000h99v-1434h-99v170h-4c-36 -65.333 -78.833 -114.166 -128.5 -146.499s-108.834 -48.5 -177.501 -48.5c-37.333 0 -72 5.66699 -104 17
s-61 27.333 -87 48s-48.167 45.334 -66.5 74.001s-32.166 60.334 -41.499 95.001c-16 -37.333 -35.833 -70.5 -59.5 -99.5s-50 -53.5 -79 -73.5s-59.833 -35.167 -92.5 -45.5s-66.334 -15.5 -101.001 -15.5c-224 0 -336 138.667 -336 416v1043h99z" />
    <glyph glyph-name="uni019D" unicode="&#x19d;" horiz-adv-x="1452" 
d="M184 1434h75.999l848 -1149c18.667 -25.333 39 -56 61 -92h5c-3.33301 46.667 -5 86.667 -5 120v1121h99v-1434h-70l-854 1159c-17.333 23.333 -32.666 46.666 -45.999 69.999l-13 20h-4c1.33301 -17.333 2 -38.333 2 -63v-1124c0 -282 -95 -423 -285 -423
c-32.667 0 -64 5 -94 15v96c32 -13.333 61.667 -20 89 -20c68.667 0 117.667 26.333 147 79s44 136.334 44 251.001v1374z" />
    <glyph glyph-name="uni019E" unicode="&#x19e;" horiz-adv-x="1116" 
d="M860 -424l-0.000976562 1008c0 60 -4.5 113.333 -13.5 160s-24.167 86 -45.5 118s-49.5 56.5 -84.5 73.5s-78.5 25.5 -130.5 25.5c-54 0 -101.667 -11 -143 -33s-75.833 -50.167 -103.5 -84.5s-48.5 -73 -62.5 -116s-21 -85.5 -21 -127.5v-600h-92v713
c0 20.667 -0.5 44.334 -1.5 71.001s-2.66699 54 -5 82s-5.16602 55.667 -8.49902 83s-7.33301 52.333 -12 75h92c2 -10 4.33301 -22.667 7 -38s5 -32 7 -50s3.66699 -36.333 5 -55s2 -36 2 -52h4c22.667 48.667 49 87.5 79 116.5s60.833 51.167 92.5 66.5
s63.167 25.333 94.5 30s60 7 86 7c56.667 0 106.667 -9.5 150 -28.5s79.5 -46.333 108.5 -82s50.833 -79.334 65.5 -131.001s22 -109.834 22 -174.501v-1057h-92z" />
    <glyph glyph-name="uni019F" unicode="&#x19f;" horiz-adv-x="1559" 
d="M1450 739c0 -127.333 -17.332 -238.667 -51.999 -334s-82.167 -174.833 -142.5 -238.5s-131.666 -111.5 -213.999 -143.5s-171.5 -48 -267.5 -48c-108 0 -203.333 19 -286 57s-152.167 89.833 -208.5 155.5s-98.833 142.667 -127.5 231s-43 182.833 -43 283.5
c0 108.667 15 209.167 45 301.5s74.167 172.166 132.5 239.499s130.666 120 216.999 158s185.5 57 297.5 57c99.333 0 189 -17.833 269 -53.5s148.167 -85.167 204.5 -148.5s99.666 -139.166 129.999 -227.499s45.5 -184.833 45.5 -289.5zM772.001 65.999
c80.667 0 155.169 12.8311 223.502 38.498s127.666 63.834 177.999 114.501s90.5 113.834 120.5 189.501s47.333 163.5 52 263.5h-1134c4 -93.333 20 -177.5 48 -252.5s66.333 -138.667 115 -191s106.667 -92.5 174 -120.5s141.666 -42 222.999 -42zM784.003 1368
c-78.667 0 -151.83 -14.1699 -219.497 -42.5029s-126.834 -68.666 -177.501 -120.999s-91.334 -116 -122.001 -191s-48.334 -158.833 -53.001 -251.5h1135c-3.33301 100 -19.5 187.833 -48.5 263.5s-68.333 138.834 -118 189.501s-108.167 88.834 -175.5 114.501
s-141 38.5 -221 38.5z" />
    <glyph glyph-name="Ohorn" unicode="&#x1a0;" horiz-adv-x="1559" 
d="M774 -25c-101.333 0 -193.001 17.835 -275.001 53.502s-151.833 85.667 -209.5 150s-102.167 141 -133.5 230s-47 186.833 -47 293.5c0 114 16 217.5 48 310.5s78 172.5 138 238.5s132.667 117 218 153s181.333 54 288 54c146 0 271 -38 375 -114
c14.667 -2 30.5 -3.5 47.5 -4.5s34.167 -1.5 51.5 -1.5c34.667 0 64.334 3.16699 89.001 9.5s44.667 15.166 60 26.499s26.5 25 33.5 41s10.5 33.667 10.5 53c0 47.333 -7 90.666 -21 129.999h104c6 -18 10.5 -38 13.5 -60s4.5 -45 4.5 -69
c0 -74.667 -21.833 -129.5 -65.5 -164.5s-106.167 -52.5 -187.5 -52.5h-40c116 -131.333 174 -302.333 174 -513c0 -118 -16 -224.167 -48 -318.5s-77.5 -174.5 -136.5 -240.5s-130.167 -116.667 -213.5 -152s-176 -53 -278 -53zM783.999 1368
c-83.333 0 -160 -15.833 -230 -47.5s-130.333 -76.334 -181 -134.001s-90.334 -126.667 -119.001 -207s-43 -169.166 -43 -266.499c0 -98 13.333 -186.833 40 -266.5s64.334 -147.667 113.001 -204s107.5 -99.833 176.5 -130.5s146.167 -46 231.5 -46
c88.667 0 168.5 14.833 239.5 44.5s131.5 72.834 181.5 129.501s88.333 125.5 115 206.5s40 173.167 40 276.5c0 101.333 -13.167 191.833 -39.5 271.5s-64 147.167 -113 202.5s-108.333 97.666 -178 126.999s-147.5 44 -233.5 44z" />
    <glyph glyph-name="ohorn" unicode="&#x1a1;" horiz-adv-x="1149" 
d="M575 -25c-75.333 0 -143.001 12.999 -203.001 38.999s-110.833 62.5 -152.5 109.5s-73.667 103 -96 168s-33.5 136.5 -33.5 214.5c0 84.667 11.833 160.667 35.5 228s57.334 124.333 101.001 171s96 82.334 157 107.001s128.5 37 202.5 37c64 0 123 -9.66699 177 -29
c14 -1.33301 29.667 -2.33301 47 -3s33.666 -1 48.999 -1c34.667 0 64.334 3.16699 89.001 9.5s44.667 15.166 60 26.499s26.5 25 33.5 41s10.5 33.667 10.5 53c0 47.333 -7 90.666 -21 129.999h97c6 -18 10.5 -38 13.5 -60s4.5 -45 4.5 -69c0 -36 -5.5 -67 -16.5 -93
s-27 -47.667 -48 -65s-46.5 -30.5 -76.5 -39.5s-63.667 -14.167 -101 -15.5c51.333 -51.333 90 -111 116 -179s39 -149.667 39 -245c0 -78.667 -11 -150.667 -33 -216s-53.833 -121.666 -95.5 -168.999s-92.5 -84.166 -152.5 -110.499s-127.667 -39.5 -203 -39.5z
M581.999 964.999c-60 0 -114.332 -10.5 -162.999 -31.5s-90.334 -51.167 -125.001 -90.5s-61.334 -87.5 -80.001 -144.5s-28 -121.833 -28 -194.5c0 -66.667 9 -127.334 27 -182.001s44 -101.5 78 -140.5s75.167 -69.167 123.5 -90.5s102.833 -32 163.5 -32
c62 0 116.833 10.333 164.5 31s87.834 50.5 120.501 89.5s57.5 86.5 74.5 142.5s25.5 119.333 25.5 190c0 146.667 -33 258.834 -99 336.501s-160 116.5 -282 116.5z" />
    <glyph glyph-name="uni01A2" unicode="&#x1a2;" horiz-adv-x="1926" 
d="M1742 0l-98 -0.00195312v1336c-43.333 -10.667 -87.333 -18.834 -132 -24.501s-91.667 -8.5 -141 -8.5c-34.667 0 -69.167 1.33301 -103.5 4s-64.166 6.33398 -89.499 11.001v-1233c-39.333 -21.333 -77.166 -39 -113.499 -53s-72.333 -25.167 -108 -33.5
s-71 -14.166 -106 -17.499s-70.833 -5 -107.5 -5c-96 0 -183.167 17.667 -261.5 53s-145 84.833 -200 148.5s-97.5 139.834 -127.5 228.501s-45 186.667 -45 294c0 110 15.667 211.333 47 304s75.666 172.667 132.999 240s126.5 119.833 207.5 157.5s171.5 56.5 271.5 56.5
c62 0 120.5 -3.5 175.5 -10.5s107.167 -14.833 156.5 -23.5s96.333 -16.5 141 -23.5s87.667 -10.5 129 -10.5c69.333 0 133.666 5.66699 192.999 17s119 28.333 179 51v-1458zM1080 132.998l0.000976562 1198c-72.667 11.333 -135.334 20 -188.001 26s-96 9 -130 9
c-81.333 0 -155.833 -15.667 -223.5 -47s-125.667 -75.666 -174 -132.999s-86 -126 -113 -206s-40.5 -168.667 -40.5 -266s13 -185.666 39 -264.999s62.833 -147.5 110.5 -204.5s105 -101 172 -132s141.5 -46.5 223.5 -46.5c114.667 0 222.667 22.333 324 67z" />
    <glyph glyph-name="uni01A3" unicode="&#x1a3;" horiz-adv-x="1495" 
d="M1331 0h-92.001v922c-34 -8 -65.167 -14 -93.5 -18s-57.833 -6 -88.5 -6c-20.667 0 -44.667 0.666992 -72 2s-51.333 3.33301 -72 6v-861l-80 -30c-24 -8.66699 -47.5 -15.834 -70.5 -21.501s-46.833 -10 -71.5 -13s-52.334 -4.5 -83.001 -4.5
c-78.667 0 -150 12.333 -214 37s-118.5 59.834 -163.5 105.501s-79.667 100.834 -104 165.501s-36.5 137.334 -36.5 218.001c0 83.333 11.833 158.666 35.5 225.999s57.334 124.666 101.001 171.999s96.834 83.833 159.501 109.5s133 38.5 211 38.5
c34 0 71.5 -3.33301 112.5 -10s86.5 -16.334 136.5 -29.001c23.333 -6 44 -10.833 62 -14.5s35.333 -6.5 52 -8.5s33.667 -3.33301 51 -4s37 -1 59 -1s42.5 1.33301 61.5 4s38.5 6.83398 58.5 12.501s41.167 12.667 63.5 21l77.5 29.5v-1048zM820.999 930
c-48.667 11.333 -92.835 19.833 -132.502 25.5s-73.167 8.5 -100.5 8.5c-59.333 0 -113.666 -10.333 -162.999 -31s-92 -50.667 -128 -90s-64 -87.333 -84 -144s-30 -121 -30 -193c0 -70 10.333 -132.5 31 -187.5s49.834 -101.5 87.501 -139.5s82.5 -67 134.5 -87
s109.333 -30 172 -30c83.333 0 154.333 14.333 213 43v825z" />
    <glyph glyph-name="uni01A4" unicode="&#x1a4;" horiz-adv-x="1210" 
d="M379 575v-575h-99v1343h-32c-54 0 -97.5 -14.167 -130.5 -42.5s-49.5 -70.833 -49.5 -127.5c0 -36.667 6.66699 -72.334 20 -107.001h-97c-14.667 36 -22 76.667 -22 122c0 32.667 5.5 63.834 16.5 93.501s27.833 55.834 50.5 78.501s51.334 40.667 86.001 54
s76 20 124 20h380c148.667 0 261.667 -34 339 -102s116 -168 116 -300c0 -66 -11 -126.833 -33 -182.5s-54.167 -103.834 -96.5 -144.501s-94.333 -72.5 -156 -95.5s-131.834 -34.5 -210.501 -34.5h-206zM379 1343v-676.999h204c130 0 228.5 30.667 295.5 92
s100.5 148.666 100.5 261.999c0 215.333 -123.667 323 -371 323h-229z" />
    <glyph glyph-name="uni01A5" unicode="&#x1a5;" horiz-adv-x="1147" 
d="M164 1115c0 282 95.0029 423 285.003 423c32.667 0 64 -5 94 -15v-88c-30 12.667 -59.667 19 -89 19c-68.667 0 -118.834 -27.333 -150.501 -82s-47.5 -139.667 -47.5 -255v-304h4c37.333 75.333 89.666 133.333 156.999 174c69.333 41.333 144.666 62 225.999 62
c129.333 0 230.666 -45 303.999 -135c73.333 -89.333 110 -211 110 -365c0 -171.333 -42 -310 -126 -416c-83.333 -105.333 -193.666 -158 -330.999 -158c-154 0 -267.333 69 -340 207h-4v-653h-92v1586zM256.003 563v-129.001c0 -103.333 32.333 -191.666 97 -264.999
c65.333 -73.333 150.333 -110 255 -110s189.667 44.667 255 134c65.333 90.667 98 208.667 98 354c0 128 -30 229.667 -90 305s-140 113 -240 113c-120 0 -212.333 -40 -277 -120c-65.333 -80.667 -98 -174.667 -98 -282z" />
    <glyph glyph-name="uni01A6" unicode="&#x1a6;" horiz-adv-x="1137" 
d="M918 -150l-191 419.999c-38.667 86 -78 144 -118 174c-39.333 30 -88.666 45 -147.999 45h-178v-489h-99v1434h99v-150h299c127.333 0 226.666 -34.333 297.999 -103c72.667 -68 109 -158 109 -270c0 -103.333 -29.667 -189.666 -89 -258.999s-142.333 -114 -249 -134v-4
c56.667 -22.667 112 -91.667 166 -207l213 -457h-112zM283 1193v-614.001h247c108.667 0 195.334 28.667 260.001 86c64.667 56.667 97 135.334 97 236.001c0 92 -28.833 163.667 -86.5 215s-140.834 77 -249.501 77h-268z" />
    <glyph glyph-name="uni01A7" unicode="&#x1a7;" horiz-adv-x="1018" 
d="M565 -25c-73.333 0 -137.669 8.83496 -193.002 26.502s-101.666 42 -138.999 73s-65.333 67.667 -84 110s-28 88.166 -28 137.499c0 58.667 8.5 109 25.5 151s41 79.167 72 111.5s68.167 61.833 111.5 88.5s91 53.667 143 81c61.333 32.667 112 62 152 88
s71.833 52.5 95.5 79.5s40.167 56.167 49.5 87.5s14 69 14 113c0 37.333 -6.83301 71.166 -20.5 101.499s-33.334 56.166 -59.001 77.499s-56.667 37.833 -93 49.5s-77.166 17.5 -122.499 17.5c-48 0 -96.667 -4.66699 -146 -14s-95 -23.666 -137 -42.999v104
c42.667 14.667 86.5 25.5 131.5 32.5s96.167 10.5 153.5 10.5c58 0 111.333 -8 160 -24s90.5 -38.833 125.5 -68.5s62.167 -65.167 81.5 -106.5s29 -87 29 -137c0 -53.333 -7.16699 -100 -21.5 -140s-35.5 -76.5 -63.5 -109.5s-62.667 -63.833 -104 -92.5
s-89.333 -57.667 -144 -87l-136 -75.5c-40.667 -23 -75.5 -47.833 -104.5 -74.5s-51.333 -56.834 -67 -90.501s-23.5 -74.5 -23.5 -122.5c0 -40 7.5 -76.167 22.5 -108.5s37 -60 66 -83s65 -40.833 108 -53.5s92.5 -19 148.5 -19c52.667 0 108 8 166 24
s111.667 38.333 161 67v-106c-16 -9.33301 -36 -18.666 -60 -27.999s-50.5 -17.5 -79.5 -24.5s-59.667 -12.667 -92 -17s-65.166 -6.5 -98.499 -6.5z" />
    <glyph glyph-name="uni01A8" unicode="&#x1a8;" horiz-adv-x="795" 
d="M428 -25c-108 0 -189.333 22.8311 -244 68.498s-82 109.5 -82 191.5c0 40 6.83301 75.5 20.5 106.5s33.334 58.833 59.001 83.5s56.5 47.334 92.5 68.001s76.333 40.667 121 60c42 18.667 76.667 36.334 104 53.001s48.833 33.667 64.5 51s26.667 35.5 33 54.5
s9.5 40.5 9.5 64.5c0 28 -5.66699 53.667 -17 77s-26.666 43.166 -45.999 59.499s-42.333 29.166 -69 38.499s-55.334 14 -86.001 14c-40.667 0 -81.834 -6.16699 -123.501 -18.5s-81.5 -30.833 -119.5 -55.5v104c32 18 68.167 31.5 108.5 40.5s87.5 13.5 141.5 13.5
c44.667 0 85.834 -6.33301 123.501 -19s70 -30.834 97 -54.501s48.167 -52.167 63.5 -85.5s23 -70.666 23 -111.999c0 -34 -4.83301 -65 -14.5 -93s-24.667 -54 -45 -78s-46.666 -46.5 -78.999 -67.5s-71.166 -41.5 -116.499 -61.5
c-46.667 -20.667 -85.834 -40 -117.501 -58s-57.334 -36.333 -77.001 -55s-33.667 -38.667 -42 -60s-12.5 -45.666 -12.5 -72.999c0 -55.333 19.333 -98 58 -128s94.334 -45 167.001 -45c21.333 0 45 2.33301 71 7s51.833 11.167 77.5 19.5s50.167 18.5 73.5 30.5
s43.666 25.333 60.999 40v-105c-16.667 -12 -35.834 -22.667 -57.501 -32s-44.667 -17.166 -69 -23.499s-49.5 -11.333 -75.5 -15s-51.333 -5.5 -76 -5.5z" />
    <glyph glyph-name="uni01A9" unicode="&#x1a9;" horiz-adv-x="1057" 
d="M18 0v35l543 706l-463 645v48h856v-91h-704l430 -600l-498 -653h817v-90h-981z" />
    <glyph glyph-name="uni01AA" unicode="&#x1aa;" horiz-adv-x="606" 
d="M276 1082c-16.667 -10.667 -36.666 -18.332 -59.999 -22.999s-45.666 -7 -66.999 -7c-34.667 0 -66.667 6 -96 18s-54.5 28.5 -75.5 49.5s-37.5 46 -49.5 75s-18 60.833 -18 95.5s5.16699 67 15.5 97s25.333 56.167 45 78.5s43.667 40 72 53s60.5 19.5 96.5 19.5
c44 0 80.833 -8.33301 110.5 -25s53.167 -40 70.5 -70s29.666 -65.5 36.999 -106.5s11 -85.833 11 -134.5v-1400c0 -70.667 11.167 -121.834 33.5 -153.501s60.166 -47.5 113.499 -47.5c38.667 0 79.667 12.333 123 37v-86c-47.333 -22.667 -92.333 -34 -135 -34
c-151.333 0 -227 90.667 -227 272v1292zM276.001 1186c0 90 -10.499 157.333 -31.499 202s-56.833 67 -107.5 67c-17.333 0 -34.166 -3 -50.499 -9s-31 -15.5 -44 -28.5s-23.333 -29.833 -31 -50.5s-11.5 -46 -11.5 -76c0 -26.667 4 -49.667 12 -69s18.667 -35.5 32 -48.5
s29 -22.667 47 -29s37 -9.5 57 -9.5c23.333 0 45.166 2.16699 65.499 6.5s41.166 13.5 62.499 27.5v17z" />
    <glyph glyph-name="uni01AB" unicode="&#x1ab;" horiz-adv-x="608" 
d="M434 -20c-151.333 0 -226.998 90.667 -226.998 272v688h-184v84h184v266l22.5 8l23.5 8l23.5 7.5c7.66699 2.33301 15.167 4.83301 22.5 7.5v-297h270v-84h-270v-676c0 -70.667 11.167 -121.834 33.5 -153.501s60.166 -47.5 113.499 -47.5c23.333 0 48 4.83301 74 14.5
s48.667 20.5 68 32.5v-138c0 -47.333 -4.66699 -91.333 -14 -132s-25 -76 -47 -106s-50.833 -53.5 -86.5 -70.5s-79.834 -25.5 -132.501 -25.5c-16 0 -32.667 1.16699 -50 3.5s-33.666 6.16602 -48.999 11.499v88c15.333 -6.66699 32.666 -11.5 51.999 -14.5
s36 -4.5 50 -4.5c27.333 0 52.333 2.66699 75 8s42.167 16.833 58.5 34.5s29 42.834 38 75.501s13.5 76.334 13.5 131.001v17c-11.333 -2.66699 -22 -4.66699 -32 -6s-20 -2 -30 -2z" />
    <glyph glyph-name="uni01AC" unicode="&#x1ac;" horiz-adv-x="1047" 
d="M573 1343l-0.000976562 -1343h-98v1343h-227c-54 0 -97.5 -14.167 -130.5 -42.5s-49.5 -70.833 -49.5 -127.5c0 -36.667 6.66699 -72.334 20 -107.001h-97c-14.667 36 -22 76.667 -22 122c0 32.667 5.5 63.834 16.5 93.501s27.833 55.834 50.5 78.501
s51.334 40.667 86.001 54s76 20 124 20h741v-91h-414z" />
    <glyph glyph-name="uni01AD" unicode="&#x1ad;" horiz-adv-x="608" 
d="M207 1178c0 54.667 6 104.169 18 148.502s29.833 82.166 53.5 113.499s53.334 55.5 89.001 72.5s77.167 25.5 124.5 25.5c32.667 0 64 -5 94 -15v-88c-30 12.667 -59.667 19 -89 19c-34 0 -63.5 -6.5 -88.5 -19.5s-45.667 -31.667 -62 -56s-28.333 -54 -36 -89
s-11.5 -74.167 -11.5 -117.5v-148h283v-84h-283v-676c0 -70.667 11.167 -121.834 33.5 -153.501s60.166 -47.5 113.499 -47.5c38.667 0 79.667 12.333 123 37v-86c-47.333 -22.667 -92.333 -34 -135 -34c-151.333 0 -227 90.667 -227 272v688h-184v84h184v154z" />
    <glyph glyph-name="uni01AE" unicode="&#x1ae;" horiz-adv-x="1047" 
d="M573 40c0 -57.333 3.50098 -105.664 10.501 -144.997s18.333 -71.333 34 -96s35.667 -42.334 60 -53.001s53.5 -16 87.5 -16c14 0 28.5 1.16699 43.5 3.5s30.167 6.83301 45.5 13.5v-93c-30 -10 -61.333 -15 -94 -15c-47.333 0 -88.833 7.16699 -124.5 21.5
s-65.334 37.166 -89.001 68.499s-41.5 71.666 -53.5 120.999s-18 109.333 -18 180v1313h-414v91h926v-91h-414v-1303z" />
    <glyph glyph-name="Uhorn" unicode="&#x1af;" horiz-adv-x="1362" 
d="M1161 573c0 -398.667 -170.001 -597.998 -510.001 -597.998c-323.333 0 -485 192 -485 576v883h98v-869c0 -332.667 135.333 -499 406 -499c262 0 393 161.667 393 485v883h68c34.667 0 64.334 3.16699 89.001 9.5s44.667 15.166 60 26.499s26.5 25 33.5 41
s10.5 33.667 10.5 53c0 47.333 -7 90.666 -21 129.999h104c6 -18 10.5 -38 13.5 -60s4.5 -45 4.5 -69c0 -74.667 -21.833 -129.5 -65.5 -164.5s-106.167 -52.5 -187.5 -52.5h-11v-775z" />
    <glyph glyph-name="uhorn" unicode="&#x1b0;" horiz-adv-x="1121" 
d="M932 0l-92 0.00195312v186h-4c-70.667 -140.667 -180.667 -211 -330 -211c-242 0 -363 152.333 -363 457v592h93v-569c0 -69.333 5.66699 -129 17 -179s28.5 -91 51.5 -123s52.333 -55.667 88 -71s78.167 -23 127.5 -23c94.667 0 171.667 35 231 105
c59.333 70.667 89 164 89 280v580h19c70 0 119.667 11.667 149 35s44 54.666 44 93.999c0 47.333 -7 90.666 -21 129.999h97c6 -18 10.5 -38 13.5 -60s4.5 -45 4.5 -69c0 -34 -5.16699 -63.667 -15.5 -89s-25 -46.666 -44 -63.999s-41.5 -30.833 -67.5 -40.5
s-55 -15.834 -87 -18.501v-942z" />
    <glyph glyph-name="uni01B1" unicode="&#x1b1;" horiz-adv-x="1546" 
d="M587 1434v-89.999c-250 -185.333 -375 -413.333 -375 -684c0 -90 13.167 -171.667 39.5 -245s63.833 -135.833 112.5 -187.5s107.334 -91.5 176.001 -119.5s145 -42 229 -42c88 0 167.667 14 239 42s132.166 67.833 182.499 119.5s89.333 113.667 117 186
s41.5 153.166 41.5 242.499c0 273.333 -125.667 502.666 -377 687.999v90h477v-90h-352c236 -179.333 354 -409.333 354 -690c0 -102 -16.167 -194.833 -48.5 -278.5s-78 -155 -137 -214s-129.5 -104.667 -211.5 -137s-172.667 -48.5 -272 -48.5
c-102 0 -194.5 15.667 -277.5 47s-153.667 76 -212 134s-103.333 128.667 -135 212s-47.5 177 -47.5 281c0 137.333 32 267 96 389c63.333 122.667 149.333 224.334 258 305.001h-354v90h477z" />
    <glyph glyph-name="uni01B2" unicode="&#x1b2;" horiz-adv-x="1396" 
d="M1176 821c0 100.667 -7.83691 184.998 -23.5039 252.998s-36.167 122.833 -61.5 164.5s-53.833 71.334 -85.5 89.001s-63.5 26.5 -95.5 26.5c-24.667 0 -46 -1.66699 -64 -5s-38 -8.33301 -60 -15v88c11.333 4 21.833 7.33301 31.5 10s19.334 4.83398 29.001 6.50098
s19.834 3 30.501 4s22.667 1.5 36 1.5c42 0 84.333 -10 127 -30s81.334 -53.833 116.001 -101.5s62.834 -111.167 84.501 -190.5s32.5 -178 32.5 -296c0 -144.667 -13 -270.334 -39 -377.001s-63.333 -195.167 -112 -265.5s-108.167 -122.666 -178.5 -156.999
s-149.833 -51.5 -238.5 -51.5c-352 0 -528 192 -528 576v883h98v-869c0 -332.667 142 -499 426 -499c76.667 0 144.667 14.667 204 44s109 74.833 149 136.5s70.333 140 91 235s31 208.167 31 339.5z" />
    <glyph glyph-name="uni01B3" unicode="&#x1b3;" horiz-adv-x="1157" 
d="M598 545l0.00195312 -545h-98v543l-439 891h111l334 -691c12.667 -25.333 27.667 -60.666 45 -105.999h4c1.33301 3.33301 6.16602 14.833 14.499 34.5s19.5 43.5 33.5 71.5l256 505c22.667 44.667 44.5 80.667 65.5 108s41.167 48.166 60.5 62.499
s37.666 23.833 54.999 28.5s34 7 50 7c18.667 0 34.834 -1.33301 48.501 -4s26.167 -6.66699 37.5 -12v-89c-11.333 4 -24.5 7.33301 -39.5 10s-28.167 4 -39.5 4c-10 0 -20.333 -2 -31 -6s-22.334 -11.833 -35.001 -23.5s-26.667 -28.5 -42 -50.5s-32.333 -51 -51 -87z" />
    <glyph glyph-name="uni01B4" unicode="&#x1b4;" horiz-adv-x="1007" 
d="M418 -206c-18.667 -46 -38.1699 -86.335 -58.5029 -121.002s-42.833 -63.334 -67.5 -86.001s-51.5 -39.667 -80.5 -51s-61.167 -17 -96.5 -17c-29.333 0 -56 4.66699 -80 14v92c24.667 -9.33301 52.667 -14 84 -14c40.667 0 78.334 14.667 113.001 44
s65.334 77 92.001 143l84 210l-388 1016h103l292 -790c8.66699 -23.333 15.667 -45.666 21 -66.999l12 -47h4l23 78l215 569c16.667 44 33 82.833 49 116.5s33.333 61.834 52 84.501s39.334 39.834 62.001 51.501s49.334 17.5 80.001 17.5c12 0 24.167 -0.833008 36.5 -2.5
s24.833 -3.83398 37.5 -6.50098v-88c-11.333 3.33301 -22.833 6.33301 -34.5 9s-22.834 4 -33.501 4c-18 0 -33.833 -4.16699 -47.5 -12.5s-26.5 -20.666 -38.5 -36.999s-23.667 -37 -35 -62s-23.333 -54.167 -36 -87.5z" />
    <glyph glyph-name="uni01B5" unicode="&#x1b5;" horiz-adv-x="1168" 
d="M215 90h858v-90h-1007v31l432 653h-223v88h281l378 571h-799v91h952v-27l-421 -635h260v-88h-318z" />
    <glyph glyph-name="uni01B6" unicode="&#x1b6;" horiz-adv-x="950" 
d="M207 84h661v-84h-811v35l333 443h-164v84h227l284 378h-631v84h787v-25l-328 -437h166v-84h-229z" />
    <glyph glyph-name="uni01B7" unicode="&#x1b7;" horiz-adv-x="1228" 
d="M446 656c102.667 -6 195.833 -22.833 279.5 -50.5s155 -65.334 214 -113.001s104.5 -104.5 136.5 -170.5s48 -140.333 48 -223c0 -83.333 -15.167 -160.333 -45.5 -231s-74 -132 -131 -184s-126.5 -92.667 -208.5 -122s-174.667 -44 -278 -44c-88 0 -166 5 -234 15
s-132.667 27 -194 51v102c28 -12.667 57.167 -23.834 87.5 -33.501s63 -17.667 98 -24s72.5 -11.166 112.5 -14.499s84 -5 132 -5c87.333 0 165.666 11.833 234.999 35.5s128.333 56.834 177 99.501s85.834 93.5 111.501 152.5s38.5 123.833 38.5 194.5
c0 74.667 -15.5 142 -46.5 202s-75.5 111 -133.5 153s-128.333 74.333 -211 97s-176 34 -280 34h-31v60l558 706h-799v91h952v-32z" />
    <glyph glyph-name="uni01B8" unicode="&#x1b8;" horiz-adv-x="1228" 
d="M196 1402l0.000976562 32h952v-91h-799l558 -706v-60h-31c-104 0 -197.333 -11.333 -280 -34s-153 -55 -211 -97s-102.5 -93 -133.5 -153s-46.5 -127.333 -46.5 -202c0 -70.667 12.833 -135.5 38.5 -194.5s62.834 -109.833 111.501 -152.5s107.667 -75.834 177 -99.501
s147.666 -35.5 234.999 -35.5c48 0 92 1.66699 132 5s77.5 8.16602 112.5 14.499s67.667 14.333 98 24s59.5 20.834 87.5 33.501v-102c-61.333 -24 -126 -41 -194 -51s-146 -15 -234 -15c-103.333 0 -196 14.667 -278 44s-151.5 70 -208.5 122s-100.667 113.333 -131 184
s-45.5 147.667 -45.5 231c0 82.667 16 157 48 223s77.5 122.833 136.5 170.5s130.167 85.334 213.5 113.001s176.666 44.5 279.999 50.5z" />
    <glyph glyph-name="uni01B9" unicode="&#x1b9;" horiz-adv-x="936" 
d="M110 999l0.000976562 25.001h787v-84h-631l447 -585v-24h-121c-68 0 -130.333 -8.66699 -187 -26s-105.334 -42.166 -146.001 -74.499s-72.334 -72 -95.001 -119s-34 -100.167 -34 -159.5c0 -54 9.83301 -102.5 29.5 -145.5s47.834 -79.333 84.501 -109
s81.5 -52.5 134.5 -68.5s113.167 -24 180.5 -24c42.667 0 81.667 1.66699 117 5s68.333 8.5 99 15.5s59.167 15.5 85.5 25.5s51.5 22 75.5 36v-96c-46.667 -23.333 -99.5 -40.833 -158.5 -52.5s-130.167 -17.5 -213.5 -17.5c-84 0 -158.833 9.66699 -224.5 29
s-121 47.333 -166 84s-79.333 81.667 -103 135s-35.5 113.666 -35.5 180.999c0 71.333 12.833 134.833 38.5 190.5s61.667 103.167 108 142.5s101.833 70.166 166.5 92.499s135.667 35.833 213 40.5z" />
    <glyph glyph-name="uni01BA" unicode="&#x1ba;" horiz-adv-x="838" 
d="M449 595c46 0 89.3311 -5.49609 129.998 -16.4961s76 -27.333 106 -49s53.667 -48.334 71 -80.001s26 -68.167 26 -109.5c0 -36 -5.83301 -69.667 -17.5 -101s-30.334 -60.5 -56.001 -87.5s-59 -51.5 -100 -73.5s-90.5 -42 -148.5 -60
c-62.667 -18.667 -115 -36.334 -157 -53.001s-75.667 -34 -101 -52s-43.333 -37.667 -54 -59s-16 -45.666 -16 -72.999c0 -26 5.83301 -49.833 17.5 -71.5s28.5 -40.167 50.5 -55.5s49 -27.333 81 -36s68 -13 108 -13c24 0 49.5 1.83301 76.5 5.5s54 9 81 16
s53 15.833 78 26.5s47.5 22.667 67.5 36v-98c-36.667 -22 -80.667 -39.167 -132 -51.5s-110.666 -18.5 -177.999 -18.5c-50.667 0 -97.167 5.83301 -139.5 17.5s-78.833 28.667 -109.5 51s-54.5 49.666 -71.5 81.999s-25.5 68.833 -25.5 109.5c0 46 10.5 85.167 31.5 117.5
s49.167 60.166 84.5 83.499s76 43.5 122 60.5s93.667 33.167 143 48.5c59.333 18.667 106.833 37.167 142.5 55.5s63 37.166 82 56.499s31.5 39.5 37.5 60.5s9 43.5 9 67.5c0 24.667 -4.33301 48 -13 70s-23.167 41.167 -43.5 57.5s-47.666 29.333 -81.999 39
s-77.166 14.5 -128.499 14.5l-120 -1v30l311 399h-570v84h718v-25z" />
    <glyph glyph-name="uni01BB" unicode="&#x1bb;" horiz-adv-x="1067" 
d="M82 0l0.000976562 98l391 416l31 33l29 32h-305v91h386c31.333 36 58 68.5 80 97.5s39.667 54.167 53 75.5c44 70.667 66 149.334 66 236.001c0 94 -25.833 166.667 -77.5 218s-125.5 77 -221.5 77c-126 0 -245.333 -49.667 -358 -149v108
c109.333 83.333 232.666 125 369.999 125c61.333 0 115.833 -8.66699 163.5 -26s87.667 -42 120 -74s57 -70.333 74 -115s25.5 -94.334 25.5 -149.001c0 -98 -23.667 -187.333 -71 -268c-24.667 -42 -63 -94 -115 -156h200v-91h-278l-52.5 -58l-57.5 -62l-351 -371v-4h777
v-84h-879z" />
    <glyph glyph-name="uni01BC" unicode="&#x1bc;" horiz-adv-x="1084" 
d="M897 1350l-514.996 -0.000976562l-68 -510l51.5 3.5c15 1 28.167 1.83301 39.5 2.5s21.666 1.16699 30.999 1.5s18 0.5 26 0.5c81.333 0 153 -9.5 215 -28.5s113.833 -46.667 155.5 -83s73 -80.666 94 -132.999s31.5 -111.5 31.5 -177.5
c0 -66.667 -11.333 -127.667 -34 -183s-55.834 -102.833 -99.501 -142.5s-97.334 -70.5 -161.001 -92.5s-136.834 -33 -219.501 -33c-112 0 -207.333 18 -286 54v106c99.333 -50.667 198.333 -76 297 -76c64 0 121.167 8.5 171.5 25.5s93 41 128 72s61.667 68.333 80 112
s27.5 92.167 27.5 145.5c0 233.333 -141.667 350 -425 350c-64 0 -139 -4 -225 -12l77 598h-179v84h787v-84z" />
    <glyph glyph-name="uni01BD" unicode="&#x1bd;" horiz-adv-x="778" 
d="M91 24l0.000976562 101.004c34 -18.667 71.167 -34.334 111.5 -47.001s85.5 -19 135.5 -19c38.667 0 73.5 5.66699 104.5 17s57.5 27.166 79.5 47.499s38.833 44.833 50.5 73.5s17.5 60.334 17.5 95.001c0 34 -5.5 64.667 -16.5 92s-27 50.666 -48 69.999
s-46.5 34.166 -76.5 44.499s-64 15.5 -102 15.5c-11.333 0 -24.333 -0.333008 -39 -1s-30.334 -1.66699 -47.001 -3s-33.667 -2.83301 -51 -4.5s-34 -3.5 -50 -5.5l69 440h-123v84h553v-84h-352l-52 -351c18 3.33301 33.833 5.66602 47.5 6.99902s30.167 2 49.5 2
c53.333 0 100.833 -7.33301 142.5 -22s76.667 -35.334 105 -62.001s50 -58.5 65 -95.5s22.5 -77.833 22.5 -122.5c0 -47.333 -8.66699 -90.666 -26 -129.999s-41.5 -73 -72.5 -101s-67.5 -49.833 -109.5 -65.5s-88 -23.5 -138 -23.5c-30 0 -56.667 1 -80 3
s-44.833 5 -64.5 9s-38 9 -55 15s-33.833 13 -50.5 21z" />
    <glyph glyph-name="uni01BE" unicode="&#x1be;" horiz-adv-x="807" 
d="M303 787c0 -24 2.3291 -45.998 6.99609 -65.998s13.834 -39.167 27.501 -57.5s33.334 -36.333 59.001 -54s59.5 -36.5 101.5 -56.5c40 -19.333 75.833 -38.333 107.5 -57s58.667 -39.334 81 -62.001s39.5 -48.334 51.5 -77.001s18 -62.334 18 -101.001
c0 -40 -8.16699 -77.167 -24.5 -111.5s-39.5 -64 -69.5 -89s-66.167 -44.667 -108.5 -59s-89.5 -21.5 -141.5 -21.5c-62 0 -115.167 5.83301 -159.5 17.5s-84.166 29.167 -119.499 52.5v111c18 -14.667 38.667 -28 62 -40s47.5 -22.167 72.5 -30.5
s49.833 -14.833 74.5 -19.5s47 -7 67 -7c80 0 141.833 16.167 185.5 48.5s65.5 80.166 65.5 143.499c0 24 -4 45.833 -12 65.5s-20.333 38 -37 55s-38 33.5 -64 49.5s-57.333 32.667 -94 50c-45.333 21.333 -83.5 43 -114.5 65s-56 45.333 -75 70s-32.5 50.834 -40.5 78.501
s-12 57.834 -12 90.501v165h-184v84h184v266l46.5 15.5c15.667 5 30.834 10.167 45.501 15.5v-297h270v-84h-270v-153z" />
    <glyph glyph-name="uni01BF" unicode="&#x1bf;" horiz-adv-x="1118" 
d="M256 -45l-0.000976562 -426h-92v1495h92v-162c28 24.667 57.167 48.334 87.5 71.001s63 42.5 98 59.5s72.167 30.667 111.5 41s82 15.5 128 15.5c55.333 0 105.833 -8.5 151.5 -25.5s85 -40.667 118 -71s58.667 -66.5 77 -108.5s27.5 -88 27.5 -138
c0 -148.667 -71 -289.334 -213 -422.001c-35.333 -33.333 -75.666 -65.833 -120.999 -97.5s-93.5 -61.5 -144.5 -89.5s-103.833 -54.167 -158.5 -78.5s-108.667 -45.5 -162 -63.5zM958.999 700c0 40 -7.16895 76.168 -21.502 108.501s-34.166 60 -59.499 83
s-55.166 40.667 -89.499 53s-71.5 18.5 -111.5 18.5c-43.333 0 -84.333 -5.66699 -123 -17s-75.5 -26.5 -110.5 -45.5s-68 -40.833 -99 -65.5s-60.5 -50.334 -88.5 -77.001v-712c103.333 38 196.833 80.5 280.5 127.5s158.167 100.167 223.5 159.5
c65.333 60 114.833 119.5 148.5 178.5s50.5 121.833 50.5 188.5z" />
    <glyph glyph-name="uni01C0" unicode="&#x1c0;" horiz-adv-x="463" 
d="M184 -481v2048h95v-2048h-95z" />
    <glyph glyph-name="uni01C1" unicode="&#x1c1;" horiz-adv-x="742" 
d="M463 -481v2048h95v-2048h-95zM184 -481v2048h95v-2048h-95z" />
    <glyph glyph-name="uni01C2" unicode="&#x1c2;" horiz-adv-x="934" 
d="M419 -481v843h-365v84h365v304h-365v84h365v733h95v-733h367v-84h-367v-304h367v-84h-367v-843h-95z" />
    <glyph glyph-name="uni01C3" unicode="&#x1c3;" horiz-adv-x="582" 
d="M332 403h-86l-10 1031h106zM291 -18c-22.667 0 -41.667 7.83301 -57 23.5s-23 34.834 -23 57.501c0 23.333 7.66699 42.5 23 57.5s34.333 22.5 57 22.5s42 -7.5 58 -22.5s24 -34.167 24 -57.5c0 -22.667 -8 -41.834 -24 -57.501s-35.333 -23.5 -58 -23.5z" />
    <glyph glyph-name="uni01C4" unicode="&#x1c4;" horiz-adv-x="2499" 
d="M184 0v1434h359c238 0 419 -59.333 543 -178s186 -291.667 186 -519c0 -218.667 -66.5 -396.167 -199.5 -532.5s-316.5 -204.5 -550.5 -204.5h-338zM283 1343v-1253h225c212.667 0 376 55.167 490 165.5s171 269.5 171 477.5c0 406.667 -213.667 610 -641 610h-245z
M1547 90h858v-90h-1007v31l868 1312h-799v91h952v-27zM1956 1530h-45l-220 336h86l158 -240l160 240h82z" />
    <glyph glyph-name="uni01C5" unicode="&#x1c5;" horiz-adv-x="2312" 
d="M184 0v1434h359c238 0 419 -59.333 543 -178s186 -291.667 186 -519c0 -218.667 -66.5 -396.167 -199.5 -532.5s-316.5 -204.5 -550.5 -204.5h-338zM283 1343v-1253h225c212.667 0 376 55.167 490 165.5s171 269.5 171 477.5c0 406.667 -213.667 610 -641 610h-245z
M1569 84h661v-84h-811v35l680 905h-631v84h787v-25zM1889 1188h-45l-220 336h86l158 -240l160 240h82z" />
    <glyph glyph-name="uni01C6" unicode="&#x1c6;" horiz-adv-x="2039" 
d="M891 0v186.001h-4c-33.333 -64.667 -82.666 -116 -147.999 -154s-139 -57 -221 -57c-126 0 -228.833 46 -308.5 138s-119.5 219 -119.5 381c0 165.333 43.5 299.166 130.5 401.499s199.833 153.5 338.5 153.5c153.333 0 262.666 -63 327.999 -189h4v656h92v-1516h-92z
M891 623.001c0 95.333 -30.167 176.167 -90.5 242.5s-141.5 99.5 -243.5 99.5c-107.333 0 -196 -41.167 -266 -123.5s-105 -195.5 -105 -339.5c0 -141.333 31.5 -250.5 94.5 -327.5s144.167 -115.5 243.5 -115.5c116.667 0 207 36.167 271 108.5s96 160.5 96 264.5v191z
M1296 84.002h661v-84h-811v35l680 905h-631v84h787v-25zM1617 1188h-45l-220 336h86l158 -240l160 240h82z" />
    <glyph glyph-name="uni01C7" unicode="&#x1c7;" horiz-adv-x="1602" 
d="M184 0v1434h99v-1344h575v-90h-674zM1425 494c0 -346 -120.001 -519 -360.001 -519c-37.333 0 -73.666 5 -108.999 15v96c39.333 -13.333 76.333 -20 111 -20c92 0 158.333 34.833 199 104.5s61 178.167 61 325.5v938h98v-940z" />
    <glyph glyph-name="uni01C8" unicode="&#x1c8;" horiz-adv-x="1379" 
d="M184 0v1434h99v-1344h575v-90h-674zM1168 1282c-20 0 -37.6689 7.33105 -53.002 21.998s-23 33.334 -23 56.001c0 22 7.83301 39.833 23.5 53.5s33.167 20.5 52.5 20.5c20.667 0 38.834 -6.66699 54.501 -20s23.5 -31.333 23.5 -54
c0 -21.333 -7.66699 -39.666 -23 -54.999s-33.666 -23 -54.999 -23zM1215 28.998c0 -340 -120.667 -510 -362 -510c-48 0 -96.667 11.667 -146 35v96c53.333 -31.333 105.333 -47 156 -47c173.333 0 260 136.333 260 409v1012h92v-995z" />
    <glyph glyph-name="uni01C9" unicode="&#x1c9;" horiz-adv-x="840" 
d="M164 0v1516h92v-1516h-92zM629 1282c-20 0 -37.6689 7.33105 -53.002 21.998s-23 33.334 -23 56.001c0 22 7.83301 39.833 23.5 53.5s33.167 20.5 52.5 20.5c20.667 0 38.834 -6.66699 54.501 -20s23.5 -31.333 23.5 -54c0 -21.333 -7.66699 -39.666 -23 -54.999
s-33.666 -23 -54.999 -23zM675.998 28.998c0 -340 -120.667 -510 -362 -510c-48 0 -96.667 11.667 -146 35v96c53.333 -31.333 105.333 -47 156 -47c173.333 0 260 136.333 260 409v1012h92v-995z" />
    <glyph glyph-name="uni01CA" unicode="&#x1ca;" horiz-adv-x="2116" 
d="M1198 0l-854.001 1159c-17.333 23.333 -32.666 46.666 -45.999 69.999l-13 20h-4c1.33301 -17.333 2 -38.333 2 -63v-1186h-99v1434h76l848 -1149c18.667 -25.333 39 -56 61 -92h5c-3.33301 46.667 -5 86.667 -5 120v1121h99v-1434h-70zM1939 494.001
c0 -346 -120.001 -519 -360.001 -519c-37.333 0 -73.666 5 -108.999 15v96c39.333 -13.333 76.333 -20 111 -20c92 0 158.333 34.833 199 104.5s61 178.167 61 325.5v938h98v-940z" />
    <glyph glyph-name="uni01CB" unicode="&#x1cb;" horiz-adv-x="1865" 
d="M1198 0l-854.001 1159c-17.333 23.333 -32.666 46.666 -45.999 69.999l-13 20h-4c1.33301 -17.333 2 -38.333 2 -63v-1186h-99v1434h76l848 -1149c18.667 -25.333 39 -56 61 -92h5c-3.33301 46.667 -5 86.667 -5 120v1121h99v-1434h-70zM1654 1282
c-20 0 -37.6689 7.33105 -53.002 21.998s-23 33.334 -23 56.001c0 22 7.83301 39.833 23.5 53.5s33.167 20.5 52.5 20.5c20.667 0 38.834 -6.66699 54.501 -20s23.5 -31.333 23.5 -54c0 -21.333 -7.66699 -39.666 -23 -54.999s-33.666 -23 -54.999 -23zM1701 28.999
c0 -340 -120.667 -510 -362 -510c-48 0 -96.667 11.667 -146 35v96c53.333 -31.333 105.333 -47 156 -47c173.333 0 260 136.333 260 409v1012h92v-995z" />
    <glyph glyph-name="uni01CC" unicode="&#x1cc;" horiz-adv-x="1516" 
d="M860 0l-0.00195312 596.001c0 246 -88.667 369 -266 369c-98.667 0 -179.667 -36.167 -243 -108.5s-95 -161.833 -95 -268.5v-588h-92v1024h92v-186h4c74.667 140.667 191.334 211 350.001 211c110.667 0 195.334 -36.833 254.001 -110.5s88 -178.834 88 -315.501v-623
h-92zM1305 1282c-20 0 -37.6689 7.33105 -53.002 21.998s-23 33.334 -23 56.001c0 22 7.83301 39.833 23.5 53.5s33.167 20.5 52.5 20.5c20.667 0 38.834 -6.66699 54.501 -20s23.5 -31.333 23.5 -54c0 -21.333 -7.66699 -39.666 -23 -54.999s-33.666 -23 -54.999 -23z
M1352 28.999c0 -340 -120.667 -510 -362 -510c-48 0 -96.667 11.667 -146 35v96c53.333 -31.333 105.333 -47 156 -47c173.333 0 260 136.333 260 409v1012h92v-995z" />
    <glyph glyph-name="uni01CD" unicode="&#x1cd;" horiz-adv-x="1288" 
d="M1118 0l-164 446h-622l-164 -446h-109l541 1434h94l535 -1434h-111zM678 1200c-7.33301 20 -13.333 39.666 -18 58.999c-4.66699 16.667 -9.66699 33.334 -15 50.001h-4c-11.333 -44 -22.333 -79.667 -33 -107l-241 -665h553zM665 1530h-45l-220 336h86l158 -240l160 240
h82z" />
    <glyph glyph-name="uni01CE" unicode="&#x1ce;" horiz-adv-x="1012" 
d="M776 0l0.000976562 205h-4c-32.667 -70 -80.167 -125.833 -142.5 -167.5s-131.5 -62.5 -207.5 -62.5c-97.333 0 -174.333 27.333 -231 82s-85 123.667 -85 207c0 178.667 118.333 286.667 355 324l315 47c0 220 -82.667 330 -248 330
c-112.667 0 -222.334 -45.333 -329.001 -136v111c38 30 89.5 55.667 154.5 77s126.167 32 183.5 32c105.333 0 186.833 -32.667 244.5 -98s86.5 -160.333 86.5 -285v-666h-92zM494.001 510c-107.333 -15.333 -182.667 -40.168 -226 -74.501s-65 -90.166 -65 -167.499
c0 -60.667 20.167 -110.667 60.5 -150s96.5 -59 168.5 -59c98.667 0 180.667 36.5 246 109.5s98 167.167 98 282.5v100zM539 1188h-45l-220 336h86l158 -240l160 240h82z" />
    <glyph glyph-name="uni01CF" unicode="&#x1cf;" horiz-adv-x="463" 
d="M421 1434v-90h-140v-1254h140v-90h-379v90h140v1254h-140v90h379zM255 1530h-45l-220 336h86l158 -240l160 240h82z" />
    <glyph glyph-name="uni01D0" unicode="&#x1d0;" horiz-adv-x="420" 
d="M164 0v1024h92v-1024h-92zM232 1188h-45l-220 336h86l158 -240l160 240h82z" />
    <glyph glyph-name="uni01D1" unicode="&#x1d1;" horiz-adv-x="1559" 
d="M774 -25c-202.667 0 -364.167 67.332 -484.5 201.999s-180.5 309.667 -180.5 525c0 228.667 61.833 411.834 185.5 549.501s292.5 206.5 506.5 206.5c193.333 0 349.833 -66.167 469.5 -198.5s179.5 -305.833 179.5 -520.5c0 -237.333 -61.333 -424 -184 -560
s-286.667 -204 -492 -204zM784 1368c-166.667 0 -303.832 -60.335 -411.499 -181.002s-161.5 -278.667 -161.5 -474c0 -197.333 51 -354.5 153 -471.5s238 -175.5 408 -175.5c177.333 0 317.666 57.833 420.999 173.5s155 276.834 155 483.501
c0 202.667 -50.5 360.834 -151.5 474.501s-238.5 170.5 -412.5 170.5zM824.002 1530h-45l-220 336h86l158 -240l160 240h82z" />
    <glyph glyph-name="uni01D2" unicode="&#x1d2;" horiz-adv-x="1149" 
d="M575 -25c-149.333 0 -267.5 49.168 -354.5 147.501s-130.5 226.166 -130.5 383.499c0 170 45.5 303 136.5 399s210.833 144 359.5 144c146 0 261.333 -47.667 346 -143s127 -227.333 127 -396c0 -159.333 -43.167 -288.333 -129.5 -387s-204.5 -148 -354.5 -148z
M582 965.001c-120.667 0 -216.834 -40.667 -288.501 -122s-107.5 -194.333 -107.5 -339c0 -134 35 -241.667 105 -323s165.667 -122 287 -122c123.333 0 218.333 40 285 120s100 191 100 333c0 146 -33.167 258 -99.5 336s-160.166 117 -281.499 117zM612 1188h-45l-220 336
h86l158 -240l160 240h82z" />
    <glyph glyph-name="uni01D3" unicode="&#x1d3;" horiz-adv-x="1327" 
d="M1161 573c0 -398.667 -170 -598 -510 -598c-323.333 0 -485 192 -485 576v883h98v-869c0 -332.667 135.333 -499 406 -499c262 0 393 161.667 393 485v883h98v-861zM691 1530h-45l-220 336h86l158 -240l160 240h82z" />
    <glyph glyph-name="uni01D4" unicode="&#x1d4;" horiz-adv-x="1096" 
d="M840 0v186.001h-4c-71.333 -140.667 -181.333 -211 -330 -211c-242 0 -363 152.333 -363 457v592h93v-569c0 -138.667 22.833 -239.334 68.5 -302.001s117.5 -94 215.5 -94c95.333 0 172.5 35 231.5 105s88.5 163.333 88.5 280v580h92v-1024h-92zM560 1188h-45l-220 336
h86l158 -240l160 240h82z" />
    </font>
</defs>
</svg>
